<svg width="1512" height="737" viewBox="0 0 1512 737" fill="none" xmlns="http://www.w3.org/2000/svg">
<path d="M737.877 445.103C737.877 433.071 737.356 421.508 737.992 410.019C739.224 387.521 740.998 365.043 742.709 342.565C744.514 318.919 750.035 295.982 756.859 273.369C766.721 240.664 781.236 210.089 800.698 181.986C813.085 164.111 828.195 148.791 845.977 136.175C868.716 120.053 903.215 121.169 926.413 136.666C941.815 146.955 951.708 161.23 959.127 177.875C965.023 191.086 968.206 205.059 968.79 219.084C969.417 234.006 968.248 249.315 965.399 263.977C961.705 283.021 954.922 301.481 944.09 317.771C936.18 329.657 926.924 340.676 917.783 351.686C902.244 370.407 881.666 382.856 861.828 396.328C840.655 410.697 826.818 430.9 822.153 456.018C818.365 476.43 822.445 496.382 831.921 515.019C840.259 531.424 851.967 544.781 867.808 554.256C878.139 560.434 889.252 564.264 901.503 562.292C915.508 560.038 925.703 551.815 933.342 540.304C944.174 523.994 948.765 505.502 950.101 486.343C951.457 466.913 950.101 447.555 945.572 428.458C944.841 425.37 945.113 419.995 946.981 418.754C950.79 416.207 952.887 421.164 954.745 423.616C965.816 438.247 973.549 454.609 978.934 472.12C987.334 499.46 992.166 527.427 993.011 556.01C993.773 581.701 989.035 606.235 976.92 629.224C969.051 644.146 959.284 657.222 945.28 666.927C926.267 680.106 905.563 684.625 882.709 680.482C850.683 674.67 825.576 657.733 804.685 633.502C786.642 612.569 773.618 588.745 763.632 563.137C762.327 559.798 760.689 558.524 756.703 559.004C732.128 561.958 712.457 552.816 696.867 533.981C679.826 513.392 670.267 489.182 663.641 463.772C658.965 445.854 655.209 427.676 651.817 409.466C649.887 399.093 648.906 388.439 648.582 377.878C647.779 350.976 646.934 324.042 647.372 297.14C647.674 278.242 649.24 259.27 651.713 240.539C654.75 217.539 658.83 194.634 663.39 171.874C667.982 148.958 674.159 126.366 678.803 103.471C684.146 77.1529 690.365 50.9185 689.854 23.7344C689.447 1.83067 684.897 -18.7061 673.178 -37.6358C662.169 -55.4071 657.129 -74.7438 661.376 -95.8127C665.258 -115.024 677.29 -128.454 692.619 -139.276C703.441 -146.904 715.275 -152.404 728.84 -153.416C745.954 -154.699 758.477 -147.76 767.483 -133.328C774.933 -121.4 777.427 -108.252 777.761 -94.6231C778.356 -70.3505 774.829 -46.4849 769.674 -22.8385C766.105 -6.42367 762.995 10.1372 758.352 26.2494C750.995 51.7951 742.469 77.0068 734.559 102.396C729.675 118.091 724.75 133.775 720.336 149.605C709.89 187.068 704.651 225.366 704.14 264.196C703.858 285.714 703.91 307.398 706.175 328.749C708.345 349.16 712.551 369.52 717.789 389.399C722.485 407.222 729.79 424.357 735.989 441.774C736.375 442.849 737.116 443.788 737.857 445.071L737.877 445.103ZM799.874 366.65C800.416 366.713 800.949 366.786 801.491 366.848C801.491 369.28 801.408 371.711 801.512 374.132C801.627 376.73 801.794 379.339 802.18 381.896C802.597 384.62 803.077 387.385 803.954 389.994C805.613 394.93 811.791 396.14 816.414 391.83C825.513 383.346 834.884 374.988 842.805 365.471C856.371 349.16 870.02 332.725 881.614 315.016C898.863 288.677 909.643 260.199 901.754 227.63C896.599 206.353 879.819 199.434 863.341 209.911C849.734 218.562 841.041 231.377 832.975 244.546C820.379 265.093 813.001 287.895 808.285 311.364C804.611 329.625 802.618 348.211 799.874 366.66V366.65Z" fill="#EAEBDB"/>
<path d="M122.312 298.568C130.254 290.877 138.31 283.301 146.105 275.474C160.767 260.771 177.567 249.584 198.062 245.212C212.641 242.102 226.488 245.128 239.856 251.869C258.055 261.053 265.318 277.373 270.369 295.562C275.065 312.499 273.886 329.696 272.821 346.841C270.588 382.969 261.113 417.76 252.41 452.656C245.168 481.666 238.124 510.739 230.047 539.519C221.365 570.429 212.213 601.255 198.511 630.443C182.076 665.453 157.594 693.451 124.838 714.155C97.5598 731.394 68.1843 734.493 37.7653 725.623C2.99478 715.48 -19.6186 691.969 -30.5131 657.731C-35.7725 641.201 -35.2925 623.764 -34.5411 606.525C-33.508 582.795 -28.2904 559.785 -22.624 536.848C-19.3264 523.522 -16.4984 510.071 -12.8356 496.849C-1.71156 456.632 12.5014 417.603 31.2119 380.161C47.2823 348.01 60.9944 314.753 70.4696 280.014C78.6405 250.085 81.1972 219.718 75.9482 188.725C71.8471 164.474 77.9414 141.818 90.8394 121.031C98.1859 109.198 106.294 97.917 118.034 89.8922C132.998 79.6761 149.163 72.2983 167.299 70.0234C174.51 69.1155 180.218 76.2846 178.141 83.3597C172.162 103.688 165.786 123.901 160.13 144.312C149.601 182.328 139.374 220.428 129.221 258.548C126.184 269.964 123.805 281.548 121.165 293.068C120.831 294.508 120.716 296.001 120.507 297.472C121.102 297.837 121.697 298.202 122.302 298.568H122.312ZM189.746 401.71C189.746 394.594 189.996 387.466 189.693 380.36C189.067 365.98 186.834 351.892 178.131 339.892C172.277 331.825 164.461 328.141 154.057 330.531C143.694 332.91 135.263 338.524 127.207 344.911C101.15 365.573 85.0269 393.289 74.4142 423.948C67.1199 445.038 62.3197 467.056 57.4777 488.898C51.5504 515.602 49.4007 542.754 51.54 570.105C52.6461 584.318 54.0549 598.542 61.5474 611.241C67.1408 620.717 73.6211 629.357 85.1209 631.83C100.586 635.159 113.067 628.804 123.742 618.411C145.218 597.519 158.335 571.535 166.663 543.297C180.281 497.131 188.285 449.943 189.746 401.7V401.71Z" fill="#EAEBDB"/>
<path d="M426.595 529.66C424.581 533.803 422.525 537.925 420.564 542.089C413.77 556.469 405.62 570.056 394.465 581.43C377.706 598.502 357.774 607.915 333.355 602.656C300.829 595.654 279.655 576.025 269.815 544.051C265.119 528.794 264.482 513.152 265.588 497.624C266.788 480.865 268.771 463.97 272.517 447.618C280.469 412.983 294.223 380.665 315.25 351.696C329.463 332.109 346.66 315.507 365.893 301.012C381.556 289.199 397.282 277.397 413.582 266.513C434.557 252.498 446.026 233.85 445.994 208.294C445.974 193.163 446.548 178.063 441.132 163.537C435.434 148.249 422.943 141.33 408.177 140.287C396.541 139.463 388.59 147.988 382.986 157.85C375.859 170.414 375.952 183.677 379.24 197.295C380.815 203.828 383.049 210.454 383.08 217.049C383.153 230.365 367.26 248.115 354.07 249.503C342.998 250.672 333.898 245.454 326.426 237.513C313.184 223.436 311.452 206.071 312.276 187.914C313.789 154.604 325.445 124.843 344.532 97.9821C357.138 80.242 374.064 67.2709 395.112 61.3332C414.521 55.8651 434.192 57.4199 453.758 62.6585C489.374 72.1964 508.022 96.5524 515.598 131.219C519.689 149.908 517.174 168.556 515.744 187.235C513.835 212.134 507.709 236.24 501.844 260.366C491.232 304.09 479.377 347.543 477.968 392.937C477.373 412.054 476.278 431.339 481.36 449.872C485.283 464.189 491.315 477.995 497.232 491.676C505.351 510.449 516.266 528.064 521.171 548.152C524.562 562.052 525.459 575.92 517.403 588.964C506.958 605.859 491.19 609.919 472.855 607.675C448.906 604.743 436.133 590.196 435.173 565.715C434.829 556.886 433.858 548.058 432.627 539.303C432.157 535.943 430.164 532.802 428.87 529.556C428.119 529.598 427.357 529.64 426.606 529.681L426.595 529.66ZM439.921 316.863C438.888 315.079 437.719 311.458 435.236 309.465C433.994 308.463 429.799 309.663 427.92 311.124C400.465 332.558 376.099 356.778 359.694 388.053C347.798 410.739 340.024 434.302 343.175 460.453C345.022 475.772 350.396 488.827 363.889 497.718C374.199 504.511 387.703 506.431 395.498 499.628C401.999 493.951 407.832 486.823 411.923 479.237C422.118 460.339 422.828 438.977 425.583 418.222C428.484 396.38 431.333 374.529 434.359 352.698C435.935 341.355 437.855 330.064 439.911 316.874L439.921 316.863Z" fill="#EAEBDB"/>
<path d="M1093.54 393.322C1094.58 370.406 1096.29 347.5 1103.39 325.534C1113.29 294.885 1129.32 267.576 1150.11 242.991C1166.04 224.144 1184.86 208.366 1203.73 192.682C1224.26 175.599 1242.13 156.44 1252.98 131.656C1257.94 120.334 1259.86 108.281 1258.48 96.0192C1256.89 81.9733 1244.09 74.5329 1228.9 77.9035C1211.48 81.7646 1200.69 93.7026 1193.22 108.542C1188.64 117.662 1186.63 128.066 1183.28 137.823C1182.22 140.922 1180.52 143.813 1179.11 146.798C1175.98 144.961 1171.65 143.876 1169.96 141.142C1166.45 135.507 1163.01 129.235 1161.87 122.817C1155.83 88.7041 1164.77 58.4729 1186.96 31.9776C1196.64 20.4153 1207.76 10.6686 1221.56 4.41788C1240.55 -4.2017 1260.13 -5.85049 1280.39 -0.100617C1294.83 3.99003 1307.68 10.3034 1318.38 21.1248C1326.67 29.5149 1330.16 40.0754 1333.66 50.7403C1339.43 68.376 1339.17 86.3874 1335.77 104.315C1333.95 113.958 1331.09 123.464 1328.07 132.825C1319.27 160.144 1310.41 187.454 1301.08 214.596C1292.43 239.766 1285.56 265.374 1283.25 291.89C1281.35 313.648 1281.61 335.437 1284.42 357.278C1288.06 385.652 1297.8 411.939 1308.75 438.016C1317.24 458.261 1325.62 478.652 1327.82 500.806C1330.3 525.715 1309.29 551.323 1281.65 547.128C1268.35 545.104 1257.57 539.542 1248.64 530.14C1241.3 522.417 1240.96 512.66 1242.96 502.83C1244.89 493.365 1247.76 484.068 1249.3 474.551C1250.16 469.176 1249.62 463.427 1248.76 458C1248.43 455.85 1245.44 452.469 1243.85 452.574C1241.65 452.72 1238.58 455.214 1237.71 457.416C1231.93 472.036 1227.35 487.167 1220.93 501.474C1217.19 509.812 1211.56 517.669 1205.34 524.431C1193.16 537.684 1175.65 539.166 1158.01 531.048C1137.86 521.781 1125.16 505.606 1114.47 487.167C1099.24 460.87 1095.45 431.703 1093.14 402.182C1092.91 399.26 1093.4 396.286 1093.57 393.343L1093.54 393.322ZM1249.13 213.448C1246.96 214.711 1244.89 215.598 1243.19 216.954C1225.09 231.418 1209.98 248.751 1196.13 267.18C1174.73 295.668 1159.5 326.64 1159.49 363.331C1159.49 384.494 1166.66 402.14 1185.44 413.389C1197.36 420.527 1211.84 420.662 1220.71 406.439C1229.77 391.903 1233.24 375.478 1235.06 359.136C1240.41 311.144 1244.44 263.005 1249.13 213.448Z" fill="#EAEBDB"/>
<path d="M1318.91 565.088C1318.4 558.285 1321.5 546.117 1328.68 535.619C1336.1 524.777 1346.73 517.983 1360.32 517.075C1366.05 516.689 1367.7 518.025 1367.63 523.796C1367.55 532.447 1366.47 541.098 1366.62 549.738C1367.25 584.769 1375.25 616.691 1407.18 636.998C1420.9 645.722 1448.35 647.089 1459.69 630.121C1463.82 623.954 1466.05 617.505 1465.86 610.159C1465.16 582.254 1456.33 557.022 1441.79 533.344C1426.09 507.809 1405.25 486.823 1383.92 466.287C1363.77 446.887 1344.46 426.925 1329.95 402.746C1316.31 380.028 1308.98 355.422 1306.91 329.135C1305.23 307.784 1305.31 286.402 1311.03 265.667C1318.94 237.022 1335.94 215.494 1364.69 205.643C1376.54 201.584 1389.18 200.561 1402.12 201.177C1415.37 201.803 1427.32 205.215 1438.71 211.278C1458 221.568 1470.47 237.69 1478 258.039C1482.76 270.895 1485.73 284.19 1484.75 297.725C1483.95 308.817 1481.41 319.921 1478.45 330.69C1475.2 342.482 1468.32 352.614 1460.82 362.225C1459.76 363.592 1458.76 365.158 1457.36 366.066C1455.61 367.193 1453.49 367.725 1451.51 368.518C1450.88 366.514 1449.64 364.49 1449.7 362.507C1450.19 347.459 1451.94 332.422 1448.34 317.458C1444.02 299.52 1436.09 284.472 1418.02 276.76C1402.6 270.186 1377.22 277.376 1372.91 298.027C1369.69 313.524 1371.34 327.956 1376.72 342.315C1387.6 371.325 1407.27 394.21 1428.72 415.738C1445.57 432.643 1463.39 448.63 1479.48 466.203C1500.07 488.681 1517.25 513.642 1529.48 541.911C1540.53 567.447 1546.57 593.963 1546.59 621.648C1546.61 658.798 1533.8 690.709 1505.29 715.441C1494.21 725.052 1481.18 730.415 1466.91 733.796C1449.07 738.033 1431.62 736.979 1414.71 731.073C1391.2 722.86 1372.94 707.562 1358.35 687.276C1344.77 668.398 1337.35 646.933 1329.75 625.425C1323.56 607.873 1319.19 589.935 1318.91 565.078V565.088Z" fill="#EAEBDB"/>
<path d="M1001.4 349.315C1000.81 326.023 1002.68 302.909 1006.59 279.951C1010.75 255.533 1015.06 231.135 1018.85 206.654C1022.48 183.205 1026.18 159.736 1028.67 136.153C1031.63 108.123 1032.94 79.8748 1028.02 51.9603C1024.76 33.4062 1020.24 14.9879 1014.95 -3.10699C1010.69 -17.6643 1003.81 -31.4389 999.254 -45.9232C994.412 -61.2735 996.676 -76.2691 1003.78 -90.8577C1010.32 -104.246 1019.09 -115.005 1033.97 -118.605C1056.99 -124.188 1078.72 -122.101 1095.72 -103.453C1107.25 -90.8055 1112.31 -74.7455 1112.85 -58.1951C1113.53 -37.7836 1112.51 -17.2364 1110.88 3.14378C1109.65 18.6298 1106.82 34.0428 1103.79 49.3097C1099.43 71.3387 1094.16 93.1798 1089.45 115.136C1085.8 132.083 1082.26 149.051 1078.98 166.071C1074.84 187.651 1070.58 209.221 1067.22 230.937C1064.95 245.63 1063.67 260.531 1062.85 275.391C1061.87 293.058 1061.12 310.809 1061.59 328.486C1062.41 359.427 1065.83 390.149 1073.46 420.223C1078.18 438.809 1082.91 457.456 1089.11 475.572C1094.85 492.352 1102.45 508.506 1109.4 524.858C1113.5 534.501 1118.55 543.548 1120.29 554.307C1122.58 568.394 1108.78 586.051 1097.16 589.338C1071.85 596.476 1051.7 587.669 1034.65 569.208C1026.32 560.192 1019.88 550.007 1016.63 538.111C1015.18 532.8 1014.26 527.258 1013.77 521.759C1011 490.808 1008.46 459.825 1005.8 428.864C1004.36 412.073 1002.55 395.314 1001.48 378.503C1000.86 368.808 1001.36 359.041 1001.36 349.315H1001.4Z" fill="#EAEBDB"/>
<path d="M526.25 330.345C527.252 300.646 527.492 272.45 529.37 244.379C530.79 223.111 534.285 201.99 536.884 180.807C538.887 164.454 541.298 148.154 542.853 131.761C544.909 110.201 546.599 88.6 547.851 66.978C548.457 56.5844 548.3 46.0656 547.403 35.7033C545.128 9.33319 538.46 -15.5029 522.546 -37.5215C509.22 -55.9607 503 -76.9879 506.34 -99.883C508.114 -112.061 514.865 -122.215 523.579 -130.678C535.527 -142.292 549.302 -150.901 565.988 -154.345C584.751 -158.217 598.786 -149.941 606.936 -133.683C613.364 -120.879 616.391 -107.115 618.467 -92.9227C622.172 -67.6065 621.003 -42.2487 619.156 -17.0369C617.413 6.80785 613.218 30.4856 609.91 54.2051C608.188 66.5501 606.268 78.8743 604.067 91.1462C600.279 112.267 596.073 133.305 592.295 154.426C590.772 162.952 589.436 171.571 588.82 180.201C586.681 209.984 583.832 239.766 583.321 269.59C582.904 293.665 584.281 317.916 587.015 341.855C590.584 373.057 598.536 403.518 610.265 432.695C618.175 452.397 627.911 471.358 636.74 490.694C641.195 500.462 645.85 510.219 645.944 521.291C646.1 540.064 632.179 562.625 608.293 561.185C587.067 559.912 569.734 549.435 558.328 530.954C550.074 517.576 546.234 502.465 542.216 487.365C535.423 461.799 531.322 435.898 529.976 409.528C528.598 382.636 527.44 355.745 526.25 330.345Z" fill="#EAEBDB"/>
</svg>
