<svg width="3293" height="1860" viewBox="0 0 3293 1860" fill="none" xmlns="http://www.w3.org/2000/svg">
<path d="M2962.94 749.74C3250.44 749.741 3138.12 1117.84 3087.44 1093.74C3080.94 1090.65 3101.18 1092 3080.94 981.191C3071.44 929.191 3000.91 872.132 2951.94 915.24C2805.44 1044.19 3099.44 1205.74 3221.44 1391.24C3343.44 1576.74 3307.28 1833.84 3117.94 1857.74C2951.94 1878.69 2852.94 1726.19 2818.94 1582.19C2786.44 1444.54 2873.44 1395.69 2907.94 1405.19C2946.44 1415.79 2903.94 1492.74 2925.94 1567.24C2947.94 1641.74 3018.94 1674.74 3079.94 1662.24C3140.94 1649.74 3148.44 1491.74 3006.94 1359.74C2865.44 1227.74 2791.44 1139.24 2786.44 987.74C2781.44 836.24 2855.44 749.74 2962.94 749.74ZM278.438 560.181C322.64 499.027 409.683 466.169 436.438 480.186C470.013 497.776 413.165 632.111 374.438 752.191C340.498 857.424 325.77 951.246 326.938 952.182C328.938 953.781 334.534 947.675 338.438 943.682C414.193 866.191 497.712 799.047 585.938 860.181C725.937 957.191 593.967 1402.6 496.438 1630.18C419.938 1808.69 308.437 1848.68 242.438 1848.68C213.398 1848.68 43.4377 1857.68 5.4375 1665.68C-32.5624 1473.68 138.937 1125.68 199.438 983.182C247.837 869.182 240.271 751.682 230.438 707.182C224.438 657.582 245.974 605.093 278.438 560.181ZM1520.75 21.5615C1724.1 -82.5867 1704.96 216.245 1651.94 369.691C1610.77 488.817 1541.94 711.207 1541.94 956.748C1541.94 1050.45 1570.57 1131.8 1604.25 1201.19C1607.15 1019.6 1662.45 826.325 1731.94 717.192C1820.44 578.192 1915.85 562.432 2011.94 625.692C2112.94 692.192 2100.28 843.59 2069.94 927.691C2034.94 1024.69 1968.49 1091.99 1849.44 1166.69C1721.94 1246.69 1786.56 1534.77 1948.94 1499.69C2127.94 1461.02 1996.53 1136.69 2051.94 1199.69C2197.94 1365.69 2151.44 1730.19 1963.94 1750.19C1818.42 1765.71 1710.66 1644.79 1652.31 1487.97C1479.44 1545.04 1428.7 1230.2 1418.44 1055.69C1402.61 786.592 1504.44 555.882 1504.44 378.195C1504.44 292.824 1454.62 236.576 1445.65 174.562C1436.68 112.547 1461.5 51.9025 1520.75 21.5615ZM426.433 1020.69C371.434 997.686 250.432 1088.69 202.433 1310.19C154.433 1531.69 192.938 1632.96 253.934 1643.19C334.434 1656.69 414.934 1539.69 451.434 1342.69C489.771 1135.77 465.433 1037 426.433 1020.69ZM740.438 629.691C788.438 473.192 910.938 427.692 1006.94 457.691C1102.94 487.691 1178.44 569.192 1148.44 724.191C1118.44 879.191 1070.44 1004.69 1069.44 1138.19C1068.44 1271.69 1111.94 1360.69 1138.44 1413.19C1164.94 1465.69 1192.44 1570.69 1093.94 1594.19C995.438 1617.69 982.437 1523.69 977.938 1490.19C973.438 1456.69 969.937 1415.19 957.438 1441.19C944.938 1467.19 889.438 1626.19 735.438 1573.19C581.438 1520.19 622.438 1279.19 665.938 1178.19C709.438 1077.19 782.939 985.691 887.938 918.191C992.938 850.692 1008.94 803.191 1002.44 724.191C995.938 645.192 954.438 612.692 911.938 621.191C869.439 629.692 845.939 684.691 863.938 740.691C881.938 796.691 859.741 839.346 813.938 850.691C759.438 864.191 692.438 786.191 740.438 629.691ZM2213.78 63.6885C2369.31 16.0074 2413.76 186.181 2361.13 442.918L2361.07 443.193C2335.74 566.755 2284.99 814.35 2288.94 1059.68C2293.69 1354.58 2481.86 1507.81 2384.62 1559.18C2175.44 1669.69 2138.71 1309.11 2138.71 1132.59C2138.71 832.69 2216.65 631.461 2213.78 453.798C2212.41 368.437 2171.74 310.513 2151.72 251.138C2139.94 216.197 2122.44 91.6921 2213.78 63.6885ZM1197.94 34.1904C1395.94 -79.8084 1379.44 260.69 1351.94 383.69C1324.44 506.69 1289.44 716.649 1289.44 962.19C1289.44 1280.69 1519.44 1427.69 1354.44 1497.69C1219.04 1555.13 1189.94 1304.69 1170.94 1129.19C1141.92 861.191 1240.94 546.191 1207.44 371.69C1190.32 282.509 1142.44 252.19 1130.44 190.69C1118.44 129.191 1140.26 67.4013 1197.94 34.1904ZM2512.44 435.691C2566.44 350.191 2663.35 297.712 2755.94 340.691C2851.06 384.848 2883.44 485.691 2835.44 597.191C2787.44 708.691 2740.44 905.19 2738.44 969.69C2736.44 1034.19 2736.96 1115.86 2788.44 1227.19C2849.94 1360.19 2864.05 1497.01 2721.94 1465.19C2587.94 1435.19 2703.94 1281.69 2659.94 1270.69C2619.92 1260.69 2638.94 1439.19 2526.44 1446.19C2410.66 1453.4 2346.94 1290.69 2346.94 1113.69C2346.94 936.691 2492.44 802.191 2576.44 731.691C2660.44 661.191 2728.92 539.451 2673.94 505.691C2588.44 453.192 2535.94 584.692 2523.94 636.691C2517.62 664.042 2444.86 542.691 2512.44 435.691ZM981.45 976.197C943.438 965.192 830.939 1080.69 800.938 1182.19C770.938 1283.69 798.939 1366.98 854.95 1376.2C930.939 1388.71 943.939 1303.22 959.438 1199.21C974.938 1095.19 1012.18 985.094 981.45 976.197ZM2668.17 785.272C2668.81 780.908 2664.05 777.983 2660.58 780.7C2632.86 802.382 2549.97 874.183 2498.94 992.85C2454.47 1096.23 2495.44 1187.36 2560.94 1197.26C2620.44 1206.26 2640.53 1118.26 2645.94 1022.82C2653.05 897.243 2663.94 814.352 2668.17 785.272ZM1917.44 761.688C1867.78 740.27 1798.44 824.188 1762.94 935.188C1727.44 1046.19 1732.44 1145.19 1752.44 1151.69C1771.52 1157.89 1877.44 1045.19 1917.44 971.188C1957.44 897.189 1971.94 785.192 1917.44 761.688Z" fill="#E6DBB7"/>
</svg>
