<svg width="1338" height="534" viewBox="0 0 1338 534" fill="none" xmlns="http://www.w3.org/2000/svg">
<path d="M122.022 530H4V4H190.783V86.6571H122.022V236.943H188.73V319.6H122.022V530Z" fill="#FF2A2A"/>
<path d="M309.077 530H191.055L250.579 4H417.863L469.177 530H348.076L347.049 428.557H312.156L309.077 530ZM320.366 345.9H339.865L334.734 164.054L332.682 82.9H329.603L327.55 164.054L320.366 345.9Z" fill="#FF2A2A"/>
<path d="M485.068 530V4H601.037L654.404 354.166H657.482C654.062 300.564 652.009 263.243 651.325 242.203L643.115 4H752.926V530H640.036L583.59 180.586H580.512L585.643 294.051L594.879 530H485.068Z" fill="#FF2A2A"/>
<path d="M1045.07 530H927.049V4H1045.07V530Z" fill="#FF2A2A"/>
<path d="M1075.38 530V4H1200.58C1247.11 4 1280.98 14.52 1302.19 35.56C1323.4 56.6 1334 89.9133 1334 135.5V398.5C1334 444.087 1323.4 477.4 1302.19 498.44C1281.66 519.48 1248.82 530 1203.66 530H1075.38ZM1197.51 451.1C1205.72 451.1 1210.85 448.345 1212.9 442.834C1214.95 436.823 1215.98 424.8 1215.98 406.766V127.234C1215.98 109.2 1214.95 97.4276 1212.9 91.9172C1210.85 85.9057 1205.72 82.9 1197.51 82.9H1193.4V451.1H1197.51Z" fill="#FF2A2A"/>
<path d="M188.73 319.6V236.942H122.021V86.6572H190.782V4H4V530H122.021V319.6H188.73ZM421.491 0L473.586 534H344.116L343.09 432.558H316.036L312.958 534H186.577L247.007 0H421.491ZM752.927 4H643.114L651.325 242.203C652.009 263.243 654.062 300.564 657.482 354.166H654.403L601.037 4H485.067V530H594.88L585.643 294.052L580.512 180.586H583.591L640.036 530H752.927V4ZM1045.07 4H927.049V530H1045.07V4ZM1334 398.5V135.5C1334 90.6258 1323.72 57.6445 1303.17 36.5557L1302.19 35.5596C1281.31 14.8485 1248.16 4.33148 1202.76 4.00781L1200.58 4V0C1247.59 1.34601e-05 1282.72 10.6139 1305 32.7207C1327.29 54.8268 1338 89.3983 1338 135.5V398.5C1338 444.57 1327.3 479.124 1305.05 501.232C1283.45 523.373 1249.33 534 1203.66 534H1071.38V0H1200.58V4H1075.38V530H1203.66L1205.77 529.992C1249.84 529.669 1281.98 519.152 1302.19 498.44C1323.06 477.729 1333.67 445.125 1333.99 400.628L1334 398.5ZM250.579 4L191.056 530H309.077L312.156 428.558H347.05L348.076 530H469.177L417.862 4H250.579ZM1211.98 406.766V127.234C1211.98 118.28 1211.72 110.954 1211.22 105.227C1210.72 99.4146 1209.98 95.5405 1209.15 93.3135L1209.13 93.2617L1209.11 93.21C1208.38 91.045 1207.17 89.5888 1205.49 88.6055C1203.73 87.5733 1201.16 86.9004 1197.5 86.9004H1197.4V447.1H1197.5V451.1H1193.4V82.9004H1197.5C1205.72 82.9004 1210.85 85.9056 1212.9 91.917C1214.95 97.4275 1215.98 109.2 1215.98 127.234V406.766L1215.97 410.077C1215.85 426.279 1214.82 437.198 1212.9 442.834C1210.85 448.344 1205.72 451.1 1197.5 451.1V447.1C1201.2 447.1 1203.82 446.473 1205.62 445.51C1207.31 444.603 1208.44 443.309 1209.14 441.475C1209.99 438.935 1210.72 434.839 1211.22 428.969C1211.72 423.111 1211.98 415.719 1211.98 406.766ZM332.682 82.9004L334.734 164.055L339.865 345.9H320.366L327.55 164.055L329.603 82.9004H332.682ZM324.527 341.9H335.751L331.074 176.176L324.527 341.9ZM194.782 90.6572H126.021V232.942H192.73V323.6H126.021V534H0V0H194.782V90.6572ZM756.927 534H636.63L586.45 223.375L589.639 293.871L589.64 293.883V293.895L599.039 534H481.067V0H604.474L650.143 299.659C648.688 274.421 647.749 255.311 647.327 242.341L638.975 0H756.927V534ZM1049.07 534H923.049V0H1049.07V534Z" fill="#E6DBB7"/>
</svg>
