<svg width="497" height="1102" viewBox="0 0 497 1102" fill="none" xmlns="http://www.w3.org/2000/svg">
<path d="M31 1098.88V915.627H60.3207L59.2735 959.87C58.7499 984.478 58.139 1007.6 57.4409 1029.24H58.2263L71.5777 915.627H101.684V1098.88H72.1013L75.2427 984.74H74.4575L61.106 1098.88H31Z" fill="#E6DBB7"/>
<path d="M151.373 1098.88H121.267V944.424H106.868V915.627H165.772V944.424H151.373V1098.88Z" fill="#E6DBB7"/>
<path d="M192.166 1098.88H162.059L177.243 915.627H219.915L233.005 1098.88H202.114L201.852 1063.54H192.951L192.166 1098.88ZM195.045 1034.74H200.019L198.71 971.389L198.187 943.115H197.401L196.878 971.389L195.045 1034.74Z" fill="#E6DBB7"/>
<path d="M233.394 1101.5V1071.39H236.012C238.804 1071.39 240.724 1070.35 241.771 1068.25C242.818 1066.16 243.342 1062.32 243.342 1056.73V915.627H308.004V1098.88H277.898V944.424H272.139V1057.52C272.139 1073.05 269.434 1084.31 264.023 1091.29C258.787 1098.1 250.236 1101.5 238.368 1101.5H233.394Z" fill="#E6DBB7"/>
<path d="M315.801 1098.88V915.627H345.121L344.074 959.87C343.551 984.478 342.94 1007.6 342.242 1029.24H343.027L356.378 915.627H386.484V1098.88H356.902L360.044 984.74H359.258L345.907 1098.88H315.801Z" fill="#E6DBB7"/>
<path d="M394.287 1098.88V915.627H423.608L422.561 959.87C422.037 984.478 421.426 1007.6 420.728 1029.24H421.513L434.865 915.627H464.971V1098.88H435.388L438.53 984.74H437.744L424.393 1098.88H394.287Z" fill="#E6DBB7"/>
<path d="M33.2475 190.061C21.7287 190.061 13.2641 186.483 7.85375 179.327C2.61792 172.172 0 161.089 0 146.08V43.981C0 28.9716 2.61792 17.8891 7.85375 10.7335C13.0896 3.57782 21.3797 0 32.724 0C44.2428 0 52.6201 3.57782 57.856 10.7335C63.2663 17.8891 65.9715 28.9716 65.9715 43.981V64.6626H35.8655V33.7711C35.8655 31.5023 35.6037 29.9315 35.0801 29.0589C34.731 28.0117 34.0329 27.4881 32.9858 27.4881C31.9386 27.4881 31.1532 28.0117 30.6296 29.0589C30.2806 29.9315 30.106 31.5023 30.106 33.7711V156.29C30.106 158.559 30.2806 160.217 30.6296 161.264C31.1532 162.136 31.9386 162.573 32.9858 162.573C34.0329 162.573 34.731 162.136 35.0801 161.264C35.6037 160.217 35.8655 158.559 35.8655 156.29V121.21H65.9715V146.08C65.9715 161.089 63.3536 172.172 58.1178 179.327C52.8819 186.483 44.5919 190.061 33.2475 190.061Z" fill="#E6DBB7"/>
<path d="M71.103 186.657V3.40329H132.624V32.2004H101.209V69.8984H104.351C115.52 69.8984 123.723 73.6507 128.959 81.1554C134.369 88.6601 137.075 100.266 137.075 115.974V140.582C137.075 156.29 134.369 167.896 128.959 175.4C123.723 182.905 115.52 186.657 104.351 186.657H71.103ZM103.303 160.478C104.874 160.478 105.834 159.606 106.183 157.86C106.707 156.115 106.968 152.014 106.968 145.556V111C106.968 104.542 106.707 100.441 106.183 98.6955C105.834 96.9502 104.874 96.0776 103.303 96.0776H101.209V160.478H103.303Z" fill="#E6DBB7"/>
<path d="M175.386 190.061C163.867 190.061 155.49 186.483 150.254 179.327C145.018 172.172 142.4 161.089 142.4 146.08V43.981C142.4 28.9716 145.018 17.8891 150.254 10.7335C155.49 3.57782 163.867 0 175.386 0C186.905 0 195.282 3.57782 200.518 10.7335C205.754 17.8891 208.372 28.9716 208.372 43.981V146.08C208.372 161.089 205.754 172.172 200.518 179.327C195.282 186.483 186.905 190.061 175.386 190.061ZM175.386 162.573C176.433 162.573 177.131 162.136 177.48 161.264C178.004 160.217 178.266 158.559 178.266 156.29V33.7711C178.266 31.5023 178.004 29.9315 177.48 29.0589C177.131 28.0117 176.433 27.4881 175.386 27.4881C174.339 27.4881 173.554 28.0117 173.03 29.0589C172.681 29.9315 172.506 31.5023 172.506 33.7711V156.29C172.506 158.559 172.681 160.217 173.03 161.264C173.554 162.136 174.339 162.573 175.386 162.573Z" fill="#E6DBB7"/>
<path d="M215.037 186.657V3.40329H248.285C258.058 3.40329 265.912 6.5448 271.846 12.8278C277.955 18.9363 281.009 31.1532 281.009 49.4786V74.6106C281.009 92.9361 277.955 105.24 271.846 111.523C265.912 117.632 258.058 120.686 248.285 120.686H245.405V186.657H215.037ZM247.238 94.5068C248.983 94.5068 250.03 93.5469 250.379 91.6271C250.728 89.7073 250.903 85.6932 250.903 79.5847V44.5046C250.903 38.3961 250.728 34.382 250.379 32.4622C250.03 30.5424 248.983 29.5825 247.238 29.5825H245.143V94.5068H247.238Z" fill="#E6DBB7"/>
<path d="M316.471 186.657H286.365V3.40329H316.471V79.8465H322.231V3.40329H352.337V186.657H322.231V108.644H316.471V186.657Z" fill="#E6DBB7"/>
<path d="M386.429 186.657H356.323L371.507 3.40329H414.179L427.269 186.657H396.377L396.115 151.316H387.215L386.429 186.657ZM389.309 122.519H394.283L392.974 59.1649L392.45 30.8914H391.665L391.141 59.1649L389.309 122.519Z" fill="#E6DBB7"/>
<path d="M496.77 3.40329V186.657H466.664V114.927H466.141L457.763 186.657H426.086L438.652 107.073C435.162 103.931 432.98 99.6554 432.108 94.245C431.235 88.8347 430.799 80.5446 430.799 69.3748V49.4786C430.799 31.1532 433.766 18.9363 439.7 12.8278C445.808 6.5448 453.749 3.40329 463.523 3.40329H496.77ZM460.905 73.8253C460.905 79.9337 461.079 83.9479 461.428 85.8677C461.777 87.7875 462.825 88.7474 464.57 88.7474H466.664V29.5825H464.57C462.825 29.5825 461.777 30.5424 461.428 32.4622C461.079 34.382 460.905 38.3961 460.905 44.5046V73.8253Z" fill="#E6DBB7"/>
<path fill-rule="evenodd" clip-rule="evenodd" d="M178.533 774.958L178.618 374.914L318.871 374.786L319.083 776.764L268.629 807.95C265.888 809.67 263.084 811.285 260.28 813.091C257.433 814.918 254.204 817.255 251.103 818.508L178.533 774.958ZM328.919 374.999L426.131 374.786L426.407 711.205C422.456 713.266 418.696 715.964 414.914 718.173L379.246 739.948L329.174 709.994L328.919 374.999ZM71.273 374.808L168.443 374.786L168.782 710.228C168.294 711.991 138.595 729.708 133.518 732.789C129.269 735.359 125.402 738.418 121.239 740.033L71.5066 709.909L71.273 374.808ZM314.261 295.972L324.458 296.035L324.245 351.737H314.091L314.261 295.972ZM258.58 296.439L268.501 296.46V342.283L293.251 342.389C294.504 343.367 294.461 342.453 294.44 346.723C294.419 348.465 294.398 349.91 294.206 352.013L258.071 351.758C257.858 350.144 257.008 296.439 258.58 296.439ZM108.365 296.057L118.647 295.972L118.328 351.779L108.259 351.546L108.365 296.057ZM342.218 351.546C344.767 342.644 348.761 332.936 351.884 323.886C354.837 315.346 358.554 303.513 362.038 295.972L372.915 296.205L393.097 351.716L382.262 351.801L377.971 339.054C350.142 339.054 359.298 336.611 352.776 351.779L342.218 351.546ZM207.977 296.035L218.769 295.972C221.212 300.879 238.654 348.125 239.015 351.758L228.605 351.652C225.079 346.617 226.014 339.84 222.615 339.054L203.24 339.16L198.949 351.694L188.093 351.631L207.977 296.035ZM138 295.972L178.342 295.993L178.279 305.425H163.323L163.089 351.737L152.935 351.758V305.425H137.766L138 295.972ZM58.5479 717.153L250.996 833.017C258.602 829.3 383.261 751.675 391.95 746.151C399.725 741.223 407.925 736.421 415.637 731.62L439.196 717.217V269.82H58.7815L58.5479 717.153Z" fill="#275086"/>
<path fill-rule="evenodd" clip-rule="evenodd" d="M238.675 725.352C239.801 720.508 246.811 697.289 249.042 694.612L259.345 725.352L290.659 726.542C290.531 726.648 290.361 726.775 290.234 726.882L265.485 744.875L275.512 776.04C270.392 773.831 253.567 759.64 248.851 757.239C244.517 759.597 228.966 771.77 222.083 776.061C224.101 769.072 231.388 750.441 231.728 744.705C227.585 741.03 223.103 738.545 218.705 735.124C215.476 732.617 207.637 727.816 205.895 725.331L238.675 725.352ZM308.652 641.864C300.07 683.905 229.327 710.503 203.219 657.648C193.489 637.933 201.986 616.859 210.059 613.205C209.549 639.484 222.763 660.112 247.512 668.1C267.736 674.6 285.114 668.333 298.689 654.397C302.236 650.765 305.147 646.07 308.652 641.864ZM233.81 610.423L238.122 610.741L238.059 638.061L233.874 638.188L233.81 635.278V610.423ZM282.331 631.773C278.656 643.988 263.934 639.952 264.592 623.254C265.272 605.834 281.757 607.555 282.352 617.029C274.938 617.029 278.018 614.14 272.028 615.181C268.459 616.966 266.887 632.07 273.047 633.621C277.848 634.832 274.216 631.496 282.331 631.773ZM261.321 634.364C251.825 644.094 240.268 636.85 241.585 621.979C242.902 607.151 258.814 605.791 260.96 618.283L257.093 618.878C256.286 617.688 255.33 616.392 254.331 614.926L249.424 615.139C241.798 624.316 246.747 639.123 257.051 631.709L256.796 628.097L252.101 627.673L252.122 623.381L261.321 623.573V634.364ZM215.774 610.486H230.432L230.39 615.16H220.235L220.193 621.682L229.03 622.107V626.27L220.193 626.419L220.065 638.061L215.901 638.188L215.816 635.278L215.774 610.486ZM203.771 667.377C194.912 659.156 186.648 643.138 186.308 625.527C185.629 592.195 210.335 563.219 246.62 568.53C261.873 570.76 276.298 581.722 278.082 596.253C266.292 591.43 259.812 585.822 242.095 587.394C225.079 588.902 208.062 601.245 201.222 613.885C194.87 625.612 194.381 638.21 197.716 651.211C199.458 657.945 201.838 661.918 203.771 667.377ZM260.11 664.552L258.495 663.766C258.07 662.491 257.858 662.789 259.175 662.874C268.225 660.388 278.571 648.322 282.841 640.058C288.428 629.245 290.106 614.735 286.983 601.649C283.882 588.584 277.147 580.256 268.48 574.435C254.693 565.173 246.386 566.193 233.47 563.622C236.975 563.389 241.309 562.071 245.855 561.859C250.338 561.647 254.969 561.965 259.26 562.645C267.142 563.898 274.981 567.064 280.738 570.42C291.381 576.645 302.003 587.968 307.165 601.691C315.641 624.295 303.469 652.231 284.413 661.833C275.044 666.549 270.604 665.359 260.11 664.552ZM251.102 818.507C254.204 817.253 257.433 814.916 260.28 813.089C263.084 811.284 265.888 809.669 268.629 807.948L319.083 776.762L318.87 374.785L178.618 374.913L178.533 774.957L251.102 818.507Z" fill="white"/>
<path fill-rule="evenodd" clip-rule="evenodd" d="M108.704 652.847C112.082 650.467 117.011 626.993 119.942 622.362C120.048 622.51 120.218 622.723 120.303 622.829C122.492 626.61 127.654 647.175 130.437 652.825H163.131C158.861 656.182 154.527 659.114 150.151 662.491C147.304 664.701 139.487 670.649 136.576 671.796L146.518 703.79L119.942 684.734C113.399 688.43 98.231 701.41 93.3449 703.258L103.181 672.752L76.9446 652.847H108.704ZM71.5061 709.908L121.238 740.032C125.402 738.417 129.268 735.358 133.517 732.787C138.594 729.707 168.293 711.99 168.782 710.226L168.442 374.785L71.2725 374.806L71.5061 709.908Z" fill="#2C9563"/>
<path fill-rule="evenodd" clip-rule="evenodd" d="M376.335 624.868C376.569 624.231 376.675 623.806 376.973 623.233C377.589 622.022 377.419 622.553 378.077 621.809L388.253 652.847L420.778 652.974L407.5 662.768C403.889 665.572 396.921 669.736 394.435 672.773L404.165 703.428L384.344 689.386C382.262 687.729 379.904 685.902 377.759 684.734C375.039 685.775 373.021 687.814 370.578 689.556C365.395 693.274 355.495 700.964 350.843 703.492L360.806 671.775C357.874 670.585 337.671 655.672 334.634 652.847H367.54L376.335 624.868ZM329.174 709.993L379.246 739.947L414.914 718.172C418.696 715.962 422.456 713.264 426.407 711.204L426.131 374.785L328.919 374.998L329.174 709.993Z" fill="#DA3540"/>
<path fill-rule="evenodd" clip-rule="evenodd" d="M58.7827 269.822H439.197V717.219L415.638 731.622C407.926 736.423 399.726 741.224 391.951 746.153C383.262 751.676 258.603 829.301 250.998 833.019L58.549 717.155L58.7827 269.822ZM42 725.206L93.8776 758.028C98.2963 760.811 102.375 763.297 106.964 765.931C145.203 787.961 186.14 814.218 224.846 836.907L251.104 852.627L270.287 841.071C272.688 839.605 274.472 838.5 276.724 837.013L333.785 801.897C347.572 794.015 364.822 782.14 378.758 774.174L397.687 762.383C399.939 760.875 401.851 759.813 404.23 758.432C406.63 757.072 407.778 756.095 410.221 754.693C412.579 753.333 414.682 752.08 416.721 750.699L455.704 726.715V253.061H42V725.206Z" fill="#D0A65A"/>
<path fill-rule="evenodd" clip-rule="evenodd" d="M203.772 667.378C201.839 661.918 199.46 657.946 197.718 651.211C194.382 638.21 194.871 625.612 201.223 613.886C208.063 601.246 225.08 588.903 242.096 587.395C259.813 585.823 266.293 591.431 278.083 596.253C276.299 581.723 261.874 570.761 246.621 568.53C210.336 563.219 185.63 592.196 186.31 625.527C186.649 643.139 194.913 659.157 203.772 667.378Z" fill="#2C9563"/>
<path fill-rule="evenodd" clip-rule="evenodd" d="M308.652 641.865C305.147 646.071 302.236 650.766 298.689 654.399C285.114 668.335 267.736 674.602 247.512 668.101C222.763 660.114 209.549 639.486 210.059 613.207C201.986 616.861 193.489 637.935 203.219 657.649C229.327 710.504 300.069 683.907 308.652 641.865Z" fill="#275086"/>
<path fill-rule="evenodd" clip-rule="evenodd" d="M259.175 662.876C259.578 663.577 259.345 663.662 260.11 664.554C270.604 665.361 275.044 666.551 284.413 661.835C303.468 652.233 315.641 624.297 307.165 601.693C302.003 587.97 291.381 576.647 280.737 570.422C274.98 567.066 267.141 563.9 259.26 562.647C254.969 561.967 250.337 561.649 245.855 561.861C241.309 562.073 236.975 563.391 233.47 563.624C246.386 566.195 254.692 565.175 268.48 574.437C277.147 580.258 283.882 588.586 286.983 601.651C290.106 614.737 288.428 629.247 282.841 640.06C278.571 648.324 268.225 660.39 259.175 662.876Z" fill="#DA3540"/>
<path fill-rule="evenodd" clip-rule="evenodd" d="M354.964 698.627C355.941 697.692 358.958 693.018 360.211 691.191L376.208 669.565L377.377 674.26C377.313 683.756 379.055 682.078 366.096 691.064C362.697 693.401 358.257 697.076 354.964 698.627ZM400.745 698.138C396.815 693.252 393.224 688.217 389.358 682.885C387.574 680.463 385.492 677.574 383.686 675.046C382.305 673.113 379.543 669.905 378.779 667.61L392.545 672.22L400.745 698.138ZM362.761 671.456C358.979 669.629 354.943 666.23 351.459 663.808C349.292 662.299 347.508 660.94 345.829 659.708L340.858 655.331L376.166 667.186L362.761 671.456ZM378.736 666.145C379.968 663.468 385.131 656.266 387.17 654.354L414.426 654.291C410.05 656.67 384.642 665.04 378.736 666.145ZM376.336 630.009L377.185 665.337C377.015 665.21 376.803 665.04 376.697 664.955L372.639 659.878C371.173 657.732 369.962 656.245 368.667 654.014L376.336 630.009ZM367.541 652.846H334.634C337.672 655.671 357.875 670.585 360.806 671.774L350.843 703.491C355.495 700.963 365.395 693.273 370.578 689.555C373.022 687.813 375.04 685.774 377.759 684.733C379.905 685.901 382.263 687.728 384.345 689.385L404.165 703.428L394.435 672.773C396.921 669.735 403.889 665.571 407.5 662.767L420.778 652.973L388.253 652.846L378.078 621.809C377.419 622.552 377.589 622.021 376.973 623.232C376.675 623.806 376.569 624.23 376.336 624.868L367.541 652.846Z" fill="#D1A65A"/>
<path fill-rule="evenodd" clip-rule="evenodd" d="M227.032 770.58L248.531 741.327C248.51 757.642 251.017 753.563 238.334 762.677C235.147 764.992 230.686 768.88 227.032 770.58ZM249.891 740.434C266.737 745.49 262.488 741.539 267.587 756.707C269.031 760.977 270.773 765.099 271.623 769.666C268.415 767.35 268.67 766.352 265.675 762.316L249.891 740.434ZM212.204 728.177L246.853 739.139C246.152 739.776 246.598 739.733 245.302 740.392C245.047 740.519 243.836 740.923 243.581 741.008L232.874 743.982C230.877 741.242 217.196 733.127 212.204 728.177ZM249.891 738.48C251.038 736.696 252.567 734.401 253.948 732.574C255.287 730.79 256.731 728.708 258.197 726.881L285.644 727.221L249.891 738.48ZM245.961 735.527C238.61 726.413 239.63 726.18 241.436 720.848L246.237 706.168C247.936 700.198 247.363 702.918 248.489 701.771L248.51 737.715L245.961 735.527ZM238.674 725.351L205.895 725.33C207.637 727.816 215.476 732.617 218.705 735.123C223.102 738.544 227.585 741.029 231.727 744.704C231.387 750.44 224.101 769.071 222.082 776.06C228.965 771.769 244.516 759.596 248.85 757.238C253.566 759.639 270.391 773.83 275.511 776.039L265.484 744.874L290.233 726.881C290.36 726.775 290.53 726.647 290.658 726.541L259.344 725.351L249.041 694.611C246.81 697.288 239.8 720.508 238.674 725.351Z" fill="#D1A65A"/>
<path fill-rule="evenodd" clip-rule="evenodd" d="M97.9565 698.246C99.7198 694.57 110.979 679.912 114.208 675.281C115.738 673.114 117.756 670.076 119.732 668.398L119.625 682.504L97.9565 698.246ZM143.015 697.991C139.68 694.655 122.09 669.779 121.495 667.761L134.942 672.031L143.015 697.991ZM103.82 671.457C101.759 668.313 87.5895 660.261 83.2132 655.333L118.478 666.805C115.759 668.844 107.856 671.032 103.82 671.457ZM121.112 666.252C122.961 662.768 127.231 656.353 129.801 654.313L152.171 654.228L154.423 654.207L157.078 654.398C146.966 657.648 131.586 664.255 121.112 666.252ZM119.774 627.928L119.625 665.679C116.736 662.683 112.976 657.67 110.788 653.952L119.774 627.928ZM108.706 652.847H76.9463L103.183 672.753L93.3466 703.259C98.2327 701.411 113.401 688.431 119.944 684.734L146.52 703.79L136.578 671.797C139.488 670.65 147.306 664.701 150.153 662.492C154.529 659.114 158.863 656.183 163.133 652.826H130.438C127.655 647.175 122.493 626.611 120.305 622.83C120.22 622.723 120.05 622.511 119.944 622.362C117.012 626.993 112.084 650.468 108.706 652.847Z" fill="#D0A65A"/>
<path fill-rule="evenodd" clip-rule="evenodd" d="M213.546 309.504L220.301 329.601L206.493 329.58L213.546 309.504ZM188.096 351.631L198.951 351.694L203.243 339.161L222.617 339.054C226.016 339.84 225.081 346.617 228.608 351.652L239.017 351.758C238.656 348.125 221.215 300.879 218.772 295.972L207.98 296.035L188.096 351.631Z" fill="#D0A65A"/>
<path fill-rule="evenodd" clip-rule="evenodd" d="M367.265 310.078C369.305 312.712 373.129 325.246 374.233 329.622L360.425 329.537L367.265 310.078ZM342.219 351.546L352.777 351.779C359.299 336.611 350.143 339.054 377.972 339.054L382.264 351.801L393.098 351.716L372.916 296.205L362.039 295.972C358.555 303.513 354.838 315.346 351.885 323.886C348.762 332.936 344.768 342.645 342.219 351.546Z" fill="#D0A65A"/>
<path fill-rule="evenodd" clip-rule="evenodd" d="M137.767 305.425H152.935V351.758L163.089 351.737L163.323 305.425H178.279L178.342 295.993L138 295.972L137.767 305.425Z" fill="#D0A65A"/>
<path fill-rule="evenodd" clip-rule="evenodd" d="M293.25 342.388L268.501 342.282V296.459L258.58 296.438L258.601 351.332H293.59L293.25 342.388Z" fill="#D0A65A"/>
<path fill-rule="evenodd" clip-rule="evenodd" d="M314.092 351.737H324.246L324.459 296.035L314.262 295.972L314.092 351.737Z" fill="#D0A65A"/>
<path fill-rule="evenodd" clip-rule="evenodd" d="M108.259 351.546L118.328 351.779L118.647 295.972L108.365 296.057L108.259 351.546Z" fill="#D0A65A"/>
<path fill-rule="evenodd" clip-rule="evenodd" d="M261.321 634.368V623.576L252.123 623.385L252.101 627.676L256.796 628.101L257.051 631.712C246.748 639.126 241.798 624.319 249.425 615.142L254.332 614.93C255.33 616.395 256.286 617.691 257.094 618.881L260.96 618.286C258.814 605.795 242.903 607.154 241.586 621.983C240.268 636.853 251.825 644.097 261.321 634.368Z" fill="#D1A65A"/>
<path fill-rule="evenodd" clip-rule="evenodd" d="M282.33 631.775C274.215 631.499 277.848 634.835 273.047 633.624C266.886 632.073 268.458 616.968 272.027 615.184C278.018 614.143 274.938 617.032 282.352 617.032C281.757 607.557 265.272 605.837 264.592 623.257C263.933 639.954 278.655 643.991 282.33 631.775Z" fill="#D1A65A"/>
<path fill-rule="evenodd" clip-rule="evenodd" d="M215.816 635.28L215.901 638.19L220.065 638.063L220.192 626.421L229.03 626.273V622.109L220.192 621.684L220.235 615.162H230.389L230.432 610.488H215.773L215.816 635.28Z" fill="#D1A65A"/>
<path fill-rule="evenodd" clip-rule="evenodd" d="M121.111 666.255C131.585 664.258 146.965 657.651 157.077 654.401L154.422 654.21L152.17 654.231L129.8 654.316C127.23 656.356 122.96 662.771 121.111 666.255Z" fill="#DEB264"/>
<path fill-rule="evenodd" clip-rule="evenodd" d="M378.735 666.149C384.641 665.044 410.049 656.674 414.425 654.295L387.169 654.359C385.13 656.271 379.967 663.472 378.735 666.149Z" fill="#DEB264"/>
<path fill-rule="evenodd" clip-rule="evenodd" d="M248.512 737.717L248.49 701.772C247.364 702.92 247.938 700.2 246.238 706.17L241.437 720.849C239.632 726.182 238.612 726.415 245.962 735.529L248.512 737.717Z" fill="#E0B364"/>
<path fill-rule="evenodd" clip-rule="evenodd" d="M103.819 671.454C107.855 671.029 115.758 668.841 118.477 666.802L83.2119 655.33C87.5882 660.259 101.758 668.31 103.819 671.454Z" fill="#E0B364"/>
<path fill-rule="evenodd" clip-rule="evenodd" d="M143.016 697.998L134.943 672.038L121.496 667.768C122.091 669.786 139.681 694.662 143.016 697.998Z" fill="#E0B364"/>
<path fill-rule="evenodd" clip-rule="evenodd" d="M110.786 653.953C112.974 657.671 116.734 662.685 119.624 665.68L119.772 627.93L110.786 653.953Z" fill="#DEB264"/>
<path fill-rule="evenodd" clip-rule="evenodd" d="M400.745 698.144L392.544 672.226L378.778 667.616C379.543 669.911 382.305 673.118 383.686 675.052C385.491 677.58 387.573 680.469 389.358 682.891C393.224 688.223 396.814 693.258 400.745 698.144Z" fill="#E0B364"/>
<path fill-rule="evenodd" clip-rule="evenodd" d="M265.677 762.315C268.672 766.351 268.417 767.35 271.625 769.665C270.775 765.098 269.033 760.976 267.589 756.706C262.49 741.538 266.739 745.49 249.893 740.434L265.677 762.315Z" fill="#E0B364"/>
<path fill-rule="evenodd" clip-rule="evenodd" d="M354.964 698.631C358.257 697.08 362.697 693.405 366.096 691.068C379.054 682.082 377.312 683.76 377.376 674.264L376.208 669.569L360.211 691.196C358.958 693.023 355.941 697.696 354.964 698.631Z" fill="#E0B364"/>
<path fill-rule="evenodd" clip-rule="evenodd" d="M362.761 671.454L376.166 667.184L340.858 655.33L345.829 659.706C347.508 660.938 349.292 662.298 351.459 663.806C354.943 666.228 358.979 669.627 362.761 671.454Z" fill="#E0B364"/>
<path fill-rule="evenodd" clip-rule="evenodd" d="M212.207 728.183C217.199 733.132 230.88 741.248 232.877 743.988L243.584 741.014C243.839 740.929 245.05 740.525 245.305 740.398C246.601 739.739 246.155 739.782 246.856 739.144L212.207 728.183Z" fill="#E0B364"/>
<path fill-rule="evenodd" clip-rule="evenodd" d="M97.9561 698.251L119.625 682.509L119.731 668.403C117.755 670.082 115.737 673.119 114.208 675.286C110.979 679.918 99.7193 694.576 97.9561 698.251Z" fill="#E0B364"/>
<path fill-rule="evenodd" clip-rule="evenodd" d="M249.893 738.487L285.646 727.228L258.199 726.888C256.733 728.715 255.289 730.797 253.95 732.581C252.569 734.408 251.04 736.702 249.893 738.487Z" fill="#E0B364"/>
<path fill-rule="evenodd" clip-rule="evenodd" d="M227.032 770.581C230.686 768.881 235.147 764.994 238.334 762.678C251.017 753.565 248.51 757.643 248.531 741.328L227.032 770.581Z" fill="#E0B364"/>
<path fill-rule="evenodd" clip-rule="evenodd" d="M368.666 654.018C369.962 656.249 371.173 657.736 372.639 659.882L376.696 664.959C376.802 665.044 377.015 665.214 377.185 665.341L376.335 630.013L368.666 654.018Z" fill="#E0B364"/>
<path fill-rule="evenodd" clip-rule="evenodd" d="M360.423 329.54L374.231 329.625C373.127 325.249 369.303 312.715 367.263 310.081L360.423 329.54Z" fill="#275086"/>
<path fill-rule="evenodd" clip-rule="evenodd" d="M206.491 329.58L220.3 329.602L213.544 309.505L206.491 329.58Z" fill="#275086"/>
<path fill-rule="evenodd" clip-rule="evenodd" d="M233.812 635.282L233.875 638.193L238.06 638.065L238.124 610.745L233.812 610.427V635.282Z" fill="#D1A65A"/>
<path fill-rule="evenodd" clip-rule="evenodd" d="M293.251 342.388L293.591 351.332H258.602L258.581 296.438C257.009 296.438 257.859 350.142 258.071 351.757L294.207 352.012C294.398 349.908 294.42 348.464 294.441 346.722C294.462 342.452 294.505 343.365 293.251 342.388Z" fill="#92876A"/>
<path fill-rule="evenodd" clip-rule="evenodd" d="M260.11 664.554C259.345 663.661 259.579 663.576 259.175 662.875C257.858 662.79 258.071 662.493 258.495 663.768L260.11 664.554Z" fill="#ED9DA2"/>
</svg>
