<svg width="148" height="91" viewBox="0 0 148 91" fill="none" xmlns="http://www.w3.org/2000/svg">
<path d="M9.60021 76.9999H0.720215V75.4159L6.49222 70.5439V70.3399H0.840215V68.5999H9.48022V70.1839L3.70821 75.0559V75.2599H9.60021V76.9999Z" fill="#462C24"/>
<path d="M17.8614 76.9999H10.4694V75.2839H13.0974V70.3159H10.4694V68.5999H17.8614V70.3159H15.2334V75.2839H17.8614V76.9999Z" fill="#462C24"/>
<path d="M27.6705 76.9999H18.7905V75.4159L24.5625 70.5439V70.3399H18.9105V68.5999H27.5505V70.1839L21.7785 75.0559V75.2599H27.6705V76.9999Z" fill="#462C24"/>
<path d="M33.7298 77.1559C32.1538 77.1559 30.9618 76.7959 30.1538 76.0759C29.3458 75.3479 28.9418 74.3319 28.9418 73.0279V68.5999H31.0778V72.8719C31.0778 73.6479 31.2978 74.2479 31.7378 74.6719C32.1858 75.0879 32.8498 75.2959 33.7298 75.2959C34.6018 75.2959 35.2618 75.0879 35.7098 74.6719C36.1578 74.2479 36.3818 73.6479 36.3818 72.8719V68.5999H38.5178V73.0279C38.5178 74.3239 38.1098 75.3359 37.2938 76.0639C36.4858 76.7919 35.2978 77.1559 33.7298 77.1559Z" fill="#462C24"/>
<path d="M48.6704 77.1559C47.5024 77.1559 46.5064 76.9679 45.6824 76.5919C44.8584 76.2159 44.2344 75.6999 43.8104 75.0439C43.3864 74.3799 43.1744 73.6319 43.1744 72.7999C43.1744 71.9679 43.3864 71.2239 43.8104 70.5679C44.2344 69.9039 44.8584 69.3839 45.6824 69.0079C46.5064 68.6319 47.5024 68.4439 48.6704 68.4439C49.7664 68.4439 50.7064 68.5999 51.4904 68.9119C52.2824 69.2159 52.8984 69.6319 53.3384 70.1599C53.7864 70.6879 54.0664 71.2879 54.1784 71.9599H52.0424C51.9224 71.4639 51.5824 71.0439 51.0224 70.6999C50.4624 70.3559 49.6784 70.1839 48.6704 70.1839C47.9584 70.1839 47.3464 70.2999 46.8344 70.5319C46.3304 70.7559 45.9504 71.0679 45.6944 71.4679C45.4384 71.8599 45.3104 72.3039 45.3104 72.7999C45.3104 73.2959 45.4384 73.7439 45.6944 74.1439C45.9504 74.5359 46.3304 74.8479 46.8344 75.0799C47.3464 75.3039 47.9584 75.4159 48.6704 75.4159C49.6784 75.4159 50.4624 75.2439 51.0224 74.8999C51.5824 74.5559 51.9224 74.1359 52.0424 73.6399H54.1784C54.0664 74.3199 53.7904 74.9239 53.3504 75.4519C52.9104 75.9799 52.2944 76.3959 51.5024 76.6999C50.7184 77.0039 49.7744 77.1559 48.6704 77.1559Z" fill="#462C24"/>
<path d="M60.8365 77.1559C59.6445 77.1559 58.6285 76.9679 57.7885 76.5919C56.9565 76.2079 56.3245 75.6879 55.8925 75.0319C55.4685 74.3759 55.2565 73.6319 55.2565 72.7999C55.2565 71.9679 55.4685 71.2239 55.8925 70.5679C56.3245 69.9119 56.9565 69.3959 57.7885 69.0199C58.6285 68.6359 59.6445 68.4439 60.8365 68.4439C62.0285 68.4439 63.0405 68.6359 63.8725 69.0199C64.7125 69.3959 65.3445 69.9119 65.7685 70.5679C66.2005 71.2239 66.4165 71.9679 66.4165 72.7999C66.4165 73.6319 66.2005 74.3759 65.7685 75.0319C65.3445 75.6879 64.7125 76.2079 63.8725 76.5919C63.0405 76.9679 62.0285 77.1559 60.8365 77.1559ZM60.8365 75.4159C61.5805 75.4159 62.2085 75.3039 62.7205 75.0799C63.2405 74.8479 63.6285 74.5359 63.8845 74.1439C64.1485 73.7439 64.2805 73.2959 64.2805 72.7999C64.2805 72.3039 64.1485 71.8599 63.8845 71.4679C63.6285 71.0679 63.2405 70.7559 62.7205 70.5319C62.2085 70.2999 61.5805 70.1839 60.8365 70.1839C60.0925 70.1839 59.4605 70.2999 58.9405 70.5319C58.4285 70.7559 58.0405 71.0679 57.7765 71.4679C57.5205 71.8599 57.3925 72.3039 57.3925 72.7999C57.3925 73.2959 57.5205 73.7439 57.7765 74.1439C58.0405 74.5359 58.4285 74.8479 58.9405 75.0799C59.4605 75.3039 60.0925 75.4159 60.8365 75.4159Z" fill="#462C24"/>
<path d="M75.8397 76.9999H67.9797V68.5999H70.1157V75.2239H75.8397V76.9999Z" fill="#462C24"/>
<path d="M85.0741 76.9999H77.2141V68.5999H79.3501V75.2239H85.0741V76.9999Z" fill="#462C24"/>
<path d="M94.7885 68.5999V70.2799H88.5845V71.9839H93.9485V73.4839H88.5845V75.3199H94.7885V76.9999H86.4485V68.5999H94.7885Z" fill="#462C24"/>
<path d="M101.334 77.1559C100.166 77.1559 99.1705 76.9679 98.3465 76.5919C97.5225 76.2159 96.8985 75.6999 96.4745 75.0439C96.0505 74.3799 95.8385 73.6319 95.8385 72.7999C95.8385 71.9679 96.0505 71.2239 96.4745 70.5679C96.8985 69.9039 97.5225 69.3839 98.3465 69.0079C99.1705 68.6319 100.166 68.4439 101.334 68.4439C102.43 68.4439 103.37 68.5999 104.154 68.9119C104.946 69.2159 105.562 69.6319 106.002 70.1599C106.45 70.6879 106.73 71.2879 106.842 71.9599H104.706C104.586 71.4639 104.246 71.0439 103.686 70.6999C103.126 70.3559 102.342 70.1839 101.334 70.1839C100.622 70.1839 100.01 70.2999 99.4985 70.5319C98.9945 70.7559 98.6145 71.0679 98.3585 71.4679C98.1025 71.8599 97.9745 72.3039 97.9745 72.7999C97.9745 73.2959 98.1025 73.7439 98.3585 74.1439C98.6145 74.5359 98.9945 74.8479 99.4985 75.0799C100.01 75.3039 100.622 75.4159 101.334 75.4159C102.342 75.4159 103.126 75.2439 103.686 74.8999C104.246 74.5559 104.586 74.1359 104.706 73.6399H106.842C106.73 74.3199 106.454 74.9239 106.014 75.4519C105.574 75.9799 104.958 76.3959 104.166 76.6999C103.382 77.0039 102.438 77.1559 101.334 77.1559Z" fill="#462C24"/>
<path d="M112.576 76.9999H110.44V70.3759H106.984V68.5999H116.032V70.3759H112.576V76.9999Z" fill="#462C24"/>
<path d="M124.022 76.9999H116.63V75.2839H119.258V70.3159H116.63V68.5999H124.022V70.3159H121.394V75.2839H124.022V76.9999Z" fill="#462C24"/>
<path d="M130.411 77.1559C129.219 77.1559 128.203 76.9679 127.363 76.5919C126.531 76.2079 125.899 75.6879 125.467 75.0319C125.043 74.3759 124.831 73.6319 124.831 72.7999C124.831 71.9679 125.043 71.2239 125.467 70.5679C125.899 69.9119 126.531 69.3959 127.363 69.0199C128.203 68.6359 129.219 68.4439 130.411 68.4439C131.603 68.4439 132.615 68.6359 133.447 69.0199C134.287 69.3959 134.919 69.9119 135.343 70.5679C135.775 71.2239 135.991 71.9679 135.991 72.7999C135.991 73.6319 135.775 74.3759 135.343 75.0319C134.919 75.6879 134.287 76.2079 133.447 76.5919C132.615 76.9679 131.603 77.1559 130.411 77.1559ZM130.411 75.4159C131.155 75.4159 131.783 75.3039 132.295 75.0799C132.815 74.8479 133.203 74.5359 133.459 74.1439C133.723 73.7439 133.855 73.2959 133.855 72.7999C133.855 72.3039 133.723 71.8599 133.459 71.4679C133.203 71.0679 132.815 70.7559 132.295 70.5319C131.783 70.2999 131.155 70.1839 130.411 70.1839C129.667 70.1839 129.035 70.2999 128.515 70.5319C128.003 70.7559 127.615 71.0679 127.351 71.4679C127.095 71.8599 126.967 72.3039 126.967 72.7999C126.967 73.2959 127.095 73.7439 127.351 74.1439C127.615 74.5359 128.003 74.8479 128.515 75.0799C129.035 75.3039 129.667 75.4159 130.411 75.4159Z" fill="#462C24"/>
<path d="M137.554 76.9999V68.5999H140.878L145.366 75.7279H145.57C145.466 75.3839 145.386 75.0479 145.33 74.7199C145.282 74.3919 145.258 73.9919 145.258 73.5199V68.5999H147.31V76.9999H143.986L139.498 69.8719H139.294C139.398 70.2159 139.474 70.5519 139.522 70.8799C139.578 71.2079 139.606 71.6079 139.606 72.0799V76.9999H137.554Z" fill="#462C24"/>
<path d="M61.9122 88.9439H66.5682V89.9999H60.5362V88.9679C60.5362 88.4186 60.6749 88.0052 60.9522 87.7279C61.2349 87.4452 61.5709 87.2639 61.9602 87.1839C62.3549 87.0986 62.8589 87.0372 63.4722 86.9999C63.8935 86.9732 64.2215 86.9412 64.4562 86.9039C64.6962 86.8666 64.8936 86.7946 65.0482 86.6879C65.2082 86.5759 65.2882 86.4132 65.2882 86.1999C65.2882 85.6506 64.7202 85.3759 63.5842 85.3759C62.9975 85.3759 62.5655 85.4719 62.2882 85.6639C62.0162 85.8559 61.8802 86.1119 61.8802 86.4319V86.5999H60.4562V86.4079C60.4562 85.7626 60.7095 85.2506 61.2162 84.8719C61.7282 84.4879 62.5175 84.2959 63.5842 84.2959C64.6669 84.2959 65.4589 84.4666 65.9602 84.8079C66.4615 85.1439 66.7122 85.5892 66.7122 86.1439C66.7122 86.6346 66.5815 87.0026 66.3202 87.2479C66.0642 87.4879 65.7549 87.6452 65.3922 87.7199C65.0295 87.7946 64.5522 87.8506 63.9602 87.8879C63.4855 87.9199 63.1149 87.9599 62.8482 88.0079C62.5815 88.0506 62.3575 88.1412 62.1762 88.2799C62.0002 88.4132 61.9122 88.6159 61.9122 88.8879V88.9439Z" fill="#462C24"/>
<path d="M70.7105 90.1039C70.0705 90.1039 69.5079 89.9786 69.0225 89.7279C68.5372 89.4772 68.1639 89.1306 67.9025 88.6879C67.6412 88.2452 67.5105 87.7492 67.5105 87.1999C67.5105 86.6506 67.6412 86.1546 67.9025 85.7119C68.1639 85.2692 68.5372 84.9226 69.0225 84.6719C69.5079 84.4212 70.0705 84.2959 70.7105 84.2959C71.3505 84.2959 71.9132 84.4212 72.3985 84.6719C72.8839 84.9226 73.2572 85.2692 73.5185 85.7119C73.7799 86.1546 73.9105 86.6506 73.9105 87.1999C73.9105 87.7492 73.7799 88.2452 73.5185 88.6879C73.2572 89.1306 72.8839 89.4772 72.3985 89.7279C71.9132 89.9786 71.3505 90.1039 70.7105 90.1039ZM70.7105 88.9439C71.0625 88.9439 71.3719 88.8719 71.6385 88.7279C71.9105 88.5786 72.1185 88.3732 72.2625 88.1119C72.4119 87.8452 72.4865 87.5412 72.4865 87.1999C72.4865 86.8586 72.4119 86.5572 72.2625 86.2959C72.1185 86.0292 71.9105 85.8239 71.6385 85.6799C71.3719 85.5306 71.0625 85.4559 70.7105 85.4559C70.3585 85.4559 70.0465 85.5306 69.7745 85.6799C69.5079 85.8239 69.2999 86.0292 69.1505 86.2959C69.0065 86.5572 68.9345 86.8586 68.9345 87.1999C68.9345 87.5412 69.0065 87.8452 69.1505 88.1119C69.2999 88.3732 69.5079 88.5786 69.7745 88.7279C70.0465 88.8719 70.3585 88.9439 70.7105 88.9439Z" fill="#462C24"/>
<path d="M76.2638 88.9439H80.9198V89.9999H74.8878V88.9679C74.8878 88.4186 75.0264 88.0052 75.3038 87.7279C75.5864 87.4452 75.9224 87.2639 76.3118 87.1839C76.7064 87.0986 77.2104 87.0372 77.8238 86.9999C78.2451 86.9732 78.5731 86.9412 78.8078 86.9039C79.0478 86.8666 79.2451 86.7946 79.3998 86.6879C79.5598 86.5759 79.6398 86.4132 79.6398 86.1999C79.6398 85.6506 79.0718 85.3759 77.9358 85.3759C77.3491 85.3759 76.9171 85.4719 76.6398 85.6639C76.3678 85.8559 76.2318 86.1119 76.2318 86.4319V86.5999H74.8078V86.4079C74.8078 85.7626 75.0611 85.2506 75.5678 84.8719C76.0798 84.4879 76.8691 84.2959 77.9358 84.2959C79.0184 84.2959 79.8104 84.4666 80.3118 84.8079C80.8131 85.1439 81.0638 85.5892 81.0638 86.1439C81.0638 86.6346 80.9331 87.0026 80.6718 87.2479C80.4158 87.4879 80.1064 87.6452 79.7438 87.7199C79.3811 87.7946 78.9038 87.8506 78.3118 87.8879C77.8371 87.9199 77.4664 87.9599 77.1998 88.0079C76.9331 88.0506 76.7091 88.1412 76.5278 88.2799C76.3518 88.4132 76.2638 88.6159 76.2638 88.8879V88.9439Z" fill="#462C24"/>
<path d="M84.9501 90.1039C83.8888 90.1039 83.1154 89.9412 82.6301 89.6159C82.1501 89.2852 81.9101 88.8426 81.9101 88.2879V88.1999H83.3341V88.2479C83.3341 88.4772 83.4568 88.6639 83.7021 88.8079C83.9528 88.9519 84.3714 89.0239 84.9581 89.0239C85.5341 89.0239 85.9501 88.9412 86.2061 88.7759C86.4621 88.6106 86.5901 88.3919 86.5901 88.1199C86.5901 87.5172 86.0328 87.2159 84.9181 87.2159C84.3954 87.2159 84.0034 87.2666 83.7421 87.3679C83.4861 87.4639 83.3128 87.5812 83.2221 87.7199H81.8381L82.2301 84.3999H87.8381V85.4559H83.2781L83.0701 87.0719H83.1901C83.4941 86.5386 84.2301 86.2719 85.3981 86.2719C86.2994 86.2719 86.9608 86.4372 87.3821 86.7679C87.8034 87.0932 88.0141 87.5492 88.0141 88.1359C88.0141 88.7599 87.7741 89.2452 87.2941 89.5919C86.8141 89.9332 86.0328 90.1039 84.9501 90.1039Z" fill="#462C24"/>
<path d="M73.4471 35.3039C73.4471 34.5964 73.4165 33.9165 73.4539 33.2409C73.5263 31.918 73.6306 30.5962 73.7312 29.2745C73.8374 27.8841 74.162 26.5354 74.5633 25.2057C75.1432 23.2826 75.9967 21.4847 77.1411 19.8322C77.8695 18.7811 78.758 17.8803 79.8036 17.1385C81.1406 16.1904 83.1692 16.2561 84.5333 17.1673C85.439 17.7723 86.0207 18.6118 86.457 19.5905C86.8037 20.3673 86.9908 21.1889 87.0252 22.0136C87.062 22.8911 86.9933 23.7913 86.8257 24.6534C86.6085 25.7732 86.2097 26.8587 85.5728 27.8166C85.1076 28.5155 84.5634 29.1635 84.0258 29.8108C83.1122 30.9116 81.9021 31.6437 80.7356 32.4359C79.4906 33.2808 78.677 34.4688 78.4027 35.9457C78.1799 37.1459 78.4199 38.3192 78.977 39.4151C79.4673 40.3797 80.1558 41.1651 81.0872 41.7223C81.6947 42.0855 82.3482 42.3107 83.0686 42.1948C83.8921 42.0622 84.4916 41.5787 84.9407 40.9019C85.5777 39.9428 85.8477 38.8555 85.9262 37.7289C86.006 36.5863 85.9262 35.4481 85.6599 34.3252C85.6169 34.1435 85.6329 33.8275 85.7427 33.7545C85.9667 33.6048 86.09 33.8963 86.1992 34.0405C86.8503 34.9007 87.305 35.8629 87.6216 36.8925C88.1156 38.5002 88.3997 40.1447 88.4494 41.8254C88.4942 43.3361 88.2156 44.7787 87.5032 46.1305C87.0405 47.0079 86.4662 47.7768 85.6427 48.3475C84.5247 49.1225 83.3073 49.3881 81.9635 49.1445C80.0803 48.8028 78.6039 47.8069 77.3755 46.3821C76.3146 45.1511 75.5488 43.7503 74.9615 42.2445C74.8848 42.0481 74.7885 41.9732 74.5541 42.0015C73.109 42.1751 71.9524 41.6376 71.0356 40.53C70.0336 39.3194 69.4715 37.8958 69.0819 36.4016C68.807 35.3481 68.5861 34.2791 68.3867 33.2084C68.2732 32.5985 68.2155 31.972 68.1965 31.351C68.1492 29.7691 68.0995 28.1854 68.1253 26.6035C68.1431 25.4922 68.2351 24.3767 68.3805 23.2752C68.5591 21.9228 68.799 20.5759 69.0672 19.2376C69.3372 17.8902 69.7004 16.5617 69.9735 15.2154C70.2877 13.6679 70.6534 12.1253 70.6233 10.5268C70.5994 9.23882 70.3318 8.03123 69.6427 6.91814C68.9954 5.87315 68.699 4.73613 68.9487 3.49724C69.177 2.36758 69.8845 1.57786 70.7859 0.941544C71.4222 0.492993 72.1181 0.169619 72.9157 0.110099C73.9221 0.0346241 74.6584 0.442677 75.188 1.2913C75.6261 1.99266 75.7727 2.76582 75.7924 3.5672C75.8273 4.99446 75.6199 6.39779 75.3168 7.78824C75.107 8.75345 74.9241 9.72726 74.6511 10.6747C74.2185 12.1768 73.7171 13.6593 73.252 15.1522C72.9648 16.0751 72.6752 16.9973 72.4157 17.9282C71.8014 20.1311 71.4934 22.383 71.4633 24.6663C71.4468 25.9316 71.4498 27.2066 71.583 28.4621C71.7106 29.6623 71.9579 30.8595 72.2659 32.0284C72.5421 33.0765 72.9716 34.084 73.3361 35.1081C73.3588 35.1713 73.4023 35.2266 73.4459 35.302L73.4471 35.3039ZM77.0926 30.6907C77.1245 30.6944 77.1558 30.6987 77.1877 30.7024C77.1877 30.8454 77.1828 30.9883 77.189 31.1307C77.1957 31.2835 77.2055 31.4369 77.2282 31.5872C77.2528 31.7474 77.281 31.91 77.3325 32.0634C77.4301 32.3536 77.7934 32.4248 78.0652 32.1714C78.6003 31.6725 79.1513 31.181 79.617 30.6214C80.4147 29.6623 81.2173 28.6959 81.899 27.6546C82.9134 26.1058 83.5472 24.4313 83.0833 22.5162C82.7802 21.265 81.7935 20.8582 80.8246 21.4743C80.0245 21.983 79.5133 22.7365 79.039 23.5109C78.2984 24.7191 77.8645 26.0598 77.5872 27.4398C77.3712 28.5136 77.254 29.6059 77.0926 30.6907Z" fill="#462C24"/>
<path d="M37.2504 26.6875C37.7174 26.2352 38.1911 25.7898 38.6494 25.3295C39.5116 24.465 40.4995 23.8072 41.7046 23.5501C42.5618 23.3672 43.3761 23.5452 44.1621 23.9415C45.2323 24.4815 45.6594 25.4412 45.9563 26.5107C46.2325 27.5066 46.1631 28.5179 46.1005 29.526C45.9692 31.6504 45.4121 33.6962 44.9003 35.7481C44.4745 37.4539 44.0603 39.1634 43.5853 40.8558C43.0748 42.6733 42.5367 44.4859 41.731 46.2022C40.7646 48.2609 39.325 49.9072 37.3989 51.1246C35.7949 52.1383 34.0676 52.3205 32.2789 51.799C30.2343 51.2025 28.9046 49.8201 28.264 47.8068C27.9548 46.8348 27.983 45.8095 28.0272 44.7958C28.0879 43.4004 28.3947 42.0474 28.7279 40.6987C28.9218 39.9151 29.0881 39.1242 29.3035 38.3467C29.9576 35.9819 30.7933 33.687 31.8936 31.4853C32.8385 29.5948 33.6448 27.6392 34.202 25.5965C34.6824 23.8366 34.8328 22.051 34.5241 20.2286C34.283 18.8025 34.6413 17.4704 35.3997 16.2481C35.8317 15.5522 36.3085 14.8889 36.9988 14.417C37.8787 13.8163 38.8292 13.3825 39.8957 13.2487C40.3197 13.1953 40.6553 13.6169 40.5332 14.0329C40.1816 15.2282 39.8067 16.4168 39.4741 17.617C38.855 19.8524 38.2537 22.0927 37.6566 24.3343C37.4781 25.0056 37.3381 25.6867 37.1829 26.3641C37.1633 26.4488 37.1565 26.5365 37.1442 26.623C37.1792 26.6445 37.2148 26.666 37.2504 26.6875ZM41.2156 32.7524C41.2156 32.3339 41.2303 31.9148 41.2125 31.497C41.1757 30.6514 41.0444 29.823 40.5326 29.1174C40.1884 28.6431 39.7288 28.4264 39.117 28.567C38.5077 28.7069 38.0119 29.037 37.5382 29.4125C36.006 30.6275 35.058 32.2572 34.4339 34.06C34.005 35.3001 33.7227 36.5949 33.438 37.8792C33.0895 39.4494 32.9631 41.046 33.0889 42.6543C33.1539 43.49 33.2368 44.3264 33.6773 45.0732C34.0062 45.6303 34.3873 46.1384 35.0635 46.2838C35.9729 46.4796 36.7067 46.1059 37.3345 45.4947C38.5973 44.2663 39.3686 42.7384 39.8583 41.0779C40.659 38.3633 41.1297 35.5892 41.2156 32.7524Z" fill="#462C24"/>
<path d="M55.1427 40.2766C55.0242 40.5202 54.9034 40.7626 54.788 41.0074C54.3885 41.853 53.9093 42.6519 53.2534 43.3207C52.2679 44.3246 51.0959 44.8781 49.66 44.5688C47.7474 44.1571 46.5024 43.0029 45.9237 41.1228C45.6476 40.2257 45.6102 39.3059 45.6752 38.3928C45.7458 37.4074 45.8624 36.4139 46.0827 35.4524C46.5502 33.4158 47.359 31.5154 48.5954 29.8121C49.4312 28.6603 50.4424 27.684 51.5733 26.8317C52.4943 26.1371 53.419 25.4431 54.3775 24.8031C55.6109 23.979 56.2852 22.8825 56.2834 21.3798C56.2821 20.49 56.3159 19.6021 55.9974 18.748C55.6624 17.8491 54.9279 17.4422 54.0596 17.3809C53.3755 17.3324 52.9079 17.8337 52.5784 18.4136C52.1593 19.1524 52.1648 19.9323 52.3581 20.733C52.4507 21.1172 52.5821 21.5068 52.5839 21.8946C52.5882 22.6776 51.6537 23.7213 50.8781 23.8029C50.227 23.8717 49.6919 23.5649 49.2526 23.0979C48.4739 22.2701 48.3721 21.2491 48.4205 20.1814C48.5095 18.2227 49.1949 16.4727 50.3172 14.8933C51.0585 13.8501 52.0537 13.0874 53.2914 12.7383C54.4327 12.4167 55.5894 12.5082 56.7399 12.8162C58.8342 13.377 59.9307 14.8092 60.3762 16.8476C60.6167 17.9466 60.4688 19.0431 60.3848 20.1415C60.2725 21.6056 59.9123 23.023 59.5674 24.4417C58.9434 27.0128 58.2463 29.5678 58.1635 32.237C58.1285 33.3612 58.0641 34.4951 58.3629 35.5849C58.5936 36.4268 58.9483 37.2386 59.2962 38.0431C59.7736 39.1469 60.4154 40.1827 60.7038 41.3639C60.9033 42.1813 60.956 42.9968 60.4823 43.7638C59.8681 44.7572 58.9409 44.9959 57.8628 44.864C56.4546 44.6916 55.7035 43.8362 55.6471 42.3966C55.6268 41.8775 55.5697 41.3584 55.4973 40.8436C55.4697 40.646 55.3525 40.4613 55.2764 40.2705C55.2323 40.2729 55.1875 40.2754 55.1433 40.2778L55.1427 40.2766ZM55.9263 27.7638C55.8655 27.6589 55.7968 27.446 55.6507 27.3288C55.5777 27.2699 55.331 27.3404 55.2206 27.4263C53.6062 28.6867 52.1734 30.1109 51.2088 31.9499C50.5093 33.2839 50.0521 34.6694 50.2374 36.2071C50.3461 37.1079 50.6621 37.8755 51.4555 38.3983C52.0617 38.7978 52.8557 38.9107 53.3141 38.5106C53.6964 38.1768 54.0394 37.7577 54.2799 37.3116C54.8794 36.2004 54.9212 34.9443 55.0831 33.7238C55.2537 32.4395 55.4212 31.1546 55.5992 29.871C55.6918 29.204 55.8054 28.5394 55.9263 27.7638Z" fill="#462C24"/>
<path d="M94.3602 32.2596C94.4215 30.9121 94.5222 29.5652 94.9394 28.2736C95.5217 26.4714 96.4642 24.8656 97.6866 23.4199C98.6235 22.3117 99.7299 21.3839 100.839 20.4617C102.047 19.4572 103.097 18.3306 103.736 16.8732C104.027 16.2075 104.14 15.4987 104.059 14.7778C103.966 13.9518 103.213 13.5143 102.319 13.7125C101.295 13.9396 100.661 14.6415 100.221 15.5141C99.952 16.0504 99.8342 16.6622 99.6372 17.2359C99.5746 17.4181 99.4746 17.5881 99.3918 17.7636C99.2077 17.6556 98.9531 17.5918 98.8536 17.431C98.6475 17.0997 98.445 16.7309 98.3781 16.3535C98.0228 14.3476 98.5487 12.57 99.8532 11.012C100.423 10.3321 101.077 9.75901 101.888 9.39146C103.005 8.88461 104.156 8.78766 105.348 9.12576C106.196 9.3663 106.952 9.73753 107.581 10.3739C108.069 10.8672 108.274 11.4882 108.479 12.1153C108.819 13.1523 108.803 14.2114 108.604 15.2656C108.497 15.8326 108.328 16.3916 108.151 16.942C107.633 18.5484 107.112 20.1542 106.564 21.7502C106.055 23.2303 105.651 24.7361 105.516 26.2953C105.404 27.5747 105.419 28.8559 105.584 30.1402C105.799 31.8086 106.371 33.3543 107.015 34.8877C107.514 36.0781 108.007 37.2771 108.136 38.5798C108.282 40.0445 107.047 41.5503 105.421 41.3036C104.639 41.1846 104.006 40.8575 103.48 40.3047C103.049 39.8506 103.029 39.2769 103.146 38.6988C103.26 38.1423 103.429 37.5956 103.519 37.036C103.57 36.7199 103.538 36.3818 103.488 36.0628C103.468 35.9364 103.292 35.7376 103.199 35.7437C103.069 35.7523 102.889 35.8989 102.838 36.0284C102.498 36.8881 102.229 37.7778 101.851 38.6191C101.631 39.1094 101.3 39.5714 100.934 39.969C100.218 40.7483 99.1887 40.8355 98.1511 40.3581C96.9662 39.8132 96.2194 38.8621 95.5911 37.7778C94.6952 36.2315 94.4724 34.5165 94.3368 32.7805C94.3233 32.6087 94.3522 32.4339 94.362 32.2608L94.3602 32.2596ZM103.509 21.6827C103.381 21.757 103.26 21.8091 103.16 21.8889C102.095 22.7394 101.207 23.7586 100.393 24.8422C99.1341 26.5174 98.2388 28.3386 98.2382 30.4961C98.2382 31.7405 98.6597 32.7781 99.7642 33.4396C100.465 33.8593 101.317 33.8673 101.838 33.0309C102.371 32.1761 102.575 31.2103 102.682 30.2494C102.996 27.4274 103.234 24.5968 103.509 21.6827Z" fill="#462C24"/>
<path d="M107.612 42.3595C107.582 41.9594 107.765 41.2439 108.187 40.6266C108.623 39.9891 109.248 39.5896 110.047 39.5362C110.384 39.5135 110.481 39.5921 110.477 39.9314C110.472 40.4401 110.409 40.9488 110.418 41.4568C110.455 43.5167 110.925 45.3938 112.803 46.5879C113.609 47.1009 115.224 47.1812 115.891 46.1835C116.133 45.8209 116.264 45.4416 116.253 45.0097C116.212 43.3689 115.693 41.8851 114.838 40.4928C113.915 38.9913 112.689 37.7574 111.435 36.5498C110.25 35.4091 109.115 34.2352 108.262 32.8135C107.46 31.4776 107.028 30.0307 106.907 28.4851C106.808 27.2296 106.813 25.9723 107.149 24.7531C107.614 23.0687 108.614 21.8028 110.304 21.2236C111.001 20.9849 111.744 20.9247 112.505 20.9609C113.284 20.9977 113.987 21.1984 114.657 21.5549C115.791 22.1599 116.525 23.108 116.967 24.3045C117.247 25.0605 117.422 25.8422 117.364 26.6381C117.317 27.2903 117.168 27.9432 116.993 28.5765C116.802 29.2699 116.398 29.8657 115.957 30.4308C115.894 30.5112 115.835 30.6032 115.753 30.6566C115.651 30.7229 115.526 30.7542 115.41 30.8008C115.372 30.683 115.299 30.564 115.303 30.4474C115.332 29.5626 115.435 28.6783 115.223 27.7984C114.969 26.7436 114.503 25.8588 113.44 25.4053C112.534 25.0188 111.041 25.4415 110.788 26.6559C110.598 27.5671 110.695 28.4157 111.012 29.26C111.651 30.9659 112.808 32.3115 114.069 33.5774C115.06 34.5715 116.108 35.5115 117.054 36.5449C118.265 37.8666 119.275 39.3343 119.994 40.9966C120.644 42.4981 120.999 44.0573 121 45.6852C121.001 47.8697 120.248 49.7461 118.572 51.2004C117.92 51.7655 117.154 52.0809 116.315 52.2797C115.266 52.5289 114.24 52.4669 113.245 52.1196C111.863 51.6367 110.789 50.7371 109.931 49.5443C109.133 48.4342 108.697 47.172 108.25 45.9074C107.885 44.8753 107.629 43.8211 107.612 42.3595Z" fill="#462C24"/>
<path d="M88.9421 29.6714C88.9071 28.3018 89.017 26.9427 89.2471 25.5927C89.4919 24.1569 89.7453 22.7223 89.9681 21.2827C90.1816 19.9039 90.3988 18.5239 90.5455 17.1371C90.7198 15.489 90.7965 13.8279 90.5074 12.1865C90.3154 11.0955 90.0497 10.0125 89.7386 8.94848C89.4882 8.09249 89.0839 7.28252 88.8157 6.43083C88.531 5.5282 88.6642 4.64644 89.082 3.78861C89.4661 3.00134 89.9822 2.36871 90.8572 2.15701C92.2108 1.82873 93.4884 1.95145 94.488 3.04798C95.166 3.79168 95.4636 4.73603 95.4955 5.70922C95.5354 6.90944 95.4753 8.11765 95.3795 9.31604C95.3071 10.2266 95.1408 11.1329 94.9629 12.0307C94.7064 13.326 94.3965 14.6103 94.1192 15.9013C93.905 16.8978 93.6964 17.8956 93.5037 18.8964C93.2601 20.1653 93.0098 21.4337 92.8122 22.7106C92.679 23.5746 92.6036 24.4508 92.5551 25.3246C92.4974 26.3634 92.4538 27.4072 92.4814 28.4467C92.5293 30.266 92.7306 32.0725 93.1791 33.8409C93.4565 34.9338 93.735 36.0303 94.0995 37.0955C94.437 38.0822 94.8837 39.0321 95.2924 39.9936C95.5336 40.5606 95.8305 41.0926 95.933 41.7252C96.0674 42.5536 95.2562 43.5919 94.5726 43.7851C93.0846 44.2049 91.8997 43.687 90.8971 42.6015C90.4074 42.0713 90.0288 41.4724 89.8374 40.7729C89.7521 40.4606 89.6981 40.1348 89.6693 39.8114C89.5066 37.9914 89.3569 36.1696 89.2004 34.349C89.1158 33.3617 89.0096 32.3762 88.9464 31.3877C88.9102 30.8177 88.9397 30.2433 88.9397 29.6714H88.9421Z" fill="#462C24"/>
<path d="M61.0029 28.5559C61.0618 26.8096 61.0759 25.1516 61.1864 23.501C61.2698 22.2505 61.4754 21.0085 61.6282 19.7629C61.746 18.8013 61.8877 17.8429 61.9792 16.8789C62.1 15.6112 62.1994 14.341 62.2731 13.0696C62.3087 12.4584 62.2995 11.8399 62.2467 11.2306C62.1129 9.67998 61.7208 8.21958 60.7851 6.92485C60.0015 5.8406 59.6358 4.60417 59.8321 3.2579C59.9364 2.54181 60.3334 1.94477 60.8458 1.44713C61.5484 0.764176 62.3584 0.257945 63.3395 0.0554529C64.4428 -0.172198 65.2681 0.314398 65.7474 1.27041C66.1253 2.02331 66.3033 2.83267 66.4254 3.66718C66.6432 5.15581 66.5745 6.64689 66.4659 8.12938C66.3634 9.53148 66.1167 10.9238 65.9222 12.3185C65.821 13.0444 65.7081 13.7691 65.5786 14.4907C65.3559 15.7327 65.1086 16.9697 64.8865 18.2117C64.7969 18.713 64.7183 19.2198 64.6821 19.7273C64.5563 21.4785 64.3888 23.2298 64.3587 24.9835C64.3342 26.3991 64.4152 27.8251 64.576 29.2328C64.7858 31.0675 65.2534 32.8586 65.9431 34.5743C66.4082 35.7328 66.9807 36.8477 67.4998 37.9847C67.7618 38.5591 68.0355 39.1328 68.041 39.7838C68.0502 40.8877 67.2317 42.2144 65.8271 42.1297C64.579 42.0548 63.5598 41.4388 62.8891 40.352C62.4038 39.5654 62.178 38.6769 61.9417 37.789C61.5423 36.2856 61.3011 34.7626 61.222 33.212C61.141 31.6308 61.0728 30.0495 61.0029 28.5559Z" fill="#462C24"/>
</svg>
