<svg width="1104" height="622" viewBox="0 0 1104 622" fill="#462C24" xmlns="http://www.w3.org/2000/svg">
<path d="M539.497 418.819C539.497 410.426 539.132 402.36 539.577 394.345C540.436 378.651 541.675 362.971 542.869 347.291C544.129 330.796 547.983 314.796 552.747 299.021C559.63 276.207 569.762 254.878 583.347 235.275C591.994 222.805 602.541 212.119 614.954 203.318C630.826 192.071 654.907 192.85 671.1 203.66C681.852 210.838 688.757 220.796 693.936 232.407C698.052 241.622 700.273 251.37 700.681 261.153C701.118 271.563 700.303 282.242 698.314 292.469C695.735 305.754 691.001 318.632 683.44 329.995C677.918 338.286 671.457 345.973 665.076 353.653C654.23 366.713 639.866 375.397 626.018 384.795C611.239 394.819 601.58 408.912 598.324 426.433C595.68 440.672 598.528 454.59 605.142 467.591C610.962 479.035 619.135 488.352 630.192 494.962C637.404 499.271 645.161 501.943 653.713 500.567C663.488 498.995 670.605 493.259 675.937 485.229C683.498 473.852 686.703 460.952 687.635 447.587C688.582 434.033 687.635 420.53 684.474 407.208C683.964 405.053 684.154 401.305 685.457 400.438C688.116 398.662 689.58 402.12 690.877 403.831C698.605 414.036 704.003 425.45 707.762 437.665C713.625 456.738 716.998 476.247 717.588 496.185C718.12 514.107 714.813 531.221 706.356 547.258C700.863 557.667 694.045 566.788 684.27 573.558C670.998 582.752 656.546 585.904 640.594 583.014C618.239 578.96 600.713 567.145 586.13 550.242C573.536 535.64 564.445 519.021 557.474 501.157C556.563 498.827 555.42 497.939 552.637 498.274C535.483 500.334 521.752 493.957 510.87 480.818C498.975 466.456 492.302 449.567 487.677 431.842C484.413 419.343 481.791 406.662 479.424 393.96C478.076 386.724 477.392 379.291 477.166 371.925C476.605 353.158 476.015 334.37 476.321 315.604C476.532 302.42 477.625 289.186 479.351 276.12C481.471 260.076 484.319 244.097 487.502 228.221C490.707 212.235 495.019 196.475 498.261 180.504C501.99 162.145 506.332 143.845 505.975 124.882C505.691 109.602 502.515 95.2762 494.335 82.0713C486.65 69.6744 483.131 56.1856 486.096 41.4883C488.806 28.0869 497.205 18.7182 507.905 11.1694C515.459 5.84813 523.719 2.01185 533.188 1.30575C545.135 0.410374 553.876 5.25121 560.162 15.3187C565.363 23.6391 567.104 32.8112 567.337 42.3182C567.752 59.2502 565.29 75.8983 561.692 92.3936C559.2 103.844 557.03 115.397 553.788 126.636C548.653 144.456 542.702 162.043 537.18 179.754C533.771 190.703 530.333 201.644 527.252 212.687C519.96 238.82 516.304 265.535 515.947 292.622C515.75 307.633 515.787 322.759 517.367 337.653C518.882 351.892 521.818 366.094 525.475 379.961C528.752 392.394 533.851 404.347 538.178 416.497C538.448 417.247 538.965 417.902 539.482 418.797L539.497 418.819ZM583.901 363.555C583.901 363.742 583.901 363.578 583.901 364.23C583.901 365.926 583.843 367.623 583.916 369.311C583.996 371.124 584.112 372.944 584.382 374.727C584.673 376.627 585.008 378.556 585.62 380.376C586.778 383.819 591.091 384.664 594.317 381.657C600.669 375.739 607.211 369.908 612.739 363.269C622.209 351.892 631.736 340.426 639.829 328.073C651.87 309.7 659.395 289.834 653.888 267.115C650.289 252.272 638.576 247.446 627.075 254.755C617.576 260.789 611.508 269.728 605.878 278.915C597.085 293.248 591.936 309.154 588.643 325.525C586.079 338.264 585.817 350.31 583.901 363.18C583.901 363.18 583.901 363.367 583.901 363.555Z" fill="#462C24"/>
<path d="M109.809 316.601C115.352 311.236 120.976 305.951 126.417 300.491C136.651 290.235 148.379 282.431 162.685 279.381C172.861 277.212 182.527 279.323 191.858 284.025C204.562 290.431 209.632 301.816 213.157 314.504C216.435 326.319 215.612 338.316 214.869 350.276C213.31 375.477 206.696 399.747 200.621 424.089C195.566 444.326 190.649 464.607 185.011 484.684C178.951 506.245 172.562 527.749 162.998 548.109C151.526 572.532 134.437 592.063 111.572 606.505C92.531 618.531 72.026 620.693 50.7925 614.505C26.5216 607.43 10.7367 591.029 3.13201 567.145C-0.539223 555.615 -0.20415 543.451 0.320312 531.425C1.04145 514.871 4.68355 498.82 8.63887 482.82C10.9407 473.524 12.9147 464.141 15.4714 454.918C23.2364 426.863 33.1575 399.638 46.218 373.519C57.4357 351.091 67.0071 327.891 73.6212 303.658C79.3247 282.781 81.1094 261.597 77.4454 239.977C74.5827 223.06 78.8367 207.256 87.84 192.756C92.968 184.501 98.6279 176.632 106.823 171.034C117.268 163.907 128.551 158.761 141.211 157.174C146.245 156.54 150.229 161.541 148.78 166.477C144.606 180.657 140.155 194.757 136.207 208.996C128.857 235.515 121.719 262.092 114.631 288.684C112.512 296.648 110.851 304.728 109.008 312.765C108.775 313.769 108.695 314.81 108.549 315.837C108.964 316.091 109.379 316.346 109.802 316.601H109.809ZM156.88 388.551C156.88 383.586 157.054 378.615 156.843 373.657C156.406 363.626 154.847 353.799 148.772 345.428C144.686 339.801 139.23 337.231 131.968 338.898C124.734 340.558 118.849 344.474 113.225 348.929C95.0367 363.342 83.7827 382.677 76.3746 404.064C71.283 418.775 67.9322 434.135 64.5524 449.371C60.4149 467.999 58.9144 486.94 60.4077 506.02C61.1798 515.934 62.1632 525.856 67.3932 534.715C71.2975 541.325 75.821 547.352 83.8482 549.078C94.6434 551.4 103.355 546.967 110.807 539.716C125.798 525.143 134.954 507.017 140.767 487.319C150.273 455.114 155.86 422.197 156.88 388.544V388.551Z" fill="#462C24"/>
<path d="M322.209 477.804C320.803 480.694 319.368 483.57 317.999 486.474C313.257 496.505 307.568 505.983 299.781 513.918C288.083 525.827 274.17 532.393 257.125 528.724C234.42 523.84 219.64 510.147 212.771 487.843C209.493 477.2 209.049 466.288 209.821 455.456C210.659 443.766 212.043 431.98 214.658 420.573C220.208 396.413 229.809 373.868 244.487 353.661C254.408 339.997 266.412 328.415 279.837 318.304C290.771 310.064 301.748 301.831 313.126 294.238C327.767 284.462 335.772 271.454 335.75 253.626C335.736 243.071 336.136 232.538 332.356 222.405C328.379 211.74 319.66 206.914 309.352 206.186C301.231 205.611 295.68 211.558 291.768 218.437C286.793 227.202 286.859 236.454 289.153 245.954C290.253 250.511 291.812 255.133 291.834 259.734C291.885 269.022 280.791 281.405 271.584 282.373C263.855 283.188 257.504 279.548 252.288 274.009C243.044 264.189 241.835 252.076 242.411 239.409C243.467 216.173 251.603 195.412 264.926 176.675C273.725 164.3 285.54 155.252 300.233 151.11C313.781 147.295 327.512 148.38 341.17 152.034C366.031 158.688 379.048 175.678 384.336 199.86C387.191 212.898 385.436 225.906 384.438 238.936C383.105 256.305 378.829 273.121 374.735 289.951C367.327 320.452 359.053 350.763 358.069 382.429C357.654 395.765 356.889 409.217 360.437 422.146C363.175 432.133 367.386 441.764 371.516 451.307C377.183 464.403 384.802 476.691 388.226 490.704C390.593 500.4 391.22 510.074 385.596 519.174C378.305 530.959 367.298 533.791 354.5 532.226C337.783 530.18 328.867 520.032 328.197 502.955C327.956 496.796 327.279 490.638 326.419 484.531C326.092 482.187 324.7 479.995 323.797 477.732C323.273 477.761 322.741 477.79 322.216 477.819L322.209 477.804ZM331.511 329.362C330.79 328.117 329.974 325.591 328.24 324.201C327.374 323.502 324.445 324.339 323.134 325.358C303.969 340.31 286.961 357.206 275.51 379.022C267.206 394.848 261.779 411.285 263.979 429.527C265.269 440.213 269.02 449.32 278.438 455.522C285.635 460.261 295.061 461.6 300.502 456.854C305.04 452.894 309.112 447.922 311.968 442.63C319.084 429.447 319.579 414.546 321.503 400.067C323.528 384.831 325.516 369.588 327.629 354.359C328.728 346.447 330.069 338.57 331.504 329.369L331.511 329.362Z" fill="#462C24"/>
<path d="M787.757 382.698C788.485 366.712 789.68 350.734 794.633 335.41C801.546 314.031 812.734 294.98 827.244 277.83C838.367 264.683 851.501 253.677 864.671 242.736C879.006 230.819 891.476 217.454 899.052 200.165C902.512 192.267 903.852 183.859 902.891 175.306C901.784 165.508 892.846 160.318 882.24 162.669C870.083 165.362 862.551 173.69 857.335 184.041C854.138 190.404 852.739 197.661 850.401 204.468C849.658 206.63 848.471 208.646 847.487 210.728C845.302 209.447 842.279 208.69 841.099 206.783C838.652 202.852 836.248 198.477 835.454 194C831.236 170.203 837.479 149.115 852.965 130.632C859.725 122.566 867.49 115.767 877.119 111.407C890.377 105.394 904.042 104.244 918.188 108.255C928.262 111.109 937.236 115.513 944.702 123.061C950.493 128.914 952.926 136.281 955.366 143.721C959.394 156.023 959.212 168.587 956.845 181.093C955.57 187.82 953.574 194.451 951.469 200.981C945.321 220.038 939.137 239.089 932.625 258.023C926.586 275.581 921.793 293.444 920.183 311.942C918.858 327.119 919.04 342.319 920.999 357.555C923.542 377.347 930.338 395.684 937.979 413.876C943.908 427.998 949.757 442.222 951.294 457.676C953.021 475.052 938.358 492.916 919.062 489.99C909.782 488.577 902.257 484.698 896.022 478.139C890.901 472.752 890.661 465.946 892.059 459.088C893.407 452.486 895.41 446 896.481 439.361C897.085 435.612 896.706 431.601 896.109 427.816C895.876 426.316 893.786 423.958 892.678 424.031C891.141 424.132 889 425.872 888.395 427.408C884.36 437.607 881.162 448.162 876.682 458.142C874.067 463.958 870.141 469.44 865.8 474.157C857.299 483.402 845.076 484.435 832.759 478.772C818.693 472.308 809.828 461.025 802.369 448.162C791.734 429.818 789.09 409.472 787.48 388.878C787.32 386.84 787.662 384.765 787.779 382.712L787.757 382.698ZM896.364 257.222C894.849 258.103 893.407 258.721 892.219 259.668C879.581 269.757 869.034 281.848 859.368 294.704C844.428 314.577 833.8 336.182 833.793 361.777C833.793 376.539 838.797 388.849 851.909 396.696C860.227 401.675 870.338 401.77 876.529 391.848C882.852 381.708 885.27 370.25 886.545 358.85C890.275 325.372 893.094 291.792 896.364 257.222Z" fill="#462C24"/>
<path d="M945.073 502.518C944.716 497.772 946.88 489.284 951.891 481.961C957.07 474.398 964.493 469.659 973.977 469.025C977.976 468.756 979.127 469.688 979.083 473.713C979.025 479.748 978.267 485.783 978.377 491.81C978.814 516.247 984.401 538.515 1006.69 552.681C1016.26 558.766 1035.43 559.72 1043.34 547.884C1046.22 543.582 1047.78 539.083 1047.65 533.958C1047.16 514.493 1041 496.891 1030.84 480.374C1019.89 462.561 1005.34 447.922 990.454 433.596C976.388 420.064 962.905 406.138 952.78 389.272C943.26 373.424 938.139 356.259 936.696 337.922C935.524 323.029 935.582 308.113 939.574 293.649C945.095 273.667 956.961 258.649 977.029 251.777C985.297 248.946 994.125 248.232 1003.16 248.662C1012.4 249.098 1020.75 251.479 1028.7 255.708C1042.16 262.886 1050.87 274.132 1056.12 288.327C1059.44 297.296 1061.52 306.57 1060.83 316.011C1060.27 323.749 1058.5 331.495 1056.43 339.007C1054.17 347.233 1049.37 354.301 1044.13 361.005C1043.39 361.959 1042.69 363.051 1041.71 363.684C1040.5 364.47 1039.01 364.842 1037.63 365.395C1037.19 363.997 1036.32 362.585 1036.37 361.202C1036.71 350.705 1037.93 340.215 1035.42 329.777C1032.4 317.263 1026.87 306.766 1014.25 301.387C1003.49 296.801 985.777 301.816 982.769 316.222C980.518 327.032 981.669 337.1 985.428 347.116C993.018 367.353 1006.75 383.317 1021.72 398.335C1033.48 410.127 1045.92 421.279 1057.16 433.538C1071.53 449.218 1083.52 466.63 1092.05 486.35C1099.77 504.163 1103.99 522.66 1104 541.973C1104.01 567.888 1095.07 590.148 1075.17 607.4C1067.44 614.105 1058.34 617.847 1048.38 620.205C1035.93 623.161 1023.75 622.425 1011.94 618.305C995.531 612.576 982.784 601.904 972.6 587.753C963.123 574.585 957.944 559.611 952.642 544.608C948.315 532.364 945.27 519.85 945.073 502.511V502.518Z" fill="#462C24"/>
<path d="M723.444 352.001C723.029 335.753 724.333 319.629 727.065 303.614C729.971 286.58 732.979 269.561 735.624 252.483C738.158 236.126 740.737 219.755 742.478 203.303C744.547 183.751 745.457 164.045 742.026 144.573C739.746 131.63 736.592 118.782 732.899 106.159C729.927 96.0041 725.127 86.3952 721.944 76.2914C718.564 65.5833 720.145 55.1227 725.105 44.946C729.665 35.6065 735.791 28.1014 746.178 25.59C762.247 21.6954 777.413 23.1513 789.279 36.1597C797.328 44.9824 800.861 56.1855 801.24 67.7307C801.713 81.9693 800.999 96.3026 799.863 110.519C799.003 121.322 797.029 132.074 794.917 142.724C791.872 158.091 788.194 173.326 784.901 188.642C782.359 200.464 779.882 212.301 777.595 224.173C774.703 239.227 771.731 254.274 769.386 269.423C767.805 279.672 766.909 290.067 766.334 300.433C765.649 312.757 765.132 325.14 765.46 337.471C766.028 359.055 768.417 380.485 773.742 401.465C777.034 414.429 780.341 427.438 784.668 440.075C788.674 451.78 793.977 463.049 798.829 474.456C801.691 481.182 805.217 487.493 806.433 494.998C808.028 504.826 798.399 517.142 790.284 519.435C772.62 524.415 758.554 518.271 746.652 505.393C740.839 499.104 736.345 491.999 734.072 483.701C733.06 479.995 732.419 476.13 732.076 472.294C730.146 450.703 728.368 429.09 726.511 407.492C725.506 395.779 724.246 384.089 723.495 372.361C723.066 365.599 723.415 358.785 723.415 352.001H723.444Z" fill="#462C24"/>
<path d="M391.773 338.767C392.472 318.049 392.64 298.38 393.951 278.799C394.942 263.963 397.382 249.229 399.196 234.452C400.594 223.045 402.277 211.675 403.362 200.239C404.797 185.199 405.977 170.131 406.851 155.048C407.274 147.797 407.165 140.46 406.538 133.231C404.95 114.836 400.296 97.511 389.187 82.1514C379.885 69.2886 375.544 54.6205 377.875 38.6493C379.113 30.1542 383.826 23.0713 389.908 17.1677C398.249 9.06562 407.864 3.06007 419.511 0.657853C432.608 -2.04283 442.406 3.72978 448.094 15.0712C452.582 24.0031 454.694 33.6047 456.144 43.5047C458.729 61.1647 457.914 78.8538 456.624 96.4409C455.408 113.074 452.48 129.592 450.17 146.138C448.969 154.749 447.628 163.346 446.091 171.907C443.447 186.641 440.512 201.316 437.875 216.05C436.811 221.997 435.879 228.01 435.449 234.03C433.956 254.805 431.967 275.581 431.61 296.386C431.319 313.179 432.28 330.097 434.189 346.796C436.68 368.562 442.231 389.81 450.418 410.164C455.94 423.907 462.736 437.134 468.898 450.623C472.009 457.436 475.257 464.243 475.323 471.966C475.432 485.062 465.715 500.8 449.041 499.796C434.225 498.907 422.126 491.599 414.165 478.707C408.403 469.375 405.722 458.834 402.918 448.301C398.176 430.466 395.313 412.398 394.374 394.003C393.412 375.244 392.603 356.485 391.773 338.767Z" fill="#462C24"/>
</svg>
