<svg width="32" height="32" viewBox="0 0 32 32" fill="none" xmlns="http://www.w3.org/2000/svg">
<rect width="32" height="32" rx="5" fill="#1D1D1D"/>
<path d="M15.6829 18.7734C15.6829 18.5575 15.6737 18.35 15.685 18.1439C15.7068 17.7402 15.7382 17.3368 15.7685 16.9335C15.8004 16.5092 15.8982 16.0976 16.019 15.6918C16.1936 15.105 16.4506 14.5563 16.7951 14.0521C17.0144 13.7313 17.2819 13.4564 17.5967 13.23C17.9993 12.9407 18.61 12.9608 19.0207 13.2388C19.2934 13.4235 19.4685 13.6796 19.5999 13.9783C19.7043 14.2153 19.7606 14.4661 19.771 14.7177C19.782 14.9855 19.7613 15.2602 19.7109 15.5233C19.6455 15.865 19.5254 16.1963 19.3337 16.4886C19.1936 16.7019 19.0298 16.8996 18.8679 17.0971C18.5928 17.4331 18.2285 17.6565 17.8773 17.8982C17.5025 18.1561 17.2575 18.5186 17.1749 18.9693C17.1079 19.3356 17.1801 19.6936 17.3479 20.028C17.4955 20.3224 17.7028 20.5621 17.9832 20.7321C18.1661 20.8429 18.3628 20.9117 18.5797 20.8763C18.8277 20.8358 19.0081 20.6883 19.1434 20.4817C19.3351 20.189 19.4164 19.8572 19.4401 19.5134C19.4641 19.1648 19.4401 18.8174 19.3599 18.4748C19.347 18.4193 19.3518 18.3229 19.3848 18.3006C19.4523 18.2549 19.4894 18.3439 19.5223 18.3879C19.7183 18.6504 19.8552 18.944 19.9505 19.2582C20.0992 19.7488 20.1848 20.2507 20.1997 20.7635C20.2132 21.2245 20.1294 21.6648 19.9149 22.0773C19.7756 22.3451 19.6027 22.5797 19.3547 22.7538C19.0181 22.9903 18.6516 23.0714 18.247 22.9971C17.68 22.8928 17.2355 22.5889 16.8657 22.1541C16.5463 21.7784 16.3157 21.3509 16.1389 20.8914C16.1158 20.8315 16.0868 20.8087 16.0162 20.8173C15.5812 20.8703 15.2329 20.7062 14.9569 20.3682C14.6552 19.9988 14.486 19.5644 14.3687 19.1084C14.2859 18.7869 14.2194 18.4607 14.1594 18.134C14.1252 17.9478 14.1078 17.7566 14.1021 17.5671C14.0879 17.0844 14.0729 16.6011 14.0807 16.1184C14.086 15.7793 14.1137 15.4388 14.1575 15.1027C14.2113 14.69 14.2835 14.279 14.3642 13.8706C14.4455 13.4594 14.5549 13.054 14.6371 12.6432C14.7317 12.1709 14.8418 11.7002 14.8328 11.2124C14.8256 10.8193 14.745 10.4508 14.5375 10.1112C14.3426 9.79227 14.2534 9.44529 14.3286 9.06723C14.3973 8.7225 14.6103 8.4815 14.8817 8.28732C15.0733 8.15044 15.2828 8.05176 15.523 8.0336C15.8259 8.01057 16.0476 8.13509 16.2071 8.39406C16.339 8.60809 16.3831 8.84402 16.389 9.08857C16.3996 9.52412 16.3371 9.95237 16.2459 10.3767C16.1827 10.6712 16.1276 10.9684 16.0454 11.2575C15.9152 11.7159 15.7642 12.1683 15.6242 12.6239C15.5377 12.9055 15.4505 13.187 15.3724 13.471C15.1875 14.1432 15.0947 14.8305 15.0857 15.5272C15.0807 15.9133 15.0816 16.3024 15.1217 16.6856C15.1601 17.0518 15.2346 17.4172 15.3273 17.7739C15.4105 18.0937 15.5398 18.4012 15.6495 18.7137C15.6563 18.733 15.6695 18.7498 15.6826 18.7729L15.6829 18.7734ZM16.7805 17.3657C16.7901 17.3668 16.7995 17.3681 16.8091 17.3692C16.8091 17.4129 16.8077 17.4565 16.8095 17.4999C16.8115 17.5466 16.8145 17.5934 16.8213 17.6392C16.8287 17.6881 16.8372 17.7377 16.8527 17.7845C16.8821 17.8731 16.9915 17.8948 17.0733 17.8175C17.2344 17.6653 17.4003 17.5153 17.5405 17.3445C17.7807 17.0518 18.0224 16.7569 18.2276 16.4391C18.533 15.9665 18.7238 15.4555 18.5842 14.8711C18.4929 14.4893 18.1958 14.3651 17.9041 14.5531C17.6632 14.7084 17.5093 14.9383 17.3665 15.1746C17.1435 15.5433 17.0129 15.9525 16.9294 16.3736C16.8644 16.7013 16.8291 17.0346 16.7805 17.3657Z" fill="#E6DBB7"/>
<path d="M4.78501 16.144C4.9256 16.006 5.06822 15.8701 5.20622 15.7296C5.46579 15.4658 5.76323 15.2651 6.12606 15.1866C6.38415 15.1308 6.6293 15.1851 6.86596 15.3061C7.18815 15.4708 7.31673 15.7637 7.40615 16.0901C7.48929 16.394 7.46841 16.7026 7.44957 17.0102C7.41003 17.6585 7.24228 18.2828 7.08821 18.909C6.96 19.4295 6.83529 19.9512 6.6923 20.4677C6.5386 21.0223 6.37657 21.5754 6.13401 22.0992C5.84303 22.7274 5.40963 23.2298 4.82971 23.6013C4.34679 23.9107 3.82674 23.9663 3.28821 23.8071C2.67265 23.6251 2.27231 23.2032 2.07943 22.5888C1.98632 22.2922 1.99482 21.9793 2.00812 21.67C2.02641 21.2442 2.11879 20.8313 2.2191 20.4197C2.27748 20.1806 2.32755 19.9392 2.39239 19.702C2.58933 18.9803 2.84095 18.28 3.17219 17.6081C3.4567 17.0312 3.69945 16.4344 3.8672 15.8111C4.01185 15.274 4.05712 14.7291 3.96419 14.173C3.89159 13.7378 3.99948 13.3313 4.22782 12.9583C4.35788 12.746 4.50143 12.5435 4.70926 12.3995C4.97418 12.2162 5.26035 12.0838 5.58144 12.043C5.7091 12.0267 5.81015 12.1554 5.77339 12.2823C5.66753 12.6471 5.55465 13.0098 5.45452 13.3761C5.26811 14.0582 5.08706 14.7419 4.90731 15.4259C4.85355 15.6308 4.81143 15.8386 4.76468 16.0453C4.75877 16.0712 4.75674 16.098 4.75305 16.1244C4.76358 16.1309 4.77429 16.1375 4.78501 16.144ZM5.97882 17.9948C5.97882 17.8671 5.98325 17.7392 5.9779 17.6117C5.96681 17.3537 5.92728 17.1009 5.7732 16.8855C5.66956 16.7408 5.53119 16.6747 5.347 16.7176C5.16355 16.7603 5.01427 16.861 4.87165 16.9756C4.41035 17.3464 4.12492 17.8437 3.93703 18.3938C3.8079 18.7723 3.72292 19.1674 3.63719 19.5593C3.53226 20.0385 3.4942 20.5257 3.53208 21.0165C3.55166 21.2715 3.5766 21.5268 3.70924 21.7546C3.80827 21.9247 3.92299 22.0797 4.12658 22.1241C4.40037 22.1838 4.62132 22.0698 4.81032 21.8833C5.19052 21.5084 5.42274 21.0421 5.57017 20.5354C5.81126 19.707 5.95296 18.8605 5.97882 17.9948Z" fill="#E6DBB7"/>
<path d="M10.1719 20.2909C10.1363 20.3653 10.0999 20.4392 10.0651 20.5139C9.94487 20.772 9.80059 21.0158 9.6031 21.2199C9.3064 21.5262 8.95354 21.6951 8.52124 21.6007C7.94539 21.4751 7.57055 21.1229 7.39633 20.5491C7.3132 20.2754 7.30193 19.9947 7.32151 19.7161C7.34276 19.4153 7.37786 19.1122 7.44418 18.8187C7.58496 18.1973 7.82845 17.6173 8.20071 17.0975C8.45233 16.7461 8.75679 16.4481 9.09727 16.188C9.37457 15.9761 9.65298 15.7643 9.94155 15.569C10.3129 15.3175 10.5159 14.9829 10.5154 14.5243C10.515 14.2528 10.5252 13.9818 10.4293 13.7212C10.3284 13.4469 10.1073 13.3227 9.84585 13.304C9.63986 13.2892 9.49909 13.4422 9.39988 13.6191C9.2737 13.8446 9.27536 14.0826 9.33356 14.3269C9.36145 14.4442 9.40099 14.5631 9.40154 14.6814C9.40284 14.9203 9.12147 15.2389 8.88796 15.2638C8.69194 15.2847 8.53085 15.1911 8.39857 15.0486C8.16413 14.796 8.13346 14.4844 8.14806 14.1586C8.17484 13.5609 8.3812 13.0269 8.7191 12.5449C8.94227 12.2265 9.24193 11.9938 9.61455 11.8872C9.95818 11.7891 10.3064 11.817 10.6528 11.911C11.2833 12.0822 11.6135 12.5192 11.7476 13.1413C11.82 13.4766 11.7755 13.8113 11.7502 14.1464C11.7164 14.5932 11.6079 15.0258 11.5041 15.4587C11.3162 16.2433 11.1064 17.023 11.0814 17.8375C11.0709 18.1806 11.0515 18.5266 11.1415 18.8592C11.2109 19.1161 11.3177 19.3638 11.4225 19.6093C11.5662 19.9462 11.7594 20.2623 11.8463 20.6227C11.9063 20.8721 11.9222 21.121 11.7796 21.3551C11.5946 21.6582 11.3155 21.7311 10.9909 21.6908C10.5669 21.6382 10.3408 21.3772 10.3238 20.9379C10.3177 20.7795 10.3005 20.621 10.2787 20.4639C10.2704 20.4036 10.2351 20.3473 10.2122 20.289C10.1989 20.2898 10.1854 20.2905 10.1721 20.2913L10.1719 20.2909ZM10.4078 16.4725C10.3896 16.4405 10.3689 16.3755 10.3249 16.3397C10.3029 16.3217 10.2286 16.3433 10.1954 16.3695C9.70933 16.7541 9.27795 17.1887 8.98753 17.7499C8.77693 18.157 8.63929 18.5798 8.69508 19.0491C8.72778 19.3239 8.82293 19.5582 9.0618 19.7177C9.24433 19.8396 9.48338 19.8741 9.62139 19.752C9.73648 19.6501 9.83976 19.5222 9.91217 19.3861C10.0927 19.047 10.1052 18.6637 10.154 18.2913C10.2054 17.8993 10.2558 17.5072 10.3094 17.1155C10.3373 16.912 10.3714 16.7092 10.4078 16.4725Z" fill="#E6DBB7"/>
<path d="M21.9793 17.8444C21.9978 17.4332 22.0281 17.0222 22.1537 16.628C22.3291 16.0781 22.6128 15.588 22.9808 15.1469C23.2629 14.8087 23.596 14.5256 23.93 14.2441C24.2936 13.9376 24.6099 13.5938 24.802 13.1491C24.8898 12.9459 24.9238 12.7296 24.8994 12.5096C24.8713 12.2576 24.6446 12.1241 24.3756 12.1845C24.0673 12.2538 23.8763 12.468 23.744 12.7343C23.6629 12.898 23.6274 13.0847 23.5681 13.2597C23.5493 13.3154 23.5192 13.3672 23.4942 13.4208C23.4388 13.3878 23.3621 13.3684 23.3322 13.3193C23.2701 13.2182 23.2092 13.1056 23.189 12.9905C23.0821 12.3784 23.2404 11.8359 23.6332 11.3605C23.8046 11.153 24.0015 10.9781 24.2458 10.8659C24.582 10.7113 24.9286 10.6817 25.2874 10.7848C25.5429 10.8582 25.7705 10.9715 25.9598 11.1657C26.1067 11.3163 26.1684 11.5058 26.2303 11.6971C26.3325 12.0136 26.3278 12.3368 26.2678 12.6585C26.2355 12.8315 26.1848 13.0021 26.1315 13.1701C25.9755 13.6603 25.8187 14.1503 25.6535 14.6374C25.5004 15.089 25.3788 15.5485 25.338 16.0243C25.3044 16.4148 25.309 16.8057 25.3587 17.1977C25.4231 17.7068 25.5955 18.1785 25.7893 18.6464C25.9397 19.0097 26.088 19.3756 26.127 19.7731C26.1708 20.2201 25.7989 20.6796 25.3095 20.6043C25.0742 20.568 24.8833 20.4682 24.7252 20.2995C24.5953 20.1609 24.5892 19.9858 24.6247 19.8094C24.6589 19.6396 24.7097 19.4728 24.7368 19.302C24.7522 19.2056 24.7425 19.1024 24.7274 19.005C24.7215 18.9664 24.6685 18.9058 24.6404 18.9076C24.6014 18.9103 24.5471 18.955 24.5318 18.9945C24.4294 19.2569 24.3483 19.5284 24.2347 19.7851C24.1684 19.9347 24.0688 20.0757 23.9587 20.1971C23.7431 20.4349 23.4331 20.4615 23.1207 20.3158C22.7639 20.1495 22.5391 19.8592 22.3499 19.5284C22.0802 19.0565 22.0131 18.5331 21.9723 18.0034C21.9683 17.951 21.9769 17.8976 21.9799 17.8448L21.9793 17.8444ZM24.7339 14.6168C24.6954 14.6394 24.6589 14.6553 24.6287 14.6797C24.3082 14.9392 24.0407 15.2502 23.7956 15.5809C23.4166 16.0921 23.1471 16.6479 23.1469 17.3063C23.1469 17.686 23.2738 18.0026 23.6064 18.2045C23.8174 18.3326 24.0738 18.335 24.2308 18.0798C24.3912 17.819 24.4525 17.5242 24.4848 17.231C24.5794 16.3698 24.6509 15.506 24.7339 14.6168Z" fill="#E6DBB7"/>
<path d="M25.9693 20.9265C25.9602 20.8044 26.0151 20.5861 26.1422 20.3977C26.2735 20.2032 26.4618 20.0813 26.7023 20.065C26.8037 20.058 26.8329 20.082 26.8318 20.1856C26.8304 20.3408 26.8111 20.496 26.8139 20.6511C26.825 21.2797 26.9667 21.8525 27.532 22.2169C27.7748 22.3734 28.2608 22.3979 28.4616 22.0935C28.5346 21.9828 28.5741 21.8671 28.5708 21.7353C28.5584 21.2346 28.4022 20.7818 28.1446 20.3569C27.8668 19.8987 27.4978 19.5221 27.1202 19.1536C26.7635 18.8055 26.4215 18.4473 26.1647 18.0134C25.9233 17.6058 25.7934 17.1643 25.7568 16.6926C25.7271 16.3095 25.7285 15.9258 25.8298 15.5537C25.9698 15.0397 26.2708 14.6534 26.7797 14.4766C26.9894 14.4038 27.2133 14.3854 27.4424 14.3965C27.6768 14.4077 27.8886 14.469 28.0901 14.5778C28.4317 14.7624 28.6525 15.0517 28.7857 15.4168C28.8699 15.6475 28.9226 15.8861 28.9052 16.1289C28.891 16.328 28.8461 16.5272 28.7936 16.7205C28.7362 16.9321 28.6144 17.1139 28.4816 17.2863C28.4627 17.3109 28.445 17.339 28.4203 17.3553C28.3894 17.3755 28.3517 17.385 28.3168 17.3993C28.3055 17.3633 28.2835 17.327 28.2847 17.2914C28.2933 17.0214 28.3244 16.7516 28.2606 16.483C28.1842 16.1612 28.0437 15.8911 27.7238 15.7528C27.4509 15.6348 27.0016 15.7638 26.9253 16.1344C26.8682 16.4124 26.8974 16.6714 26.9927 16.9291C27.1852 17.4496 27.5335 17.8603 27.9133 18.2466C28.2115 18.5499 28.527 18.8368 28.8119 19.1521C29.1764 19.5555 29.4805 20.0034 29.697 20.5106C29.8927 20.9688 29.9996 21.4446 30 21.9414C30.0004 22.608 29.7735 23.1807 29.2688 23.6244C29.0728 23.7969 28.842 23.8932 28.5893 23.9538C28.2736 24.0298 27.9647 24.0109 27.6652 23.9049C27.249 23.7576 26.9257 23.4831 26.6674 23.1191C26.4271 22.7803 26.2957 22.3951 26.1612 22.0092C26.0515 21.6943 25.9743 21.3726 25.9693 20.9265Z" fill="#E6DBB7"/>
<path d="M20.3481 17.0546C20.3376 16.6367 20.3706 16.2219 20.4399 15.8099C20.5136 15.3718 20.5899 14.934 20.657 14.4947C20.7213 14.0739 20.7867 13.6528 20.8308 13.2296C20.8833 12.7267 20.9064 12.2198 20.8194 11.7189C20.7616 11.3859 20.6816 11.0554 20.5879 10.7307C20.5125 10.4695 20.3908 10.2224 20.31 9.96245C20.2243 9.687 20.2644 9.41792 20.3902 9.15614C20.5059 8.9159 20.6612 8.72284 20.9247 8.65824C21.3322 8.55806 21.7169 8.59551 22.0178 8.93013C22.222 9.15708 22.3116 9.44526 22.3212 9.74224C22.3332 10.1085 22.3151 10.4772 22.2862 10.8429C22.2644 11.1208 22.2144 11.3974 22.1608 11.6713C22.0836 12.0666 21.9903 12.4585 21.9068 12.8525C21.8423 13.1566 21.7795 13.4611 21.7215 13.7665C21.6481 14.1537 21.5728 14.5408 21.5133 14.9304C21.4732 15.1941 21.4505 15.4615 21.4359 15.7281C21.4185 16.0451 21.4054 16.3636 21.4137 16.6809C21.4281 17.2361 21.4887 17.7873 21.6238 18.327C21.7073 18.6605 21.7911 18.9951 21.9009 19.3202C22.0025 19.6213 22.137 19.9111 22.26 20.2046C22.3326 20.3776 22.422 20.5399 22.4529 20.733C22.4933 20.9858 22.2491 21.3026 22.0433 21.3616C21.5953 21.4897 21.2386 21.3316 20.9367 21.0004C20.7893 20.8386 20.6753 20.6558 20.6176 20.4424C20.592 20.3471 20.5757 20.2476 20.567 20.1489C20.5181 19.5936 20.473 19.0376 20.4259 18.482C20.4004 18.1807 20.3684 17.88 20.3494 17.5784C20.3385 17.4044 20.3474 17.2291 20.3474 17.0546H20.3481Z" fill="#E6DBB7"/>
<path d="M11.9363 16.7142C11.954 16.1813 11.9583 15.6753 11.9915 15.1716C12.0167 14.79 12.0785 14.411 12.1245 14.0309C12.16 13.7375 12.2027 13.445 12.2302 13.1508C12.2666 12.7639 12.2965 12.3763 12.3187 11.9883C12.3294 11.8018 12.3267 11.6131 12.3108 11.4272C12.2705 10.954 12.1524 10.5083 11.8707 10.1132C11.6348 9.78233 11.5247 9.40502 11.5838 8.99419C11.6152 8.77567 11.7347 8.59347 11.889 8.44161C12.1005 8.2332 12.3444 8.07872 12.6398 8.01692C12.972 7.94745 13.2204 8.09594 13.3647 8.38768C13.4785 8.61744 13.5321 8.86442 13.5689 9.11909C13.6345 9.57336 13.6138 10.0284 13.5811 10.4808C13.5502 10.9087 13.4759 11.3335 13.4174 11.7591C13.3869 11.9807 13.3529 12.2018 13.3139 12.422C13.2469 12.801 13.1724 13.1785 13.1055 13.5575C13.0786 13.7105 13.0549 13.8652 13.044 14.02C13.0061 14.5544 12.9557 15.0889 12.9467 15.624C12.9393 16.056 12.9637 16.4912 13.0121 16.9207C13.0752 17.4806 13.216 18.0272 13.4237 18.5508C13.5637 18.9043 13.7361 19.2445 13.8924 19.5915C13.9712 19.7668 14.0536 19.9419 14.0553 20.1405C14.0581 20.4774 13.8116 20.8822 13.3888 20.8564C13.013 20.8336 12.7061 20.6456 12.5042 20.3139C12.3581 20.0739 12.2901 19.8027 12.219 19.5318C12.0987 19.073 12.0261 18.6083 12.0022 18.1351C11.9779 17.6525 11.9574 17.17 11.9363 16.7142Z" fill="#E6DBB7"/>
</svg>
