<svg width="1027" height="579" viewBox="0 0 1027 579" fill="none" xmlns="http://www.w3.org/2000/svg">
<path d="M501.578 389.636C501.578 381.827 501.239 374.324 501.652 366.868C502.452 352.267 503.603 337.679 504.714 323.092C505.885 307.746 509.468 292.861 513.897 278.185C520.296 256.961 529.717 237.118 542.347 218.881C550.385 207.28 560.192 197.338 571.732 189.151C586.488 178.688 608.877 179.412 623.932 189.469C633.928 196.146 640.348 205.411 645.163 216.212C648.989 224.786 651.055 233.854 651.434 242.956C651.84 252.64 651.082 262.575 649.233 272.09C646.836 284.449 642.434 296.43 635.404 307.001C630.271 314.715 624.264 321.866 618.331 329.011C608.247 341.16 594.893 349.239 582.019 357.982C568.278 367.308 559.298 380.419 556.271 396.72C553.812 409.966 556.46 422.914 562.609 435.01C568.02 445.656 575.619 454.324 585.899 460.473C592.604 464.482 599.816 466.968 607.767 465.688C616.855 464.225 623.471 458.889 628.429 451.419C635.458 440.834 638.438 428.833 639.305 416.4C640.185 403.79 639.305 391.227 636.366 378.834C635.892 376.829 636.068 373.342 637.28 372.536C639.752 370.883 641.113 374.1 642.319 375.692C649.504 385.186 654.522 395.805 658.017 407.169C663.468 424.912 666.604 443.062 667.152 461.611C667.647 478.284 664.572 494.206 656.71 509.125C651.603 518.809 645.264 527.295 636.176 533.593C623.837 542.146 610.401 545.079 595.57 542.39C574.786 538.618 558.492 527.627 544.934 511.902C533.225 498.317 524.773 482.856 518.292 466.236C517.445 464.069 516.382 463.243 513.795 463.555C497.846 465.471 485.081 459.539 474.963 447.315C463.904 433.953 457.701 418.242 453.4 401.751C450.366 390.123 447.928 378.326 445.727 366.509C444.475 359.777 443.838 352.863 443.628 346.009C443.107 328.55 442.558 311.071 442.842 293.612C443.039 281.348 444.055 269.036 445.66 256.88C447.63 241.954 450.278 227.089 453.238 212.318C456.218 197.447 460.227 182.785 463.24 167.926C466.708 150.847 470.744 133.822 470.412 116.18C470.148 101.965 467.195 88.6372 459.59 76.3524C452.445 64.8192 449.174 52.2703 451.931 38.5972C454.45 26.1295 462.258 17.4136 472.207 10.3908C479.23 5.44031 486.909 1.87135 495.713 1.21444C506.82 0.381458 514.946 4.88499 520.791 14.251C525.626 21.9916 527.245 30.5247 527.461 39.3692C527.847 55.1214 525.558 70.6095 522.213 85.9554C519.897 96.6081 517.879 107.356 514.865 117.812C510.091 134.39 504.558 150.752 499.424 167.229C496.255 177.414 493.059 187.593 490.194 197.866C483.415 222.179 480.015 247.033 479.683 272.232C479.501 286.197 479.534 300.269 481.004 314.125C482.413 327.372 485.142 340.584 488.541 353.486C491.589 365.053 496.33 376.173 500.352 387.475C500.603 388.173 501.084 388.782 501.564 389.615L501.578 389.636ZM541.812 338.722C542.164 338.763 542.509 338.81 542.862 338.851C542.862 340.429 542.807 342.007 542.875 343.578C542.95 345.264 543.058 346.957 543.308 348.616C543.579 350.384 543.891 352.179 544.46 353.872C545.537 357.075 549.546 357.86 552.546 355.064C558.451 349.558 564.533 344.133 569.673 337.957C578.477 327.372 587.335 316.706 594.859 305.213C606.053 288.12 613.049 269.639 607.929 248.502C604.584 234.694 593.694 230.204 583.001 237.003C574.17 242.617 568.528 250.934 563.293 259.48C555.119 272.815 550.331 287.612 547.27 302.843C544.886 314.694 543.593 326.756 541.812 338.729V338.722Z" fill="#E6DBB7"/>
<path d="M102.091 294.54C107.245 289.549 112.473 284.632 117.532 279.553C127.047 270.011 137.95 262.751 151.251 259.914C160.712 257.896 169.698 259.86 178.374 264.234C190.184 270.194 194.898 280.786 198.176 292.59C201.223 303.581 200.458 314.742 199.767 325.868C198.318 349.314 192.169 371.893 186.521 394.539C181.821 413.366 177.249 432.233 172.008 450.911C166.373 470.97 160.434 490.975 151.542 509.917C140.876 532.638 124.988 550.808 103.73 564.244C86.0275 575.432 66.9636 577.443 47.2226 571.687C24.6575 565.104 9.98209 549.846 2.91188 527.627C-0.501324 516.9 -0.189802 505.583 0.297799 494.395C0.96825 478.995 4.35437 464.063 8.03169 449.177C10.1717 440.529 12.007 431.8 14.384 423.219C21.6032 397.119 30.827 371.791 42.9696 347.492C53.3989 326.627 62.2976 305.044 68.4468 282.499C73.7494 263.076 75.4086 243.369 72.0022 223.256C69.3407 207.517 73.2957 192.814 81.6662 179.324C86.4338 171.644 91.6958 164.324 99.3146 159.116C109.026 152.486 119.516 147.698 131.286 146.222C135.966 145.632 139.67 150.285 138.323 154.876C134.442 168.069 130.304 181.187 126.634 194.433C119.801 219.104 113.164 243.83 106.574 268.569C104.604 275.977 103.06 283.495 101.346 290.971C101.13 291.906 101.055 292.874 100.92 293.829C101.306 294.066 101.692 294.303 102.084 294.54H102.091ZM145.853 361.477C145.853 356.858 146.016 352.233 145.819 347.621C145.413 338.289 143.964 329.146 138.316 321.358C134.517 316.123 129.444 313.733 122.692 315.284C115.968 316.828 110.496 320.471 105.267 324.616C88.3571 338.025 77.894 356.012 71.0067 375.909C66.2729 389.595 63.1576 403.885 60.0153 418.059C56.1687 435.389 54.7736 453.01 56.1619 470.76C56.8798 479.984 57.794 489.215 62.6565 497.456C66.2864 503.606 70.492 509.213 77.955 510.818C87.9914 512.978 96.091 508.854 103.019 502.109C116.956 488.551 125.469 471.688 130.873 453.363C139.711 423.402 144.905 392.778 145.853 361.47V361.477Z" fill="#E6DBB7"/>
<path d="M299.563 444.511C298.256 447.2 296.922 449.875 295.648 452.577C291.24 461.909 285.951 470.727 278.711 478.108C267.835 489.188 254.9 495.296 239.053 491.883C217.944 487.339 204.203 474.6 197.817 453.85C194.769 443.949 194.356 433.798 195.074 423.721C195.853 412.844 197.14 401.88 199.571 391.268C204.731 368.791 213.657 347.817 227.303 329.018C236.527 316.306 247.688 305.532 260.169 296.125C270.334 288.459 280.54 280.799 291.118 273.736C304.73 264.641 312.173 252.539 312.152 235.954C312.139 226.134 312.511 216.335 308.997 206.908C305.299 196.986 297.193 192.496 287.61 191.819C280.059 191.284 274.898 196.817 271.262 203.217C266.636 211.371 266.697 219.978 268.83 228.816C269.853 233.055 271.302 237.356 271.323 241.636C271.37 250.277 261.056 261.797 252.496 262.697C245.31 263.456 239.405 260.07 234.556 254.916C225.962 245.78 224.838 234.511 225.373 222.728C226.355 201.111 233.92 181.796 246.306 164.365C254.487 152.852 265.471 144.434 279.131 140.58C291.727 137.032 304.493 138.041 317.191 141.441C340.305 147.63 352.407 163.437 357.323 185.934C359.978 198.063 358.346 210.165 357.418 222.287C356.179 238.446 352.203 254.09 348.397 269.747C341.51 298.123 333.817 326.322 332.903 355.782C332.516 368.188 331.805 380.703 335.103 392.731C337.65 402.022 341.564 410.982 345.404 419.86C350.673 432.044 357.757 443.475 360.94 456.512C363.141 465.532 363.723 474.533 358.495 482.998C351.716 493.962 341.483 496.597 329.584 495.141C314.042 493.238 305.753 483.797 305.13 467.909C304.906 462.18 304.276 456.451 303.477 450.769C303.172 448.588 301.879 446.55 301.039 444.444C300.552 444.471 300.057 444.498 299.57 444.525L299.563 444.511ZM308.211 306.412C307.541 305.254 306.782 302.904 305.17 301.611C304.364 300.96 301.642 301.739 300.423 302.687C282.605 316.598 266.792 332.316 256.146 352.612C248.426 367.335 243.38 382.627 245.426 399.598C246.624 409.54 250.112 418.012 258.868 423.782C265.559 428.19 274.323 429.436 279.382 425.021C283.601 421.337 287.386 416.711 290.041 411.788C296.658 399.523 297.118 385.661 298.906 372.191C300.789 358.016 302.637 343.835 304.601 329.668C305.624 322.306 306.87 314.979 308.204 306.419L308.211 306.412Z" fill="#E6DBB7"/>
<path d="M732.39 356.032C733.067 341.16 734.178 326.295 738.783 312.039C745.209 292.149 755.612 274.427 769.102 258.471C779.443 246.241 791.653 236.001 803.898 225.822C817.225 214.736 828.819 202.302 835.863 186.218C839.079 178.87 840.325 171.048 839.432 163.091C838.402 153.976 830.093 149.147 820.232 151.334C808.929 153.84 801.927 161.588 797.078 171.218C794.105 177.137 792.805 183.889 790.631 190.221C789.94 192.232 788.836 194.108 787.922 196.045C785.89 194.853 783.08 194.149 781.983 192.374C779.707 188.717 777.472 184.647 776.734 180.482C772.813 158.344 778.617 138.725 793.015 121.53C799.299 114.026 806.518 107.701 815.471 103.644C827.797 98.0505 840.502 96.9805 853.653 100.712C863.019 103.367 871.363 107.464 878.304 114.487C883.688 119.932 885.95 126.785 888.219 133.706C891.964 145.151 891.794 156.84 889.593 168.475C888.408 174.733 886.553 180.902 884.595 186.977C878.88 204.706 873.13 222.429 867.076 240.044C861.462 256.379 857.005 272.998 855.509 290.206C854.276 304.326 854.446 318.466 856.267 332.641C858.631 351.054 864.949 368.114 872.053 385.037C877.566 398.176 883.004 411.408 884.433 425.786C886.038 441.951 872.405 458.57 854.466 455.848C845.838 454.534 838.842 450.924 833.045 444.823C828.284 439.811 828.061 433.479 829.361 427.1C830.614 420.957 832.476 414.923 833.472 408.747C834.034 405.259 833.682 401.528 833.127 398.006C832.91 396.611 830.966 394.417 829.937 394.485C828.508 394.579 826.517 396.198 825.955 397.627C822.203 407.115 819.23 416.935 815.065 426.219C812.634 431.63 808.984 436.73 804.947 441.118C797.044 449.719 785.68 450.681 774.228 445.412C761.151 439.398 752.91 428.901 745.975 416.935C736.087 399.869 733.629 380.94 732.132 361.782C731.983 359.885 732.302 357.955 732.41 356.045L732.39 356.032ZM833.364 239.299C831.955 240.118 830.614 240.694 829.51 241.574C817.76 250.961 807.954 262.209 798.967 274.169C785.078 292.657 775.197 312.757 775.19 336.569C775.19 350.303 779.843 361.754 792.033 369.055C799.767 373.687 809.166 373.775 814.923 364.545C820.801 355.111 823.049 344.451 824.235 333.846C827.702 302.701 830.323 271.46 833.364 239.299Z" fill="#E6DBB7"/>
<path d="M878.649 467.503C878.318 463.088 880.329 455.191 884.988 448.379C889.803 441.342 896.704 436.933 905.522 436.344C909.239 436.094 910.309 436.961 910.269 440.706C910.215 446.32 909.51 451.934 909.612 457.541C910.018 480.276 915.213 500.992 935.936 514.171C944.834 519.832 962.652 520.719 970.013 509.708C972.688 505.705 974.138 501.52 974.016 496.753C973.562 478.644 967.833 462.268 958.392 446.902C948.207 430.33 934.683 416.712 920.84 403.384C907.763 390.794 895.228 377.839 885.814 362.148C876.963 347.405 872.202 331.436 870.861 314.376C869.771 300.52 869.825 286.644 873.536 273.188C878.67 254.598 889.702 240.627 908.359 234.234C916.046 231.599 924.254 230.936 932.651 231.335C941.245 231.742 949.006 233.956 956.395 237.891C968.916 244.568 977.009 255.031 981.892 268.237C984.98 276.581 986.91 285.208 986.274 293.992C985.752 301.191 984.107 308.396 982.183 315.385C980.077 323.038 975.614 329.614 970.745 335.851C970.054 336.738 969.404 337.754 968.496 338.343C967.366 339.075 965.984 339.42 964.704 339.935C964.291 338.634 963.485 337.321 963.526 336.034C963.844 326.268 964.982 316.51 962.645 306.798C959.842 295.157 954.695 285.391 942.965 280.387C932.963 276.12 916.493 280.786 913.696 294.188C911.603 304.245 912.673 313.611 916.167 322.93C923.224 341.756 935.99 356.608 949.914 370.579C960.844 381.55 972.411 391.925 982.854 403.33C996.215 417.917 1007.36 434.116 1015.3 452.462C1022.47 469.034 1026.39 486.242 1026.41 504.209C1026.42 528.318 1018.1 549.027 999.601 565.078C992.416 571.315 983.957 574.796 974.693 576.99C963.119 579.739 951.796 579.055 940.818 575.222C925.561 569.893 913.709 559.965 904.242 546.799C895.431 534.548 890.616 520.618 885.686 506.66C881.663 495.269 878.832 483.628 878.649 467.497V467.503Z" fill="#E6DBB7"/>
<path d="M672.597 327.473C672.211 312.358 673.424 297.357 675.963 282.458C678.665 266.611 681.462 250.778 683.921 234.89C686.277 219.673 688.675 204.442 690.293 189.137C692.217 170.947 693.063 152.614 689.873 134.499C687.754 122.458 684.821 110.505 681.388 98.7616C678.625 89.3144 674.162 80.375 671.202 70.9752C668.06 61.0132 669.53 51.2815 674.142 41.8139C678.381 33.1252 684.076 26.143 693.734 23.8066C708.673 20.1834 722.773 21.5379 733.805 33.6399C741.288 41.8478 744.573 52.2703 744.925 63.011C745.365 76.2575 744.701 89.592 743.645 102.818C742.846 112.868 741.011 122.871 739.047 132.779C736.216 147.075 732.796 161.249 729.735 175.498C727.371 186.496 725.069 197.508 722.942 208.553C720.254 222.558 717.491 236.556 715.31 250.649C713.84 260.185 713.007 269.855 712.472 279.499C711.836 290.964 711.355 302.484 711.66 313.956C712.188 334.036 714.409 353.973 719.36 373.491C722.421 385.552 725.495 397.654 729.518 409.411C733.243 420.3 738.173 430.784 742.683 441.396C745.345 447.653 748.623 453.525 749.753 460.507C751.237 469.65 742.284 481.108 734.739 483.242C718.317 487.874 705.24 482.158 694.174 470.178C688.77 464.327 684.591 457.717 682.478 449.997C681.537 446.55 680.941 442.954 680.623 439.385C678.828 419.298 677.176 399.191 675.449 379.098C674.514 368.202 673.342 357.325 672.645 346.415C672.245 340.124 672.57 333.785 672.57 327.473H672.597Z" fill="#E6DBB7"/>
<path d="M364.237 315.162C364.887 295.888 365.043 277.59 366.262 259.372C367.183 245.57 369.452 231.863 371.138 218.116C372.438 207.504 374.003 196.925 375.012 186.286C376.346 172.295 377.443 158.276 378.256 144.244C378.649 137.499 378.547 130.673 377.965 123.948C376.488 106.834 372.161 90.7166 361.833 76.4271C353.185 64.4606 349.149 50.8146 351.316 35.9563C352.467 28.0531 356.849 21.4637 362.504 15.9714C370.258 8.43394 379.197 2.84685 390.026 0.612014C402.202 -1.90048 411.311 3.4699 416.6 14.021C420.772 22.3306 422.736 31.2631 424.083 40.4734C426.488 56.9028 425.729 73.3593 424.53 89.721C423.399 105.196 420.677 120.562 418.53 135.955C417.413 143.967 416.167 151.965 414.738 159.929C412.279 173.636 409.55 187.289 407.099 200.996C406.11 206.528 405.243 212.122 404.844 217.723C403.455 237.051 401.606 256.379 401.275 275.734C401.004 291.357 401.898 307.096 403.672 322.632C405.988 342.881 411.149 362.649 418.761 381.584C423.894 394.37 430.212 406.675 435.942 419.224C438.833 425.563 441.854 431.895 441.915 439.08C442.016 451.263 432.982 465.905 417.481 464.97C403.706 464.144 392.457 457.345 385.055 445.351C379.698 436.669 377.206 426.863 374.599 417.064C370.19 400.472 367.529 383.663 366.655 366.55C365.761 349.098 365.009 331.645 364.237 315.162Z" fill="#E6DBB7"/>
</svg>
