<svg width="4952" height="5624" viewBox="0 0 4952 5624" fill="none" xmlns="http://www.w3.org/2000/svg">
<path d="M2479.15 5623.07C2478.65 5609.64 2477.7 5596.2 2477.7 5582.74C2477.63 5388.09 2477.7 5193.45 2477.68 4998.79C2477.68 4982.09 2477.38 4965.38 2476.7 4948.71C2476.41 4941.34 2477.7 4935.41 2486.05 4934.83C2541.18 4931.01 2589.64 4905.95 2639.59 4886.13C2723.75 4852.77 2807.34 4817.99 2891.23 4783.93C2976.88 4749.15 3062.51 4714.28 3148.33 4679.93C3217.45 4652.27 3286.93 4625.43 3356.15 4598.02C3408.08 4577.45 3459.86 4556.5 3511.79 4535.87C3524.07 4531 3536.64 4526.79 3552.43 4521.07C3549.88 4536.45 3548.19 4548.29 3545.95 4560.03C3536.97 4607.29 3527.87 4654.52 3518.71 4701.77C3507.36 4760.35 3495.66 4818.88 3484.54 4877.52C3468.73 4960.72 3453.36 5043.99 3437.69 5127.21C3434.61 5143.58 3430.79 5159.81 3427.78 5176.19C3422.75 5203.62 3407.52 5222.82 3382.12 5233.99C3351.56 5247.42 3320.95 5260.7 3290.4 5274.1C3211.67 5308.63 3133.04 5343.38 3054.22 5377.71C2965.99 5416.13 2877.51 5453.94 2789.29 5492.41C2698.15 5532.18 2607.19 5572.37 2516.24 5612.55C2509.97 5615.3 2504.36 5619.52 2498.44 5623.07H2479.17H2479.15Z" fill="#335AF5"/>
<path d="M2378.91 5623.07C2363.18 5614.7 2347.74 5605.7 2331.64 5598.07C2233.75 5551.55 2135.62 5505.58 2037.77 5458.97C1953.22 5418.7 1869.13 5377.44 1784.51 5337.31C1709.75 5301.86 1634.78 5266.87 1559.49 5232.6C1518.18 5213.78 1497.55 5181.26 1489.47 5138.02C1473.57 5052.86 1457.13 4967.79 1440.28 4882.8C1422.81 4794.66 1404.58 4706.7 1386.73 4618.65C1378.69 4579.03 1370.67 4539.42 1362.77 4499.79C1361.94 4495.64 1362.05 4491.3 1361.49 4483.96C1369.55 4486.66 1375.55 4488.14 1381.1 4490.61C1475.5 4532.54 1569.97 4574.27 1664.14 4616.7C1768.26 4663.6 1872.18 4710.95 1976 4758.44C2062.34 4797.94 2148.13 4838.65 2234.74 4877.52C2284.97 4900.05 2334.34 4925.17 2388.57 4937.8C2405.01 4941.63 2405.01 4942.33 2405.03 4960.16C2405.11 5053.94 2405.11 5147.74 2405.09 5241.52C2405.09 5362.29 2405.01 5483.06 2405.05 5603.83C2405.05 5610.25 2405.61 5616.65 2405.9 5623.07H2378.91Z" fill="#335AF5"/>
<path d="M3426.9 2245.53C3410.07 2251.79 3396.5 2256.82 3382.95 2261.89C3348.83 2274.65 3314.51 2286.93 3280.62 2300.31C3205 2330.17 3133.79 2368.86 3064.13 2410.44C2983.97 2458.27 2913.65 2518.56 2847.45 2583.82C2788.81 2641.63 2730.81 2700.06 2672.55 2758.25C2656.65 2774.14 2648.98 2775.58 2628.04 2766.48C2584.77 2747.67 2541.41 2729.03 2498.23 2709.98C2490.25 2706.46 2483 2701.29 2473.27 2695.64C2478.17 2687.72 2481.48 2681.07 2485.97 2675.32C2513.12 2640.63 2541.11 2606.58 2567.73 2571.5C2617.13 2506.38 2665.87 2440.74 2714.73 2375.22C2764.74 2308.16 2802.69 2234.87 2831.53 2156.27C2849.17 2108.2 2864.76 2059.6 2878.49 2010.39C2886.03 1983.38 2890.5 1955.49 2896.26 1927.98C2903.07 1895.46 2910.07 1862.96 2916.37 1830.34C2919.65 1813.38 2922.15 1796.22 2924.12 1779.04C2929.44 1732.51 2934.95 1685.98 2939.15 1639.33C2948.21 1538.72 2945.48 1437.77 2947.42 1336.95C2948.18 1297.85 2951.24 1258.7 2955.23 1219.78C2958.57 1187.38 2963.13 1154.9 2970.09 1123.11C2985.26 1053.83 3000.78 984.72 3024.49 917.502C3061.25 813.368 3109.85 715.287 3168.49 622.064C3254.76 484.909 3363.15 367.107 3487.5 263.899C3577.95 188.835 3677.31 128.151 3785.2 80.8839C3847.62 53.53 3911.96 33.2507 3978.12 18.2725C4000.52 13.2027 4023.79 12.0268 4046.5 8.15215C4112.23 -3.04773 4178.43 -0.0598121 4244.45 2.50402C4272.42 3.58352 4300.41 8.84612 4327.98 14.2629C4359.98 20.5279 4392.02 27.4869 4423.21 36.894C4500.78 60.2962 4572.52 95.8813 4638.24 143.553C4686.72 178.714 4730.63 218.791 4768.51 265.094C4818.23 325.836 4857.88 392.669 4885.31 466.422C4895.3 493.275 4906.11 519.973 4913.67 547.539C4922.8 580.792 4930.23 614.661 4936.01 648.685C4948.06 719.74 4954.9 791.469 4950 863.507C4946.57 914.032 4940.17 964.402 4933.29 1014.6C4928.86 1046.87 4922.48 1079 4914.54 1110.6C4905.84 1145.16 4895.47 1179.42 4883.75 1213.09C4869.06 1255.27 4853.14 1297.06 4836.12 1338.35C4812.29 1396.22 4783.14 1451.55 4751.11 1505.29C4701.87 1587.91 4645.26 1665.16 4580.68 1736.42C4513.58 1810.48 4440.61 1878.22 4359.8 1937.21C4272.19 2001.17 4177.81 2053.07 4077.13 2093.45C4075.93 2093.93 4074.74 2094.4 4073.48 2094.72C4029.44 2106.69 4014.13 2141.55 4004.34 2181.06C3991.04 2234.67 3999.65 2286.72 4013.94 2338.71C4023.92 2375.07 4033.08 2411.69 4041.06 2448.53C4048.62 2483.5 4056.58 2518.68 4059.86 2554.19C4063.09 2589.18 4062.23 2624.76 4060.18 2659.9C4058.74 2684.65 4053.2 2709.29 4047.81 2733.62C4042.85 2756 4035.57 2777.86 4029.49 2800.01C4017.14 2845.04 4002.58 2889.57 4003.1 2937.18C4003.41 2965.65 4006.79 2993.26 4015.44 3020.59C4018.72 3030.92 4018.54 3043.9 4015.44 3054.31C4011.35 3067.9 3999.44 3075.57 3984.66 3076.75C3970.26 3077.88 3959.92 3070.31 3952.79 3059.11C3936.27 3033.2 3927.85 3004.25 3925.05 2973.94C3920.27 2922.15 3928.44 2871.83 3942.65 2821.94C3955.59 2776.55 3967.5 2730.88 3976.75 2684.4C3984.79 2643.96 3984.79 2603.79 3981.22 2563.73C3978.12 2528.86 3970.2 2494.24 3962.28 2460.02C3951.17 2412.08 3937.62 2364.72 3926.05 2316.87C3917.4 2281.09 3913.24 2244.25 3918.32 2207.92C3922.74 2176.4 3932.74 2145.63 3940.78 2114.67C3943.02 2106.08 3947.49 2098.08 3950.21 2089.58C3959.56 2060.43 3979.68 2043.43 4008.23 2033.52C4062.61 2014.61 4114.97 1990.94 4165.65 1963.52C4305.54 1887.86 4426.06 1788.45 4529.67 1668.09C4604.56 1581.07 4669.47 1487.29 4722.71 1385.54C4753.82 1326.08 4782.32 1265.33 4803.02 1201.37C4812.66 1171.61 4820.14 1141.09 4827.79 1110.73C4835.11 1081.66 4841.86 1052.44 4847.97 1023.08C4851.5 1006.16 4853.37 988.884 4855.78 971.747C4867.08 891.266 4869.25 810.303 4862.95 729.532C4859.38 683.692 4852.71 637.331 4840.63 593.071C4798.2 437.507 4717.8 306.135 4585.15 210.328C4535.17 174.223 4480.73 146.522 4423.01 124.777C4382.67 109.568 4341.28 97.9054 4298.93 91.6211C4230.22 81.4237 4160.96 77.4526 4091.66 86.9369C4059.91 91.2742 4028.14 95.8428 3996.63 101.626C3952.48 109.703 3909.84 122.83 3867.66 138.503C3791.81 166.685 3720.54 203.331 3652.34 246.569C3567.66 300.236 3491.86 364.621 3422.19 436.311C3332.63 528.494 3255.82 630.43 3193.55 743.007C3163.31 797.696 3136.13 853.791 3114.13 912.547C3095.26 962.957 3079.53 1014.19 3067.4 1066.45C3059.6 1100.07 3054.22 1134.31 3049.05 1168.47C3043.62 1204.53 3037.18 1240.74 3035.79 1277.05C3033.53 1335.42 3033.63 1393.99 3035.6 1452.38C3036.52 1480.23 3043.11 1508.05 3048.74 1535.56C3055.01 1566.21 3061.43 1597.01 3070.68 1626.85C3117.95 1779.37 3210.4 1897.83 3343.35 1985.5C3378.2 2008.48 3415.2 2027.02 3454.08 2041.81C3473.51 2049.19 3483.21 2062.38 3486.83 2082.69C3497.34 2141.57 3494.73 2200.51 3487.85 2259.25C3481.51 2313.36 3472.22 2367.14 3464.68 2421.12C3461.5 2443.92 3458.69 2466.84 3457.16 2489.8C3454 2537.44 3464.49 2582.78 3481.68 2626.98C3495.56 2662.64 3510.44 2698.11 3521.18 2734.75C3533.48 2776.76 3538.28 2820.36 3534.66 2864.31C3530.84 2910.44 3517.33 2954.38 3504.28 2998.56C3488.04 3053.52 3477.75 3109.56 3486.6 3167.35C3487.27 3171.76 3488.39 3176.14 3489.43 3180.49C3493.63 3198.09 3487.56 3215.79 3474.59 3222.52C3458.36 3230.94 3434.99 3225.39 3425.41 3212.9C3414.43 3198.58 3409.59 3182.11 3406.79 3165.17C3400.33 3126.11 3401.24 3086.81 3410.65 3048.43C3421.56 3003.86 3436.29 2960.2 3446.41 2915.46C3454.85 2878.14 3459.94 2840.62 3453.77 2801.24C3446.06 2751.87 3425.97 2707.27 3409.97 2660.96C3398.91 2628.92 3389.46 2596.33 3379.55 2563.92C3378.26 2559.7 3378.22 2555.04 3377.99 2550.56C3377.38 2538.38 3377.22 2526.16 3376.43 2513.98C3372.4 2450.65 3385.7 2390.43 3407.72 2331.52C3415.08 2311.82 3421.13 2291.56 3426.65 2271.26C3428.54 2264.3 3426.96 2256.4 3426.96 2245.53H3426.9ZM3015.63 1724.24C3013.47 1733.44 3012.27 1736.98 3011.85 1740.61C3008.96 1765.47 3007.39 1790.55 3003.17 1815.19C2995.48 1859.95 2986.83 1904.56 2977.42 1948.99C2969.77 1985.15 2961.88 2021.37 2951.45 2056.79C2939.73 2096.59 2925.29 2135.63 2911.57 2174.84C2891.08 2233.32 2868.04 2290.65 2833.34 2342.57C2804.6 2385.57 2775.86 2428.58 2747.97 2472.11C2737.36 2488.65 2728.42 2506.36 2720.09 2524.19C2715.62 2533.79 2719.69 2543.2 2728.01 2549.72C2735.26 2555.38 2748.25 2554.84 2756.79 2548.64C2761.92 2544.92 2766.61 2540.5 2771.12 2536.03C2821.18 2486.56 2874.63 2441.01 2931.35 2399.39C3014.04 2338.67 3102.95 2288.46 3196.79 2247.22C3241.18 2227.71 3286.91 2211.17 3332.08 2193.46C3352.22 2185.56 3372.71 2178.5 3392.68 2170.21C3404.23 2165.43 3414.1 2158.61 3413.64 2143.44C3413.15 2127.69 3413.4 2112.53 3395.26 2104.88C3379.36 2098.15 3363.92 2090.27 3348.58 2082.31C3261.7 2037.32 3186.13 1977.94 3124.23 1902.07C3083.35 1851.95 3048.32 1797.99 3026.38 1736.46C3025.17 1733.05 3021.31 1730.56 3015.61 1724.2L3015.63 1724.24Z" fill="#335AF5"/>
<path d="M1556.71 2250.63C1553.28 2273.59 1550.79 2294.47 1546.92 2315.08C1542.2 2340.27 1536.47 2365.27 1530.9 2390.3C1524.38 2419.56 1516.88 2448.61 1511.12 2478.01C1506.94 2499.31 1503.39 2520.94 1502.35 2542.56C1501.31 2564.21 1501.06 2586.59 1505.36 2607.64C1510.56 2633.07 1520.34 2657.67 1529.22 2682.23C1544.01 2723.07 1562.47 2762.82 1574.21 2804.5C1586.96 2849.68 1588.52 2896.37 1579.25 2943.43C1574.66 2966.66 1570.59 2989.77 1562.22 3011.96C1560.66 3016.12 1559.1 3020.32 1556.96 3024.22C1547.53 3041.39 1532.71 3049.28 1518.08 3045.15C1499.84 3040.02 1487.85 3024.37 1489.8 3004.67C1491.81 2984.33 1495.83 2964.19 1499.32 2944.02C1505.26 2909.63 1505.59 2875.63 1498.98 2840.99C1488.07 2783.78 1460.46 2732.75 1441.88 2678.41C1427.09 2635.13 1417.65 2591.49 1420.71 2545.01C1423.64 2500.62 1433.7 2458 1443.71 2415.01C1454.87 2367.09 1469.64 2319.47 1470 2269.81C1470.29 2231.4 1467.9 2192.86 1464.95 2154.52C1462.99 2129.02 1457.8 2103.76 1454.29 2078.38C1451.63 2059.12 1455.95 2051.31 1474.61 2041.81C1500.79 2028.49 1527.68 2016.44 1553.26 2002.1C1660.54 1941.93 1745.18 1858.35 1807.29 1752.31C1841.72 1693.53 1865.91 1630.55 1883.22 1564.57C1903.91 1485.77 1911.41 1405.77 1909.21 1324.69C1908.3 1291.32 1906.49 1257.91 1903.19 1224.7C1900.55 1198.06 1895.62 1171.59 1890.66 1145.24C1883.92 1109.38 1876.67 1073.61 1868.78 1037.98C1851.44 959.66 1823.93 884.692 1791.48 811.537C1754.36 727.817 1709.15 648.666 1653.77 575.529C1589.08 490.094 1515.77 412.852 1433.82 343.802C1341.89 266.309 1241.44 202.598 1130.88 154.792C1061.24 124.681 989.044 103.072 914.231 91.9105C846.222 81.7708 777.596 77.1637 708.912 87.6117C677.221 92.431 645.029 95.3032 613.974 102.821C520.307 125.51 435.103 166.57 358.111 224.883C304.579 265.441 259.761 314.058 221.496 368.862C185.891 419.849 157.535 474.75 134.249 532.426C118.442 571.578 105.526 611.847 98.4514 653.119C83.2226 741.985 77.6902 831.7 85.9407 921.82C89.1021 956.325 92.4948 990.831 97.1598 1025.14C99.8201 1044.67 105.044 1063.87 109.536 1083.11C114.605 1104.85 119.174 1126.79 125.728 1148.11C137.757 1187.26 149.342 1226.68 164.243 1264.76C185.872 1320 211.877 1373.36 241.351 1424.99C282.623 1497.27 329.292 1565.76 381.494 1630.61C433.407 1695.09 489.908 1755.18 552.538 1809.29C627.352 1873.91 709.144 1928.5 796.218 1975.19C840.169 1998.74 885.335 2019.54 932.929 2034.77C948.023 2039.59 959.744 2048.67 968.495 2062.36C1006.78 2122.33 1022.2 2187.83 1016.92 2258.42C1013.58 2302.97 999.936 2344.71 982.471 2385.61C964.428 2427.9 947.618 2470.7 938.057 2516.02C927.069 2568.07 929.228 2619.5 945.112 2670.02C956.794 2707.13 970.442 2743.62 983.281 2780.34C1004.81 2841.95 1014.12 2904.74 1000.42 2969.45C995.213 2994.05 985.054 3016.83 970.423 3037.36C960.399 3051.44 946.982 3059.42 929.132 3055.08C912.014 3050.93 905.672 3036.55 900.853 3021.83C899.677 3018.24 901.932 3013.23 903.397 3009.16C911.879 2985.78 921.479 2962.92 924.062 2937.66C927.378 2905.28 925.527 2873.05 916.37 2842.34C901.412 2792.22 882.848 2743.2 866.54 2693.48C852.217 2649.82 844.564 2604.79 849.075 2558.91C854.183 2507.07 866.578 2456.78 886.723 2408.44C900.679 2374.95 914.809 2341.39 925.893 2306.92C938.192 2268.68 941.874 2228.77 934.876 2188.89C930.674 2164.97 922.616 2142.05 907.831 2122.04C897.845 2108.52 883.985 2101.14 868.776 2095.46C768.729 2058.14 676.373 2006.9 590.07 1944.07C482.929 1866.06 387.913 1775.65 306.044 1671.46C231.076 1576.04 169.872 1472.29 119.136 1362.18C94.7888 1309.34 73.5649 1255.23 55.7916 1199.93C45.0929 1166.64 38.0183 1132.17 29.5365 1098.16C18.6643 1054.56 11.474 1010.36 6.59694 965.655C0.177729 905.415 -0.959609 845.175 0.659651 784.722C1.91265 737.706 7.25235 691.114 16.833 645.235C35.1846 557.332 64.2156 473.111 107.28 393.941C142.326 329.537 184.908 270.684 235.915 218.155C294.844 157.452 363.875 110.802 439.884 73.848C492.568 48.229 547.989 31.1497 604.779 18.2342C626.562 13.28 649.135 11.8535 671.207 7.99812C735.63 -3.25959 800.555 -0.0981752 865.287 2.40782C892.621 3.46805 919.879 9.0198 946.982 13.7041C971.541 17.9643 995.849 23.7859 1020.25 28.9907C1068.54 39.3038 1114.36 57.2121 1159.7 76.1227C1226.52 103.978 1289.9 138.618 1350.43 178.348C1429.16 230.029 1502.25 288.689 1569.59 354.616C1679.16 461.873 1769.32 583.259 1839.77 719.547C1873.89 785.551 1901.3 854.254 1925.21 924.287C1938.39 962.957 1945.62 1003.63 1957.02 1042.97C1970.78 1090.51 1977.26 1139.4 1983.91 1188.05C1992.14 1248.47 1994.66 1309.5 1993.95 1370.57C1993.72 1389.84 1993.72 1409.14 1994.32 1428.4C1996.51 1498.35 1997.42 1568.41 2001.89 1638.23C2005.38 1692.59 2013.28 1746.66 2019.55 1800.83C2022.42 1825.66 2025.1 1850.58 2029.65 1875.12C2035.34 1905.85 2042.37 1936.34 2049.7 1966.72C2058.85 2004.66 2068.42 2042.5 2078.65 2080.15C2105.79 2179.95 2150.03 2271.3 2213.22 2353.5C2262.67 2417.82 2311.02 2483 2360.17 2547.54C2373.34 2564.83 2387.26 2581.56 2401.56 2597.93C2424.02 2623.62 2415.69 2642.77 2399.27 2658.82C2370.5 2686.93 2340.84 2714.09 2311.54 2741.64C2311.07 2742.06 2310.42 2742.27 2309.94 2742.68C2281.72 2766.25 2275.72 2765.39 2249.7 2738.78C2181.42 2668.92 2113.54 2598.62 2043.92 2530.13C1992.27 2479.34 1932.63 2438.49 1871.19 2400.24C1798.33 2354.88 1720.97 2318.6 1642.65 2284.1C1621.67 2274.85 1600.57 2265.86 1579.34 2257.19C1572.54 2254.41 1565.13 2253.02 1556.75 2250.63H1556.71ZM1916.96 1708.86C1901.44 1743.02 1889.74 1777.27 1871.41 1807.52C1811.47 1906.45 1731.09 1986.25 1634.15 2049.15C1609.59 2065.09 1583.78 2079.17 1558.08 2093.28C1546.05 2099.89 1540.58 2108.47 1540.21 2122.39C1539.65 2143.53 1550.06 2156.29 1568.22 2163.95C1602.28 2178.33 1636.54 2192.3 1670.68 2206.49C1737.97 2234.46 1803.17 2266.63 1866.64 2302.47C1954.26 2351.95 2036.61 2408.49 2110.11 2477.6C2130.08 2496.4 2151.42 2513.76 2172.49 2531.36C2182.38 2539.63 2195.35 2541.16 2202.37 2535.66C2211.8 2528.28 2212.84 2517.68 2209.6 2507.63C2206.09 2496.76 2201.23 2485.95 2194.97 2476.42C2178.85 2451.9 2161.87 2427.96 2144.85 2404.08C2114.8 2361.88 2085.32 2319.47 2062.19 2272.8C2040.83 2229.72 2024.79 2184.86 2010.62 2139.06C1992.31 2079.84 1972.55 2021.05 1961.54 1959.82C1954.3 1919.52 1946.14 1879.34 1940.13 1838.84C1934.38 1800.17 1930.78 1761.16 1926.42 1722.27C1925.69 1715.74 1925.79 1709.2 1916.98 1708.82L1916.96 1708.86Z" fill="#335AF5"/>
<path d="M2442.35 4862.42C2401.85 4861.04 2362.41 4848.22 2324.05 4831C2236.82 4791.85 2149.46 4753.01 2062.3 4713.72C1961.72 4668.36 1861.3 4622.62 1760.76 4577.13C1684.17 4542.48 1607.54 4507.96 1530.92 4473.38C1443.21 4433.78 1355.65 4393.82 1267.69 4354.79C1238.18 4341.7 1223.08 4317.64 1211.63 4289.67C1207.78 4280.26 1210.32 4271.89 1215.41 4264.16C1222.1 4253.99 1230.62 4251.69 1241.94 4257.01C1279.66 4274.79 1317.12 4293.14 1354.98 4310.58C1427.81 4344.13 1500.79 4377.34 1573.81 4410.46C1637.5 4439.33 1701.4 4467.77 1765.09 4496.62C1849.82 4535.01 1934.19 4574.18 2019.18 4611.98C2124.09 4658.67 2229.36 4704.56 2334.73 4750.19C2358.76 4760.6 2383.36 4770.61 2408.67 4777.01C2447.3 4786.8 2485.24 4778.65 2522 4765.29C2569.63 4748 2617.44 4731.13 2664.63 4712.68C2720.21 4690.96 2775.13 4667.55 2830.43 4645.15C2901.78 4616.26 2973.12 4587.36 3044.68 4559C3131.75 4524.52 3219.09 4490.73 3306.24 4456.39C3391.64 4422.78 3476.92 4388.87 3562.24 4355.07C3595.63 4341.85 3628.9 4328.3 3662.38 4315.36C3680.37 4308.41 3687.75 4313.71 3686.5 4333.14C3685.17 4353.94 3679.43 4373.83 3666.43 4390.47C3661.96 4396.17 3654.92 4400.9 3648.08 4403.59C3569.87 4434.42 3491.44 4464.64 3413.17 4495.28C3316.96 4532.94 3220.71 4570.53 3124.71 4608.7C3003.65 4656.84 2882.9 4705.74 2761.86 4753.89C2683.16 4785.2 2604.24 4815.95 2525.24 4846.46C2499.35 4856.47 2472.23 4861.75 2442.37 4862.38L2442.35 4862.42Z" fill="#335AF5"/>
<path d="M2584.21 3571.8C2613.76 3571.26 2657.87 3578.58 2700.33 3594.66C2707.83 3597.49 2715.48 3602.31 2720.73 3608.29C2756.24 3648.69 2767.01 3696 2756.97 3748.22C2744.13 3814.96 2699.1 3853.03 2639.69 3877.7C2601.63 3893.51 2561.04 3896 2520.67 3898.37C2483.39 3900.54 2446.67 3904.36 2410.33 3913.96C2318.63 3938.19 2256.52 3996.78 2218.1 4080.86C2205.73 4107.93 2193.99 4125.18 2160.71 4124.1C2134.4 4123.25 2133.76 4126.84 2128.6 4099.58C2109.55 3998.91 2123.24 3902.74 2170.31 3811.72C2208.66 3737.62 2262.77 3677.86 2335.36 3635.89C2407.36 3594.27 2484.91 3572.18 2584.23 3571.8H2584.21Z" fill="#335AF5"/>
<path d="M2819.52 3652.07C2831.96 3661.72 2845.06 3670.63 2856.69 3681.19C2916.06 3735.17 2956.75 3800.82 2978.5 3878.18C2991.26 3923.56 2998.62 3969.88 2997.43 4016.86C2996.66 4047.51 2991.88 4078.16 2987.42 4108.6C2984.57 4128.09 2978.15 4132.21 2958.51 4130.63C2941.89 4129.3 2925.37 4126.51 2908.74 4125.26C2787.46 4116.12 2682.66 4154.46 2592.71 4235.37C2587.47 4240.07 2582.16 4244.71 2576.84 4249.32C2576.42 4249.69 2575.63 4249.65 2572.64 4250.36C2487.86 4175.18 2385.54 4136.94 2269.47 4124.97C2272.56 4116.6 2274.06 4110.03 2277.2 4104.36C2302.84 4058.21 2340.3 4024.19 2385.91 3998.26C2422.03 3977.73 2460.97 3969.9 2501.99 3967.59C2537.15 3965.6 2572.72 3963.43 2607.13 3956.52C2676.97 3942.51 2738.13 3911.28 2781.49 3852.49C2813.76 3808.73 2830.07 3759.34 2825.3 3704.44C2823.88 3688.04 2819.58 3671.88 2816.59 3655.61C2817.56 3654.44 2818.52 3653.26 2819.5 3652.08L2819.52 3652.07Z" fill="#335AF5"/>
<path d="M4392.25 282.346C4401.54 284.833 4408.52 285.72 4414.59 288.534C4426.77 294.202 4438.51 300.833 4450.33 307.271C4463.76 314.597 4470.47 325.025 4470.32 341.372C4469.93 383.994 4457.48 423.145 4438.57 460.581C4400.13 536.628 4340.01 591.721 4268.24 635.326C4224.62 661.851 4180.16 687.065 4137.29 714.766C4066.85 760.259 4020.15 824.182 3997.32 904.933C3986.41 943.544 3977.14 982.638 3966.98 1021.46C3945.39 1103.95 3904.29 1173.4 3832.14 1221.85C3790.23 1249.97 3747.84 1277.38 3706.14 1305.8C3666.93 1332.51 3629.25 1361.1 3601.26 1400.41C3580.65 1429.36 3565.87 1460.97 3558.96 1495.81C3549.5 1543.58 3541.5 1591.63 3532.05 1639.42C3520.58 1697.48 3496.43 1749.74 3456.62 1793.96C3439.53 1812.95 3421.33 1831 3402.92 1848.75C3394.57 1856.81 3387.5 1856.81 3379.07 1849.44C3366.1 1838.09 3353.51 1826.23 3341.64 1813.74C3332.19 1803.81 3332.77 1799.55 3342.75 1789.43C3355.34 1776.67 3368.68 1764.61 3380.92 1751.52C3410.9 1719.48 3435.13 1683.45 3447.97 1641.29C3455.58 1616.29 3459.65 1590.17 3464.53 1564.41C3470 1535.42 3473.2 1505.95 3479.81 1477.24C3497.72 1399.44 3535.77 1333.44 3600.87 1285.67C3646.64 1252.09 3694.02 1220.65 3741.02 1188.79C3771.82 1167.89 3801.51 1145.82 3826.14 1117.6C3847.37 1093.31 3865.43 1066.94 3874.6 1035.78C3884.67 1001.55 3893.98 967.024 3902.11 932.267C3923.97 838.774 3961.68 754.052 4036.03 689.879C4081.7 650.458 4133.42 619.943 4186.1 590.931C4240.04 561.225 4291.7 528.243 4331.41 479.8C4373.88 427.983 4399.23 370.346 4392.34 301.623C4391.84 296.65 4392.29 291.58 4392.29 282.366L4392.25 282.346Z" fill="#335AF5"/>
<path d="M593.944 280.38C593.944 288.014 593.964 294.857 593.944 301.72C593.848 323.561 592.171 345.517 593.867 367.223C599.997 445.757 622.282 517.872 679.495 575.722C711.726 608.3 748.969 633.803 788.449 656.473C841.595 687.007 895.532 716.135 944.456 753.551C995.386 792.51 1032.32 842.264 1059.1 899.805C1078.01 940.441 1091.56 983.062 1103.7 1026.26C1118.8 1079.99 1139.1 1131.3 1176.07 1174.91C1205.35 1209.45 1239.53 1237.59 1276.81 1262.75C1318.6 1290.95 1361.99 1317.13 1399.03 1351.85C1440.2 1390.46 1467.32 1437.69 1481.9 1491.97C1492.48 1531.43 1501.33 1571.35 1511.95 1610.81C1527.95 1670.21 1554.47 1724.28 1596.07 1770.27C1599.08 1773.59 1602.38 1776.67 1605.15 1780.18C1609.1 1785.17 1610.63 1791 1605.46 1795.78C1590.93 1809.27 1576.35 1822.76 1561.07 1835.41C1554.28 1841.02 1547.61 1836.7 1542.75 1830.8C1527.29 1812.1 1511.12 1793.93 1496.87 1774.32C1468.85 1735.73 1447.8 1693.65 1436.94 1646.8C1428.29 1609.48 1418.98 1572.32 1410.11 1535.04C1394.48 1469.44 1358.2 1417.41 1304.41 1377.85C1266.84 1350.23 1227.54 1325 1189.39 1298.16C1137.48 1261.63 1093.6 1217.58 1063.7 1160.78C1044.87 1124.98 1032.28 1086.95 1021.74 1048.08C1007.16 994.339 991.319 940.846 961.883 893C929.575 840.49 881.864 804.211 830.029 772.77C775.437 739.653 718.049 711.2 666.175 673.591C603.043 627.847 559.42 567.818 534.552 494.2C516.914 441.94 512.133 387.83 513.078 333.006C513.367 316.814 519.96 304.997 534.225 296.939C553.212 286.202 576.325 278.857 593.964 280.4L593.944 280.38Z" fill="#335AF5"/>
<path d="M1435.48 1907.37C1427.56 1922.16 1411.31 1918.15 1400.12 1924.72C1393.72 1928.48 1385.67 1929.4 1378.38 1931.64C1366.31 1935.32 1356.81 1933.47 1347.63 1923.1C1307.56 1877.76 1277.72 1827.02 1262.82 1768.09C1255.16 1737.81 1247.37 1707.51 1241.01 1676.93C1225.88 1604.09 1196.68 1539.39 1135.47 1493.42C1100.23 1466.95 1064.21 1441.52 1028.02 1416.35C988.64 1388.92 949.508 1361.54 918.935 1323.57C893.258 1291.67 874.771 1256.18 862.935 1217.43C851.388 1179.63 842.193 1141.11 832.053 1102.89C819.138 1054.21 795.235 1012.19 758.994 976.816C718.474 937.279 673.308 904.354 625.019 874.919C569.425 841.03 512.944 808.086 466.428 761.358C422.882 717.619 392.328 666.304 372.261 607.818C360.444 573.389 357.745 537.823 352.097 502.547C350.381 491.771 350.285 480.725 348.203 470.046C345.157 454.335 348.049 440.282 359.133 429.025C374.285 413.603 390.304 399.03 406.149 384.302C408.27 382.336 411.586 381.642 415.826 379.695C417.06 385.864 418.545 390.702 418.949 395.637C421.012 421.237 421.667 447.01 424.906 472.455C432.597 533.023 446.843 591.702 478.843 644.829C505.83 689.61 543.671 723.788 586.176 752.626C633.193 784.529 681.906 813.926 729.693 844.731C804.16 892.75 861.451 955.939 895.59 1038.21C906.52 1064.58 913.98 1092.59 920.92 1120.37C934.761 1175.83 949.912 1230.4 986.423 1276.38C1012.72 1309.48 1045.91 1334.15 1081.03 1356.63C1123.52 1383.81 1166.35 1410.49 1204.27 1444.07C1255.34 1489.29 1292.02 1543.44 1307.81 1610.72C1316.87 1649.27 1325.99 1687.84 1336.65 1725.96C1348.37 1767.86 1361.65 1809.46 1387.56 1845.36C1399.89 1862.44 1413.5 1878.59 1426.5 1895.21C1429.6 1899.18 1432.49 1903.32 1435.48 1907.35V1907.37Z" fill="#335AF5"/>
<path d="M4562.56 393.112C4588.12 413.314 4609.65 432.784 4621.04 460.87C4623.32 466.461 4622.91 473.593 4622.26 479.858C4617.25 527.26 4606.76 572.888 4583.34 615.278C4547.46 680.241 4496.77 730.169 4433.35 767.566C4388.26 794.149 4342.15 819.055 4297.33 846.1C4235.2 883.574 4188.43 934.87 4165.97 1004.94C4154.08 1042.03 4145.35 1080.14 4135.92 1117.96C4124.78 1162.61 4113.27 1206.94 4088.15 1246.42C4058.74 1292.63 4019.03 1328.06 3973.9 1358.23C3928.23 1388.76 3881.79 1418.33 3837.82 1451.18C3794.35 1483.66 3758.44 1523.86 3739.4 1575.94C3731.53 1597.46 3725.94 1620.07 3721.74 1642.64C3715.07 1678.44 3712.02 1714.93 3704.52 1750.51C3696.58 1788.22 3680.68 1823.44 3659.76 1855.82C3645.96 1877.2 3629.44 1896.79 3614.77 1917.63C3605.11 1931.35 3592.56 1937.1 3576.74 1932.39C3557.4 1926.65 3536.06 1927.28 3517.46 1914.35C3527.29 1893.74 3542.14 1876.99 3555.3 1859.18C3564.8 1846.34 3574.87 1833.91 3584.56 1821.22C3605.58 1793.79 3617.35 1762.5 3625.33 1729.08C3632.78 1697.87 3637 1666.39 3641.2 1634.66C3655.68 1525.11 3709.57 1439.56 3801.91 1378.41C3842.39 1351.62 3883.01 1325.03 3923.09 1297.62C3954.91 1275.86 3984.42 1251.44 4007.21 1219.69C4026.87 1192.29 4038.8 1161.41 4047.52 1129.39C4060.63 1081.24 4069.42 1031.76 4084.99 984.47C4112.13 902.08 4160.38 833.975 4235.76 788.192C4286.47 757.388 4338.41 728.53 4389.8 698.844C4471.94 651.403 4521.77 580.368 4543.96 488.822C4550.74 460.813 4558.55 433.073 4558.78 403.926C4558.78 401.613 4560.32 399.338 4562.56 393.073V393.112Z" fill="#335AF5"/>
<path d="M3256.47 1712.56C3252.5 1709.42 3248.37 1707.72 3246.87 1704.71C3238.85 1688.83 3230.7 1672.92 3224.16 1656.38C3219.19 1643.82 3220.83 1631.81 3231.03 1620.86C3252.65 1597.63 3269.16 1570.87 3277.81 1540.2C3285.1 1514.43 3291.5 1488.31 3296.37 1461.98C3305.32 1413.65 3312.16 1364.92 3329.99 1318.65C3355.07 1253.54 3394.69 1198.79 3446.14 1151.97C3485.54 1116.11 3529.95 1087.31 3573.81 1057.57C3614.62 1029.89 3654.54 1001.18 3683.97 960.354C3706.53 929.087 3718.48 893.675 3727.44 856.914C3742.11 796.77 3754.84 736.163 3784.14 680.55C3807.91 635.422 3839.81 597.447 3880.79 567.838C3935.1 528.59 3990.48 490.788 4045.94 453.159C4087.36 425.054 4127.36 395.309 4161.6 358.625C4186.41 332.042 4203.68 301.026 4212.82 265.499C4217.35 247.899 4219.43 246.916 4236.49 247.455C4246.76 247.783 4257.21 247.687 4267.22 249.614C4289 253.836 4291.97 261.817 4290.64 279.282C4287.27 323.503 4267.26 359.898 4241.08 393.825C4210.35 433.67 4172.95 466.615 4131.93 495.202C4080.62 530.98 4028.18 565.139 3976.31 600.107C3942.34 623.008 3909.46 647.181 3883.38 679.432C3857.22 711.778 3840.83 749.021 3829.5 788.481C3816.43 833.994 3806.38 880.413 3792.21 925.559C3773.42 985.452 3739.74 1036.44 3689.04 1074.28C3651.2 1102.52 3611.47 1128.2 3572.75 1155.28C3518.39 1193.3 3468.3 1235.86 3432.14 1292.44C3412.71 1322.82 3399.12 1355.95 3391.93 1391.33C3383.78 1431.37 3376.8 1471.64 3369.07 1511.75C3356.71 1575.87 3331.52 1633.56 3284.83 1680.65C3275.38 1690.18 3266.92 1700.72 3256.43 1712.58L3256.47 1712.56Z" fill="#335AF5"/>
<path d="M1682.53 1698.33C1659.4 1662.34 1637.87 1629.74 1627.15 1592.02C1614.06 1545.87 1604.09 1498.85 1591.18 1452.65C1572.23 1384.83 1542.75 1322.53 1492.5 1271.44C1456.91 1235.28 1417.16 1204.38 1376.2 1174.77C1353.42 1158.31 1330.88 1141.48 1308.85 1124.03C1253.97 1080.53 1218.54 1023.95 1197.72 957.482C1183.41 911.853 1169.78 865.897 1152.8 821.252C1130.4 762.38 1093.12 714.245 1038.55 681.147C992.765 653.388 946.365 626.613 900.448 599.047C865.267 577.919 832.342 553.688 802.637 525.293C762.656 487.067 735.206 441.015 715.679 389.391C700.97 350.49 699.447 310.818 701.587 270.26C702.243 257.768 707.255 250.925 719.457 246.511C735.245 240.805 751.09 241.518 766.994 242.077C778.29 242.463 780.68 248.882 780.699 262.53C780.738 285.546 779.562 309.122 783.938 331.464C789.856 361.613 802.984 389.661 820.853 415.164C858.251 468.542 907.811 508.021 963.29 540.908C1007.18 566.931 1052.18 590.931 1094.53 619.731C1162.15 665.706 1208.32 727.084 1234.4 804.018C1247.08 841.435 1260.1 878.793 1270.89 916.769C1292.27 992.064 1336.03 1049.99 1400.72 1093.54C1450.57 1127.08 1500.15 1161.43 1542.16 1204.84C1590.25 1254.56 1626.36 1312.04 1650.63 1377.12C1667.03 1421.13 1678.23 1466.24 1686.52 1512.39C1692.52 1545.72 1704.66 1577.33 1718.62 1608.21C1720.87 1613.19 1723.09 1620.12 1721.35 1624.66C1711.81 1649.62 1699.38 1673.21 1682.51 1698.39L1682.53 1698.33Z" fill="#335AF5"/>
<path d="M266.855 620.502C279.462 621.177 277.187 630.064 278.922 636.271C287.577 666.998 293.746 698.689 305.351 728.241C329.543 789.946 371.297 838.871 425.928 875.94C463.923 901.733 503.537 925.135 542.534 949.405C577.329 971.072 610.716 994.59 640.229 1023.22C690.137 1071.6 723.236 1129.45 739.023 1197.32C748.006 1235.96 756.508 1274.84 768.209 1312.68C785.886 1369.76 818.117 1417.58 868.757 1450.87C907.137 1476.11 947.06 1498.97 985.459 1524.16C1046.8 1564.4 1092.39 1617.47 1119.95 1686.59C1136.03 1726.92 1144.38 1768.67 1153.55 1810.56C1159.14 1836.07 1166.08 1861.3 1172.93 1886.51C1178.21 1905.98 1184.28 1925.24 1190.12 1944.96C1188.43 1946.04 1186.86 1947.87 1185.36 1947.85C1163.02 1947.5 1140.81 1948.95 1118.55 1942.76C1104.19 1938.77 1098.34 1929.89 1095.55 1917.8C1085.6 1874.77 1076.64 1831.5 1066.75 1788.45C1056.84 1745.31 1042.94 1703.32 1020.04 1665.37C995.985 1625.48 958.163 1599.5 919.937 1574.67C878.704 1547.89 835.871 1523.36 796.102 1494.57C751.149 1462.05 721.096 1417.1 700.624 1365.44C684.759 1325.36 674.581 1283.76 665.79 1241.89C646.668 1150.89 599.96 1079.25 520.558 1030.04C477.147 1003.13 433.022 977.414 389.302 950.985C326.922 913.28 279.712 861.695 247.52 796.211C239.096 779.074 234.103 762.708 240.156 742.93C245.727 724.752 246.209 705.089 250.257 686.371C255.057 664.203 261.284 642.324 266.816 620.56L266.855 620.502Z" fill="#335AF5"/>
<path d="M4694.33 638.892C4708.25 684.791 4713.82 727.065 4711.34 770.187C4710.89 777.898 4706.48 786.129 4701.89 792.722C4671.66 836.153 4636.02 874.167 4589.62 900.827C4544.78 926.6 4499.18 951.14 4455.03 978.07C4407.78 1006.89 4365.43 1041.51 4338.44 1091.57C4324.99 1116.54 4317.2 1143.39 4310.34 1170.68C4297.75 1220.78 4292.1 1272.31 4274.98 1321.58C4248.65 1397.4 4200.42 1454.34 4133.61 1496.87C4095.94 1520.85 4057.37 1543.52 4020.66 1568.89C3978.41 1598.09 3940.05 1631.6 3914.47 1677.71C3896.19 1710.61 3886.46 1745.95 3880.06 1782.51C3872.75 1824.17 3866.47 1866 3858.33 1907.49C3854.83 1925.39 3847.56 1941.47 3824.35 1942.63C3808.48 1943.42 3792.83 1947.62 3776.99 1949.55C3770.87 1950.3 3764.51 1948.99 3755.7 1948.47C3759.23 1938.21 3761.24 1929.75 3764.92 1922.1C3779.47 1891.89 3786.32 1859.43 3792.75 1826.97C3800.73 1786.72 3805.03 1745.58 3815.44 1706C3828.57 1656.04 3854.83 1612.24 3890.04 1574.02C3925.09 1535.96 3967.34 1507.47 4011.01 1480.58C4041.41 1461.86 4072.04 1443.39 4101.34 1423.04C4158.57 1383.25 4192.83 1327.73 4207.79 1260.09C4215.65 1224.54 4222.94 1188.86 4230.3 1153.22C4248.46 1065.43 4294.09 995.92 4366.51 942.793C4415.57 906.803 4468.68 877.714 4520.73 846.813C4585.11 808.587 4635.19 757.445 4667.89 689.822C4673.17 678.892 4677.33 667.442 4682.58 656.512C4684.95 651.577 4688.67 647.297 4694.35 638.931L4694.33 638.892Z" fill="#335AF5"/>
<path d="M4062.98 241.094C4064.12 258.983 4054.52 268.332 4046.82 277.759C4022.13 308.062 3993.75 334.741 3962.82 358.645C3918.29 393.054 3873.72 427.425 3829.13 461.757C3764.22 511.742 3710.44 570.922 3680.24 648.242C3667.24 681.456 3657.47 715.981 3647.08 750.159C3632.45 798.351 3620.77 847.526 3590.87 889.685C3577.05 909.174 3562.38 927.834 3543.27 942.002C3503.25 971.689 3462.35 1000.16 3421.96 1029.37C3386.15 1055.25 3351.93 1083.09 3322.71 1116.48C3293.66 1149.65 3274.44 1188.01 3260.87 1230C3241.65 1289.39 3225.7 1350.09 3196.69 1405.94C3193.71 1411.7 3189.58 1416.89 3183.58 1425.99C3181.56 1418.55 3180.11 1415.73 3180.13 1412.92C3180.42 1367.35 3178.07 1321.53 3181.87 1276.23C3191.72 1158.85 3246.29 1064.8 3339 993.067C3385.47 957.096 3433.43 923.072 3480.62 888.046C3517.63 860.577 3539.36 823.295 3552.06 779.459C3570.18 716.944 3586.18 653.62 3612.79 593.919C3645.54 520.436 3696.58 461.044 3758.73 411.059C3820.99 360.977 3885.05 313.248 3951.9 269.335C3970.85 256.882 3990.03 246.337 4013.78 247.378C4020.03 247.648 4026.35 245.084 4032.69 244.275C4042.06 243.08 4051.49 242.289 4062.98 241.094Z" fill="#335AF5"/>
<path d="M1765.29 1319.14C1756 1321.95 1753.84 1317.4 1750.83 1311.69C1733.17 1278.44 1715.86 1244.96 1696.68 1212.57C1669.02 1165.88 1627.44 1132.84 1583.74 1102.21C1539.21 1070.98 1496.03 1038.06 1457.72 999.255C1425.28 966.388 1401.44 927.757 1387.5 883.94C1375.55 846.35 1367.01 807.662 1356.67 769.551C1338.23 701.504 1313.47 636.83 1257.17 589.756C1222.7 560.937 1184.3 538.248 1143.99 518.682C1104.96 499.752 1065.44 481.766 1027 461.68C971.656 432.745 935.782 386.384 915.619 328.091C910.491 313.248 908.775 296.477 909.084 280.65C909.546 255.783 918.163 253.817 938.018 258.983C950.317 262.183 962.23 266.925 974.567 269.875C985.748 272.554 991.049 280.997 992.957 290.077C1003.83 341.816 1038.41 373.025 1082.9 395.618C1121.03 414.972 1159.74 433.15 1197.97 452.331C1266.81 486.875 1327.53 531.655 1373.02 594.806C1396.04 626.767 1411.98 662.584 1422.64 700.212C1434.63 742.544 1444.6 785.493 1454.23 828.442C1470.1 899.188 1513.2 950.292 1569.18 992.893C1604.75 1019.96 1640.1 1047.31 1674.67 1075.63C1708.59 1103.43 1731.67 1138.9 1745.07 1180.92C1757.98 1221.42 1768 1262.25 1766.42 1305.14C1766.27 1309.59 1765.71 1314.01 1765.29 1319.12V1319.14Z" fill="#335AF5"/>
<path d="M1082.44 2078.57C1107.65 2078.95 1132.54 2076.43 1156.43 2085.45C1161.42 2087.34 1166.68 2093.64 1168.11 2098.92C1178.13 2135.86 1189.47 2172.68 1195.79 2210.29C1200.65 2239.09 1200.53 2269.02 1193.86 2298.29C1190.18 2314.46 1188.79 2331.19 1184.36 2347.13C1176.2 2376.53 1166.76 2405.58 1157.5 2434.67C1144.9 2474.27 1131.56 2513.47 1123.64 2554.57C1118.68 2580.25 1116.17 2605.6 1119.41 2630.93C1122.86 2658.09 1128.82 2685.17 1136.36 2711.53C1147.96 2752.06 1162.5 2791.74 1174.62 2832.14C1189.87 2882.95 1194.09 2935.08 1191.51 2988.03C1189.33 3032.54 1177.88 3074.64 1163.85 3116.61C1150.06 3157.81 1137.61 3199.6 1127.57 3241.83C1122.59 3262.75 1124.5 3285.26 1122.92 3307.03C1122.32 3315.28 1121.28 3323.59 1119.32 3331.61C1114.11 3352.91 1101.04 3363.43 1081.77 3362.72C1062.68 3362.02 1047.61 3350.05 1045.93 3329.2C1043.27 3296.06 1043.29 3262.96 1049.23 3229.61C1058.38 3178.16 1078.2 3130.26 1093.22 3080.74C1109.74 3026.22 1116.81 2970.14 1108.95 2913.55C1103.24 2872.45 1090.19 2832.8 1077.08 2793.34C1062.78 2750.27 1049.59 2706.96 1042.69 2661.73C1039.07 2638.04 1036.12 2614.51 1038.28 2590.93C1040.55 2566.24 1044.12 2541.29 1050.61 2517.43C1064.71 2465.65 1080.57 2414.33 1096.59 2363.11C1110.43 2318.84 1120.01 2274.09 1117.49 2227.39C1115.85 2197.14 1107.91 2168.19 1099.13 2139.46C1093.93 2122.42 1087.63 2105.71 1082.07 2088.77C1081.36 2086.57 1082.21 2083.85 1082.48 2078.53L1082.44 2078.57Z" fill="#335AF5"/>
<path d="M3847.64 2081.23C3842.64 2104.09 3836.26 2126.78 3832.97 2149.91C3827.57 2187.91 3819.86 2225.96 3823.79 2264.63C3829.38 2319.47 3842.26 2372.81 3857.22 2425.8C3870.63 2473.34 3880.85 2521.8 3885 2571.04C3886.96 2594.44 3885.23 2618.48 3882.37 2641.9C3878.73 2671.76 3873.06 2701.42 3866.78 2730.86C3861.05 2757.66 3853.27 2783.99 3846.54 2810.57C3843.55 2822.33 3840.64 2834.11 3838.21 2845.98C3827.16 2899.8 3824.08 2954.42 3830.65 3008.66C3834.68 3041.93 3845.11 3074.65 3854.96 3106.91C3870.65 3158.4 3886.61 3209.72 3892.22 3263.56C3892.28 3264.19 3892.44 3264.85 3892.36 3265.47C3888.72 3294.63 3885.53 3323.86 3881.2 3352.93C3878.98 3367.81 3869.75 3376.95 3853.94 3378.03C3837.03 3379.16 3822.9 3373.44 3815.96 3357.75C3811.43 3347.49 3809.12 3335.69 3808.47 3324.44C3807.48 3307.82 3808.79 3291.07 3809.18 3274.39C3810.05 3235.97 3800.08 3199.42 3789.5 3163.09C3775.77 3115.97 3760.77 3069.4 3753.82 3020.36C3749.09 2987.01 3746.8 2953.89 3749.36 2920.66C3752.22 2883.71 3759.12 2847.31 3767.87 2811.09C3781.98 2752.72 3798.46 2694.76 3805.52 2634.84C3810.32 2594.07 3804.4 2553.9 3796.3 2514.34C3787.34 2470.6 3774.21 2427.73 3764.61 2384.11C3754.14 2336.57 3744.45 2288.55 3744.35 2239.78C3744.29 2207.92 3749.56 2175.98 3753.33 2144.19C3755.28 2127.76 3759.52 2111.61 3762.07 2095.24C3763.26 2087.53 3767.93 2084.45 3774.46 2082.46C3783.58 2079.71 3836.34 2078.59 3847.67 2081.25L3847.64 2081.23Z" fill="#335AF5"/>
<path d="M1375.2 2235.5C1374.2 2257.3 1373.91 2279.18 1371.92 2300.91C1370.65 2314.81 1367.43 2328.63 1364.08 2342.24C1353.53 2385.09 1342.06 2427.73 1331.86 2470.68C1327.3 2489.92 1324.21 2509.58 1321.67 2529.22C1318.78 2551.39 1314.82 2573.85 1315.75 2595.98C1316.75 2620.06 1321.13 2644.35 1327.08 2667.77C1340.65 2721.03 1359.08 2773.23 1369.88 2826.99C1379.13 2873.18 1383.55 2920.41 1375.62 2968.43C1369.24 3007.08 1358.49 3044.42 1348.48 3081.91C1333.39 3138.51 1331.09 3194.55 1346.48 3251.07C1349.5 3262.21 1348.42 3272.71 1344.59 3283.14C1339.52 3296.97 1329.55 3305.37 1314.94 3307.45C1301.02 3309.44 1289.11 3304.48 1281.55 3292.97C1275.33 3283.47 1269.58 3272.91 1266.81 3262C1255.12 3216.18 1251.6 3169.29 1258.15 3122.62C1262.31 3092.98 1271.39 3063.89 1279.8 3034.99C1295.35 2981.56 1304.03 2927.27 1297.74 2871.83C1293.72 2836.31 1284.58 2801.57 1273.38 2767.39C1262.04 2732.83 1250.52 2698.07 1243.04 2662.56C1235.27 2625.63 1230.95 2587.65 1234.98 2549.72C1237.14 2529.47 1242.23 2509.5 1246.7 2489.57C1254.26 2455.89 1262.37 2422.35 1270.22 2388.75C1276.77 2360.69 1284.89 2332.85 1289.34 2304.46C1292.89 2281.79 1292.15 2258.4 1293 2235.33C1294.54 2193.38 1287.16 2152.24 1281.24 2110.97C1280.7 2107.18 1279.82 2103.36 1279.8 2099.54C1279.76 2087.36 1284.62 2081.15 1296.45 2080.27C1308.6 2079.36 1320.86 2079.4 1333.02 2080.03C1348.23 2080.82 1352.78 2093.57 1356.35 2104.86C1369.71 2147.29 1375.66 2190.93 1375.14 2235.46L1375.2 2235.5Z" fill="#335AF5"/>
<path d="M4698.75 961.048C4697.98 971.593 4697.9 979.727 4696.67 987.669C4693.85 1006 4691.1 1024.37 4687.13 1042.45C4684.14 1056.1 4675.42 1065.82 4663.11 1073.16C4636.22 1089.22 4609.61 1105.8 4583.42 1122.97C4541.47 1150.46 4512.65 1189.17 4493.59 1234.8C4479.01 1269.69 4470.36 1306.43 4463.28 1343.69C4452.04 1402.76 4436.72 1460.59 4402.85 1511.83C4376.05 1552.39 4342.99 1586.66 4302.92 1613.8C4253.18 1647.5 4202.2 1679.38 4152.58 1713.27C4104.17 1746.33 4071.21 1791.98 4050.14 1846.4C4048.77 1849.93 4049.46 1854.46 4047.59 1857.56C4043.1 1864.98 4039.17 1874.79 4032.29 1878.32C4013.59 1887.9 3993.5 1894.76 3973.88 1902.49C3972.41 1903.07 3970.26 1901.86 3966.88 1901.16C3966.61 1896.38 3965.76 1891.43 3966.17 1886.59C3973.17 1804.1 4006.28 1734.19 4067.32 1677.86C4105.1 1642.99 4148.8 1616.5 4192.48 1590.03C4228.61 1568.15 4263.73 1544.91 4295.26 1516.55C4333.07 1482.57 4357.8 1441.16 4369.11 1391.56C4379.06 1347.95 4388.1 1304.06 4400.02 1260.98C4426.06 1166.85 4477.62 1090.97 4562.98 1040.16C4605.24 1015 4646.99 989.038 4689.01 963.515C4690.52 962.59 4692.56 962.552 4698.71 961.029L4698.75 961.048Z" fill="#335AF5"/>
<path d="M246.055 995.149C250.489 996.98 254.749 998.195 258.45 1000.37C303.597 1026.78 348.974 1052.86 393.697 1079.97C468.106 1125.06 520.732 1188.25 547.874 1271.33C556.992 1299.2 563.314 1327.98 571.276 1356.24C582.842 1397.38 591.806 1439.4 614.456 1476.65C633.752 1508.38 659.333 1534.07 689.405 1555.16C727.554 1581.94 766.377 1607.75 805.085 1633.73C845.104 1660.59 883.272 1689.6 911.34 1729.48C940.756 1771.29 961.325 1817.17 969.961 1867.87C974.606 1895.23 969.267 1899.91 943.898 1890.12C929.094 1884.39 914.732 1877.14 900.988 1869.18C894.8 1865.62 888.072 1859.54 885.836 1853.13C860.044 1779.62 806.762 1730.87 742.937 1690.91C708.836 1669.55 674.677 1648.06 642.311 1624.25C579.334 1577.91 533.936 1517.96 511.46 1442.33C502.746 1413.05 495.44 1383.27 489.079 1353.39C469.474 1261.17 423.229 1187.76 340.531 1139.63C325.669 1130.97 310.613 1122.57 295.153 1115.07C278.093 1106.78 265.852 1095.54 261.747 1076C256.484 1051.07 249.853 1026.42 244.012 1001.61C243.646 1000.08 245.053 998.156 246.055 995.149Z" fill="#335AF5"/>
<path d="M1885.05 4462.7C1865.58 4453.95 1847.95 4446.27 1830.54 4438.12C1816.99 4431.76 1816.06 4427.77 1823.79 4414.29C1840.87 4384.57 1863.37 4359.14 1887.14 4334.72C1937.1 4283.4 1994.82 4243.67 2062.38 4219.33C2118.52 4199.11 2176.33 4189.85 2236.34 4193.77C2280.1 4196.6 2323.01 4202.63 2364.82 4216.09C2443.12 4241.28 2507.99 4286.74 2563.79 4346.36C2587.72 4371.92 2606.34 4400.9 2622.51 4431.64C2647.94 4479.99 2670.16 4529.72 2684.95 4582.47C2694.24 4615.56 2693.57 4613.1 2664.46 4623.68C2656.01 4626.74 2647.8 4630.45 2639.34 4633.41C2633.5 4635.48 2627.41 4636.81 2620.8 4638.62C2619.64 4634.36 2618.6 4632.01 2618.39 4629.6C2611.77 4552.1 2578.89 4485.85 2532.2 4425.15C2484.35 4362.94 2424.04 4318.28 2350.03 4291.96C2302.9 4275.19 2253.94 4266.67 2204.45 4268.37C2100.49 4271.93 2011.59 4311.91 1939.16 4387.25C1920.41 4406.76 1903.17 4427.32 1892.26 4452.52C1890.82 4455.84 1888 4458.57 1885.02 4462.72L1885.05 4462.7Z" fill="#335AF5"/>
<path d="M3575.89 2079.78C3602.22 2078.18 3626.66 2075.73 3649.05 2086.97C3655.43 2090.17 3660.63 2101.18 3661.42 2109.08C3665.95 2154.38 3672.2 2199.68 3664.24 2245.41C3657.43 2284.45 3654.27 2324.23 3645.63 2362.83C3635.9 2406.35 3630.54 2449.84 3632.2 2494.29C3633.47 2528.45 3641.1 2561.51 3651.34 2593.8C3662.71 2629.73 3677.5 2664.62 3688.37 2700.69C3697.47 2730.92 3699.78 2762.57 3697.18 2794.15C3695.62 2812.92 3679.52 2826.4 3660.4 2826.94C3643.9 2827.4 3627.09 2814.16 3625.68 2794.65C3621.88 2741.83 3599.6 2694.56 3583.89 2645.31C3564.75 2585.3 3549.48 2524.44 3552.81 2460.91C3554.45 2429.74 3560.22 2398.76 3564.65 2367.78C3567.35 2348.83 3571.19 2330.04 3574.29 2311.14C3576.97 2294.76 3579.44 2278.35 3581.83 2261.93C3589.11 2211.89 3583.68 2161.92 3580.57 2111.96C3579.98 2102.45 3577.89 2093.05 3575.95 2079.76L3575.89 2079.78Z" fill="#335AF5"/>
<path d="M1616.74 4333.02C1608.82 4330.9 1601.34 4329.55 1594.36 4326.91C1581.17 4321.9 1568.26 4316.21 1555.28 4310.68C1539.96 4304.15 1540.09 4303.57 1539.96 4286.08C1539.3 4196.89 1564.67 4115.21 1611.46 4039.96C1644.81 3986.31 1682.47 3936.17 1733 3896.98C1820.88 3828.8 1919.73 3803.27 2029.59 3820.35C2037.82 3821.62 2046.04 3823.03 2054.17 3824.79C2056.52 3825.29 2058.57 3827.18 2062.65 3829.55C2057.81 3848.38 2052.96 3867.29 2048.12 3886.13C2034.99 3886.13 2023.52 3887.03 2012.22 3885.97C1940.36 3879.34 1875.34 3898.67 1814.06 3935.22C1747.55 3974.9 1697.68 4029.74 1663.89 4098.73C1634.49 4158.76 1617.7 4222.35 1619.01 4289.88C1619.24 4302.06 1619.23 4314.25 1619.21 4326.45C1619.21 4327.62 1618.36 4328.82 1616.72 4333.04L1616.74 4333.02Z" fill="#335AF5"/>
<path d="M2471.96 4694C2473.29 4664.6 2468.35 4638.97 2458.95 4614.19C2434.95 4551.04 2399.94 4495.91 2341.99 4458.46C2292.03 4426.15 2237.13 4413.25 2178.37 4424.39C2129.64 4433.65 2089.31 4459.54 2054.98 4494.87C2046.09 4504.03 2037.73 4513.69 2027.9 4524.44C2004.82 4514.07 1980.07 4507.92 1958.4 4492.38C1975.62 4462.99 1996.8 4439.28 2020.92 4417.84C2077.61 4367.45 2143.27 4340.64 2219.53 4344.05C2340.84 4349.45 2433.17 4405.14 2497.23 4507.92C2518.45 4541.96 2534.3 4578.36 2539.45 4618.51C2541.24 4632.45 2541.3 4646.68 2541.01 4660.75C2540.91 4665.2 2538.14 4672.26 2534.82 4673.53C2515.33 4681.09 2496.42 4690.92 2471.98 4694H2471.96Z" fill="#335AF5"/>
<path d="M2060.72 3415.81C2038.05 3415.65 2019.8 3404.26 2000.72 3395.59C1994.37 3392.69 1988.57 3388.57 1982.13 3385.95C1977.53 3384.08 1972.24 3382.84 1967.31 3382.98C1957.98 3383.23 1954.39 3388.9 1959.37 3397.07C1966.27 3408.4 1973.92 3419.6 1983 3429.24C1993.02 3439.86 2004.98 3448.67 2016.14 3458.2C2019.05 3460.68 2022.25 3462.86 2025.12 3465.41C2047.87 3485.57 2045.78 3518.96 2019.78 3535.38C2007.33 3543.25 1993.47 3539.76 1981.36 3532.88C1972.57 3527.88 1964.44 3521.5 1956.69 3514.95C1916.65 3481.18 1876.78 3447.17 1836.98 3413.13C1832.64 3409.41 1828.77 3405.09 1825.01 3400.75C1810.53 3384.1 1806.71 3366.02 1817.7 3345.85C1822.56 3336.93 1827.07 3327.79 1831.48 3318.61C1837.96 3305.2 1848.74 3298.51 1863.37 3297.58C1866.57 3297.37 1869.81 3297.02 1872.99 3297.23C1891.82 3298.58 1907.59 3292.74 1922.47 3280.64C1943.48 3263.52 1968.29 3254.15 1995.65 3259.59C2011.03 3262.65 2025.89 3269.26 2040.41 3275.59C2071.4 3289.12 2102.03 3303.48 2132.78 3317.61C2136.81 3319.46 2140.38 3322.43 2144.5 3324.03C2154.04 3327.73 2155.62 3335.15 2151.56 3342.69C2137.16 3369.37 2120.81 3394.91 2092.01 3408.23C2082.47 3412.65 2071.21 3413.36 2060.72 3415.77V3415.81Z" fill="#335AF5"/>
<path d="M3243.13 4397.77C3232.99 4401.94 3226.05 4405.12 3218.92 4407.66C3202.73 4413.45 3186.42 4418.92 3170.77 4424.32C3158.52 4407.93 3148.37 4392.38 3136.28 4378.5C3095.76 4331.94 3046.58 4298.48 2986.65 4281.36C2959.18 4273.51 2931.17 4269.91 2902.97 4269.7C2822.97 4269.08 2749.82 4291.96 2683.45 4336.65C2675.6 4341.93 2667.54 4346.86 2658.79 4352.45C2647.44 4334.89 2637.07 4318.83 2626.77 4302.93C2677.18 4240.49 2795.48 4177.15 2949.97 4197.18C3022.51 4206.59 3090.23 4229.52 3146.01 4279.01C3183.84 4312.55 3219.92 4348.04 3243.15 4397.79L3243.13 4397.77Z" fill="#335AF5"/>
<path d="M2032.89 3968.48C2034.76 3985.29 2036.49 3999.28 2037.75 4013.3C2038.13 4017.65 2037.21 4022.1 2036.76 4028.08C2031.54 4028.68 2026.66 4029.93 2021.86 4029.7C1899.59 4023.69 1814.96 4113.05 1787.8 4195.6C1776.58 4229.74 1770.72 4263.99 1776.74 4299.6C1778.32 4308.98 1782.46 4317.91 1784.66 4327.22C1786.07 4333.21 1788.71 4340.96 1786.26 4345.46C1775.89 4364.4 1763.82 4382.43 1752.68 4400.32C1726.98 4395.98 1713.01 4384.01 1707.71 4359.8C1698.74 4318.72 1691.63 4277.81 1700.65 4235.94C1715.84 4165.41 1738.99 4098.23 1792.47 4046.64C1847.67 3993.4 1913.26 3962.79 1991.35 3963.75C2004.63 3963.93 2017.89 3966.68 2032.89 3968.46V3968.48Z" fill="#335AF5"/>
<path d="M2881.03 3454.55C2874.04 3413.98 2888.98 3379.1 2906.73 3345.64C2921.07 3318.61 2937.77 3292.74 2954.71 3267.24C2967.22 3248.43 2978.69 3247.66 2996.31 3261.92C3000.76 3265.53 3004.96 3269.63 3008.47 3274.12C3019.65 3288.39 3034.81 3295.98 3052.14 3294.21C3090.79 3290.22 3108.21 3324.05 3120.78 3353.1C3125.66 3364.4 3117.48 3374.09 3111.49 3382.92C3106.9 3389.69 3100.93 3395.7 3094.83 3401.25C3053.29 3439.23 3011.63 3477.09 2969.78 3514.74C2963.65 3520.25 2956.91 3525.69 2949.47 3528.98C2919.47 3542.32 2884.73 3520.62 2881.17 3486.4C2880.05 3475.6 2881 3464.58 2881 3454.55H2881.03Z" fill="#335AF5"/>
<path d="M3412.79 4333.41C3407.93 4240.51 3365.94 4169.38 3301.54 4109.58C3237.56 4050.17 3162.61 4016.84 3073.98 4014.72C3072.72 3994.33 3071.57 3975.45 3070.29 3954.83C3099.4 3950.93 3128.26 3950.53 3156.69 3955.06C3290.13 3976.26 3381.25 4054.3 3443.75 4170.42C3465.16 4210.19 3474.15 4253.22 3478.96 4297.51C3479.7 4304.36 3480.37 4310.89 3472.62 4313.59C3453.98 4320.07 3435.17 4326.04 3412.79 4333.43V4333.41Z" fill="#335AF5"/>
<path d="M2819.1 3389.9C2813.58 3386.08 2809.34 3384.15 2806.47 3380.99C2784.19 3356.38 2761.9 3331.74 2740.14 3306.64C2725.76 3290.08 2717.01 3270.9 2721.65 3248.46C2723.81 3238.02 2728.11 3227.78 2732.91 3218.16C2751.07 3181.79 2769.83 3145.68 2788.41 3109.52C2789.57 3107.26 2791.26 3105.3 2792.71 3103.19C2803.77 3087.04 2812.83 3085.25 2826.94 3098.34C2843.27 3113.45 2858.79 3129.47 2874.25 3145.47C2889.32 3161.06 2904.11 3176.95 2918.6 3193.06C2931.79 3207.73 2931.37 3209.76 2921.15 3226.28C2891 3274.97 2861.16 3323.88 2831.13 3372.65C2827.81 3378.02 2823.88 3383.06 2819.1 3389.88V3389.9Z" fill="#335AF5"/>
<path d="M2463.26 2991.72C2459.14 3000.2 2457.19 3006.29 2453.65 3011.2C2428.49 3046.23 2398.94 3077.13 2365.34 3104.2C2353.73 3113.55 2342.78 3115.15 2328.27 3108.94C2278.44 3087.64 2227.93 3067.96 2177.77 3047.39C2172.01 3045.02 2166.94 3040.93 2160.14 3036.77C2163.57 3030.39 2165.82 3024.39 2169.58 3019.55C2184.85 2999.85 2200.56 2980.5 2216.19 2961.08C2218.6 2958.1 2221.61 2955.63 2224.17 2952.78C2246.44 2928.02 2271.48 2919.23 2304.54 2932.63C2343.57 2948.46 2384.08 2960.7 2423.79 2974.93C2436.22 2979.38 2448.13 2985.24 2463.25 2991.72H2463.26Z" fill="#335AF5"/>
<path d="M2202.72 3278.05C2188.63 3273.74 2175.02 3270.38 2162.03 3265.43C2120.85 3249.76 2080.06 3233.06 2038.81 3217.62C2017.6 3209.68 2015.19 3198.77 2026.45 3181.73C2045.25 3153.26 2067.43 3128.08 2092.32 3105.01C2102.04 3096 2112.87 3092.92 2125.96 3096.93C2146.08 3103.1 2166.59 3108.09 2186.64 3114.45C2223.09 3126.02 2259.37 3138.22 2295.69 3150.23C2299.32 3151.42 2302.82 3153.04 2306.24 3154.76C2314.04 3158.69 2316.16 3165.02 2311.48 3172.22C2287.75 3208.83 2263.11 3244.82 2225.75 3269.26C2219.18 3273.56 2210.78 3275.07 2202.74 3278.04L2202.72 3278.05Z" fill="#335AF5"/>
<path d="M2319.94 2862.54C2323.45 2855.89 2325.43 2849.55 2329.43 2844.98C2350.38 2820.98 2371.51 2797.12 2393.19 2773.79C2412.03 2753.53 2434.25 2750.1 2459.68 2761.4C2500.37 2779.46 2541.45 2796.63 2582.34 2814.19C2585.27 2815.45 2588.26 2816.7 2590.95 2818.38C2604.72 2826.96 2606.34 2831.54 2596.6 2844.32C2581.57 2864.1 2565.51 2883.13 2549.55 2902.19C2539.31 2914.45 2528.84 2926.56 2517.84 2938.13C2507.27 2949.23 2501.16 2949.9 2487.07 2943.43C2436.1 2920.01 2385.1 2896.66 2334.24 2873.01C2329.31 2870.71 2325.28 2866.51 2319.9 2862.52L2319.94 2862.54Z" fill="#335AF5"/>
<path d="M2666.44 3200.99C2659.5 3196.69 2653.3 3194.24 2648.94 3189.94C2625.36 3166.73 2601.56 3143.69 2579.2 3119.31C2562.79 3101.42 2563.25 3093.21 2574.99 3071.31C2596.97 3030.33 2618.81 2989.25 2640.71 2948.21C2656.82 2918.02 2667.99 2915.73 2692.49 2939.86C2713.34 2960.39 2735.01 2980.65 2745.46 3009.32C2751.38 3025.55 2753 3042.36 2745.61 3057.89C2725.62 3099.88 2704.71 3141.46 2683.41 3182.79C2679.86 3189.67 2672.53 3194.6 2666.44 3200.99Z" fill="#335AF5"/>
<path d="M3100.81 4451.42C3078.06 4461.44 3060.19 4469.71 3042.02 4477.18C3034.06 4480.45 3029.04 4473.94 3023.84 4469.25C3004.06 4451.36 2981.49 4438.35 2956.02 4430.27C2899.52 4412.39 2844.31 4416.11 2791.63 4442.82C2774.88 4451.32 2761.81 4451.29 2747.91 4439.45C2736.4 4429.64 2724.55 4420.21 2711.61 4409.59C2716.89 4404.6 2719.53 4400.9 2723.12 4398.87C2769.73 4372.54 2818.15 4351.78 2872.23 4345.61C2942.37 4337.59 3002.54 4359.14 3054.85 4404.66C3070.14 4417.96 3083.4 4433.55 3100.83 4451.4L3100.81 4451.42Z" fill="#335AF5"/>
<path d="M3071.63 4086.95C3102.37 4087.2 3129.51 4095.34 3155.48 4105.9C3225.74 4134.51 3279.22 4182.72 3314.8 4249.82C3332.02 4282.29 3337.49 4317.77 3335.89 4354.27C3335.7 4358.87 3333.83 4365.64 3330.65 4367.26C3327.64 4368.78 3320.37 4366.14 3317.56 4363.02C3301.29 4345.01 3285.54 4326.49 3270.04 4307.79C3248.8 4282.17 3229.43 4254.83 3206.58 4230.76C3173.5 4195.91 3132.93 4171.39 3087.86 4154.36C3051.44 4140.62 3059.44 4146.87 3065.67 4112.73C3067.15 4104.63 3069.35 4096.67 3071.64 4086.93L3071.63 4086.95Z" fill="#335AF5"/>
<path d="M2392.81 4684.27C2370.68 4680.04 2350.4 4675.03 2331.45 4665.86C2327.36 4663.87 2324.53 4658.57 2322 4654.27C2309.59 4633.05 2295.13 4613.39 2274.74 4599.33C2246.4 4579.79 2214.59 4573.69 2181.23 4581.79C2164.96 4585.74 2151.1 4582.72 2137 4575.56C2125.73 4569.84 2114.24 4564.54 2102.21 4558.75C2109.71 4543.22 2121.72 4534.83 2133.24 4525.81C2182.88 4486.97 2256.29 4492.25 2299.57 4521.68C2352.13 4557.44 2381.72 4608.35 2393.7 4670.08C2394.47 4674.09 2393.21 4678.5 2392.79 4684.27H2392.81Z" fill="#335AF5"/>
<path d="M1851.09 4275.77C1850.05 4268.12 1848.95 4265.07 1849.33 4262.22C1856.47 4210.75 1881.89 4170.07 1922.41 4138.15C1952.89 4114.13 1986.61 4101.26 2025.89 4106.71C2045.32 4109.41 2045.77 4110.2 2044.11 4129.92C2043.9 4132.46 2043.3 4135.05 2043.47 4137.57C2044.47 4152.26 2036.28 4158.93 2023.48 4163.92C2002.1 4172.29 1980.78 4181.16 1960.52 4191.9C1928.08 4209.09 1900.5 4233.23 1873.04 4257.34C1866.91 4262.72 1860.53 4267.85 1851.09 4275.77Z" fill="#335AF5"/>
<path d="M1308.75 4216.05C1363.92 4193.65 1420.77 4175.88 1478.97 4155.33C1478.97 4161.63 1479.56 4165.29 1478.85 4168.71C1476.11 4181.83 1472.76 4194.84 1470.04 4207.97C1468.17 4217.01 1463.39 4222.6 1454.39 4225.4C1434.84 4231.47 1415.51 4238.31 1395.96 4244.41C1384.01 4248.13 1372.12 4247.64 1360.3 4242.63C1343.35 4235.46 1326.16 4228.95 1309.06 4222.14L1308.71 4216.03L1308.75 4216.05Z" fill="#335AF5"/>
<path d="M2945.9 4514.94C2885.56 4537.63 2825.29 4560.3 2763.1 4583.7C2759.2 4567.16 2755.52 4551.51 2751.69 4535.27C2793.65 4519.76 2833.07 4502.83 2876.1 4496.97C2897.94 4493.98 2918.05 4499.46 2937.98 4506.92C2940.29 4507.79 2942.3 4509.64 2944.2 4511.31C2945.05 4512.07 2945.28 4513.53 2945.9 4514.96V4514.94Z" fill="#335AF5"/>
<path d="M3536.78 4237.25C3558.6 4247.88 3578.13 4257.4 3597.67 4266.92C3589.52 4275.29 3572.32 4282.23 3554.2 4284.33C3548.82 4269.79 3543.41 4255.16 3536.8 4237.25H3536.78Z" fill="#335AF5"/>
</svg>
