<svg width="1418" height="600" viewBox="0 0 1418 600" fill="none" xmlns="http://www.w3.org/2000/svg">
<path d="M33.2475 342.447C21.7287 342.447 13.2641 338.869 7.85375 331.713C2.61792 324.557 0 313.475 0 298.466V196.367C0 181.357 2.61792 170.275 7.85375 163.119C13.0896 155.964 21.3797 152.386 32.724 152.386C44.2428 152.386 52.6201 155.964 57.856 163.119C63.2663 170.275 65.9715 181.357 65.9715 196.367V217.048H35.8655V186.157C35.8655 183.888 35.6037 182.317 35.0801 181.445C34.731 180.397 34.0329 179.874 32.9858 179.874C31.9386 179.874 31.1532 180.397 30.6296 181.445C30.2806 182.317 30.106 183.888 30.106 186.157V308.675C30.106 310.944 30.2806 312.602 30.6296 313.649C31.1532 314.522 31.9386 314.958 32.9858 314.958C34.0329 314.958 34.731 314.522 35.0801 313.649C35.6037 312.602 35.8655 310.944 35.8655 308.675V273.595H65.9715V298.466C65.9715 313.475 63.3536 324.557 58.1178 331.713C52.8819 338.869 44.5919 342.447 33.2475 342.447Z" fill="#E6DBB7"/>
<path d="M71.103 339.043V155.789H132.624V184.586H101.209V222.284H104.351C115.52 222.284 123.723 226.036 128.959 233.541C134.369 241.046 137.075 252.652 137.075 268.359V292.968C137.075 308.675 134.369 320.281 128.959 327.786C123.723 335.291 115.52 339.043 104.351 339.043H71.103ZM103.303 312.864C104.874 312.864 105.834 311.991 106.183 310.246C106.707 308.501 106.968 304.399 106.968 297.942V263.385C106.968 256.928 106.707 252.826 106.183 251.081C105.834 249.336 104.874 248.463 103.303 248.463H101.209V312.864H103.303Z" fill="#E6DBB7"/>
<path d="M175.386 342.447C163.867 342.447 155.49 338.869 150.254 331.713C145.018 324.557 142.4 313.475 142.4 298.466V196.367C142.4 181.357 145.018 170.275 150.254 163.119C155.49 155.964 163.867 152.386 175.386 152.386C186.905 152.386 195.282 155.964 200.518 163.119C205.754 170.275 208.372 181.357 208.372 196.367V298.466C208.372 313.475 205.754 324.557 200.518 331.713C195.282 338.869 186.905 342.447 175.386 342.447ZM175.386 314.958C176.433 314.958 177.131 314.522 177.48 313.649C178.004 312.602 178.266 310.944 178.266 308.675V186.157C178.266 183.888 178.004 182.317 177.48 181.445C177.131 180.397 176.433 179.874 175.386 179.874C174.339 179.874 173.554 180.397 173.03 181.445C172.681 182.317 172.506 183.888 172.506 186.157V308.675C172.506 310.944 172.681 312.602 173.03 313.649C173.554 314.522 174.339 314.958 175.386 314.958Z" fill="#E6DBB7"/>
<path d="M215.037 339.043V155.789H248.285C258.058 155.789 265.912 158.931 271.846 165.214C277.955 171.322 281.009 183.539 281.009 201.864V226.996C281.009 245.322 277.955 257.626 271.846 263.909C265.912 270.017 258.058 273.072 248.285 273.072H245.405V339.043H215.037ZM247.238 246.893C248.983 246.893 250.03 245.933 250.379 244.013C250.728 242.093 250.903 238.079 250.903 231.97V196.89C250.903 190.782 250.728 186.768 250.379 184.848C250.03 182.928 248.983 181.968 247.238 181.968H245.143V246.893H247.238Z" fill="#E6DBB7"/>
<path d="M316.471 339.043H286.365V155.789H316.471V232.232H322.231V155.789H352.337V339.043H322.231V261.029H316.471V339.043Z" fill="#E6DBB7"/>
<path d="M386.429 339.043H356.323L371.507 155.789H414.179L427.269 339.043H396.377L396.115 303.701H387.215L386.429 339.043ZM389.309 274.904H394.283L392.974 211.551L392.45 183.277H391.665L391.141 211.551L389.309 274.904Z" fill="#E6DBB7"/>
<path d="M496.77 155.789V339.043H466.664V267.312H466.141L457.763 339.043H426.086L438.652 259.459C435.162 256.317 432.98 252.041 432.108 246.631C431.235 241.22 430.799 232.93 430.799 221.761V201.864C430.799 183.539 433.766 171.322 439.7 165.214C445.808 158.931 453.749 155.789 463.523 155.789H496.77ZM460.905 226.211C460.905 232.319 461.079 236.334 461.428 238.253C461.777 240.173 462.825 241.133 464.57 241.133H466.664V181.968H464.57C462.825 181.968 461.777 182.928 461.428 184.848C461.079 186.768 460.905 190.782 460.905 196.89V226.211Z" fill="#E6DBB7"/>
<path d="M984.029 339.043V155.789H1013.35L1012.3 200.032C1011.78 224.64 1011.17 247.765 1010.47 269.407H1011.26L1024.61 155.789H1054.71V339.043H1025.13L1028.27 224.902H1027.49L1014.13 339.043H984.029Z" fill="#E6DBB7"/>
<path d="M1104.4 339.043H1074.3V184.586H1059.9V155.789H1118.8V184.586H1104.4V339.043Z" fill="#E6DBB7"/>
<path d="M1145.19 339.043H1115.09L1130.27 155.789H1172.94L1186.03 339.043H1155.14L1154.88 303.701H1145.98L1145.19 339.043ZM1148.07 274.904H1153.05L1151.74 211.551L1151.22 183.277H1150.43L1149.91 211.551L1148.07 274.904Z" fill="#E6DBB7"/>
<path d="M1186.42 341.661V311.555H1189.04C1191.83 311.555 1193.75 310.508 1194.8 308.414C1195.85 306.319 1196.37 302.48 1196.37 296.895V155.789H1261.03V339.043H1230.93V184.586H1225.17V297.68C1225.17 313.213 1222.46 324.47 1217.05 331.451C1211.82 338.258 1203.26 341.661 1191.4 341.661H1186.42Z" fill="#E6DBB7"/>
<path d="M1268.83 339.043V155.789H1298.15L1297.1 200.032C1296.58 224.64 1295.97 247.765 1295.27 269.407H1296.06L1309.41 155.789H1339.51V339.043H1309.93L1313.07 224.902H1312.29L1298.94 339.043H1268.83Z" fill="#E6DBB7"/>
<path d="M1347.32 339.043V155.789H1376.64L1375.59 200.032C1375.07 224.64 1374.46 247.765 1373.76 269.407H1374.54L1387.89 155.789H1418V339.043H1388.42L1391.56 224.902H1390.77L1377.42 339.043H1347.32Z" fill="#E6DBB7"/>
<path fill-rule="evenodd" clip-rule="evenodd" d="M669.533 521.897L669.618 121.853L809.871 121.726L810.083 523.703L759.629 554.889C756.888 556.61 754.084 558.224 751.28 560.03C748.433 561.857 745.204 564.194 742.103 565.447L669.533 521.897ZM819.919 121.938L917.131 121.726L917.407 458.144C913.456 460.205 909.696 462.903 905.914 465.112L870.246 486.887L820.174 456.933L819.919 121.938ZM562.273 121.747L659.443 121.726L659.782 457.167C659.294 458.93 629.595 476.648 624.518 479.728C620.269 482.299 616.402 485.358 612.239 486.972L562.507 456.849L562.273 121.747ZM805.261 42.911L815.458 42.9747L815.245 98.6763H805.091L805.261 42.911ZM749.58 43.3784L759.501 43.3996V89.2227L784.251 89.3289C785.504 90.3062 785.461 89.3927 785.44 93.6627C785.419 95.4047 785.398 96.8493 785.206 98.9524L749.071 98.6975C748.858 97.083 748.008 43.3784 749.58 43.3784ZM599.365 42.996L609.647 42.911L609.328 98.7188L599.259 98.4851L599.365 42.996ZM833.218 98.4851C835.767 89.5839 839.761 79.8754 842.884 70.8255C845.837 62.2855 849.554 50.4526 853.038 42.911L863.915 43.1447L884.097 98.655L873.262 98.74L868.971 85.9937C841.142 85.9937 850.298 83.5506 843.776 98.7188L833.218 98.4851ZM698.977 42.9747L709.769 42.911C712.212 47.8184 729.654 95.0648 730.015 98.6975L719.605 98.5913C716.079 93.5565 717.014 86.7797 713.615 85.9937L694.24 86.0999L689.949 98.6338L679.093 98.57L698.977 42.9747ZM629 42.911L669.342 42.9323L669.279 52.3646H654.323L654.089 98.6763L643.935 98.6975V52.3646H628.766L629 42.911ZM549.548 464.093L741.996 579.957C749.602 576.239 874.261 498.614 882.95 493.091C890.725 488.162 898.925 483.361 906.637 478.56L930.196 464.156V16.7598H549.782L549.548 464.093Z" fill="#275086"/>
<path fill-rule="evenodd" clip-rule="evenodd" d="M729.675 472.292C730.801 467.448 737.811 444.228 740.042 441.552L750.345 472.292L781.659 473.481C781.531 473.587 781.361 473.715 781.234 473.821L756.485 491.815L766.512 522.979C761.392 520.77 744.567 506.579 739.851 504.179C735.517 506.537 719.966 518.709 713.083 523.001C715.101 516.011 722.388 497.381 722.728 491.645C718.585 487.97 714.103 485.484 709.705 482.064C706.476 479.557 698.637 474.756 696.895 472.27L729.675 472.292ZM799.652 388.803C791.07 430.845 720.327 457.442 694.219 404.587C684.489 384.873 692.986 363.799 701.059 360.145C700.549 386.424 713.763 407.051 738.512 415.039C758.736 421.54 776.114 415.273 789.689 401.337C793.236 397.704 796.147 393.009 799.652 388.803ZM724.81 357.362L729.122 357.681L729.059 385L724.874 385.128L724.81 382.217V357.362ZM773.331 378.712C769.656 390.927 754.934 386.891 755.592 370.193C756.272 352.773 772.757 354.494 773.352 363.969C765.938 363.969 769.018 361.08 763.028 362.121C759.459 363.905 757.887 379.01 764.047 380.56C768.848 381.771 765.216 378.436 773.331 378.712ZM752.321 381.304C742.825 391.034 731.268 383.789 732.585 368.919C733.902 354.09 749.814 352.731 751.96 365.222L748.093 365.817C747.286 364.627 746.33 363.332 745.331 361.866L740.424 362.078C732.798 371.256 737.747 386.063 748.051 378.648L747.796 375.037L743.101 374.612L743.122 370.321L752.321 370.512V381.304ZM706.774 357.426H721.432L721.39 362.099H711.235L711.193 368.621L720.03 369.046V373.21L711.193 373.359L711.065 385L706.901 385.128L706.816 382.217L706.774 357.426ZM694.771 414.317C685.912 406.096 677.648 390.078 677.308 372.466C676.629 339.135 701.335 310.158 737.62 315.469C752.873 317.7 767.298 328.661 769.082 343.192C757.292 338.37 750.812 332.762 733.095 334.334C716.079 335.842 699.062 348.185 692.222 360.825C685.87 372.551 685.381 385.149 688.716 398.15C690.458 404.885 692.838 408.857 694.771 414.317ZM751.11 411.491L749.495 410.705C749.07 409.431 748.858 409.728 750.175 409.813C759.225 407.328 769.571 395.261 773.841 386.997C779.428 376.184 781.106 361.675 777.983 348.588C774.882 335.523 768.147 327.196 759.48 321.375C745.693 312.112 737.386 313.132 724.47 310.562C727.975 310.328 732.309 309.011 736.855 308.798C741.338 308.586 745.969 308.905 750.26 309.584C758.142 310.838 765.981 314.003 771.738 317.36C782.381 323.584 793.003 334.907 798.165 348.631C806.641 371.234 794.469 399.17 775.413 408.772C766.044 413.488 761.604 412.299 751.11 411.491ZM742.102 565.446C745.204 564.193 748.433 561.856 751.28 560.029C754.084 558.223 756.888 556.609 759.629 554.888L810.083 523.702L809.87 121.725L669.618 121.852L669.533 521.896L742.102 565.446Z" fill="white"/>
<path fill-rule="evenodd" clip-rule="evenodd" d="M599.704 399.786C603.082 397.407 608.011 373.932 610.942 369.301C611.048 369.45 611.218 369.662 611.303 369.768C613.492 373.55 618.654 394.114 621.437 399.765H654.131C649.861 403.121 645.527 406.053 641.151 409.431C638.304 411.64 630.487 417.588 627.576 418.736L637.518 450.729L610.942 431.673C604.399 435.37 589.231 448.35 584.345 450.198L594.181 419.692L567.945 399.786H599.704ZM562.506 456.847L612.238 486.971C616.402 485.357 620.268 482.297 624.517 479.727C629.594 476.647 659.293 458.929 659.782 457.166L659.442 121.725L562.272 121.746L562.506 456.847Z" fill="#2C9563"/>
<path fill-rule="evenodd" clip-rule="evenodd" d="M867.335 371.808C867.569 371.171 867.675 370.746 867.973 370.172C868.589 368.961 868.419 369.492 869.077 368.749L879.253 399.786L911.778 399.914L898.5 409.707C894.889 412.511 887.921 416.675 885.435 419.713L895.165 450.368L875.344 436.326C873.262 434.669 870.904 432.842 868.759 431.673C866.039 432.714 864.021 434.754 861.578 436.496C856.395 440.213 846.495 447.904 841.843 450.432L851.806 418.714C848.874 417.525 828.671 402.612 825.634 399.786H858.54L867.335 371.808ZM820.174 456.932L870.246 486.886L905.914 465.111C909.696 462.902 913.456 460.204 917.407 458.143L917.131 121.725L819.919 121.937L820.174 456.932Z" fill="#DA3540"/>
<path fill-rule="evenodd" clip-rule="evenodd" d="M549.783 16.7614H930.197V464.158L906.638 478.561C898.926 483.363 890.726 488.164 882.951 493.092C874.262 498.616 749.603 576.241 741.998 579.959L549.549 464.094L549.783 16.7614ZM533 472.146L584.878 504.968C589.296 507.751 593.375 510.236 597.964 512.87C636.203 534.9 677.14 561.158 715.846 583.846L742.104 599.567L761.287 588.01C763.688 586.544 765.472 585.44 767.724 583.952L824.785 548.836C838.572 540.955 855.822 529.079 869.758 521.113L888.687 509.323C890.939 507.814 892.851 506.752 895.23 505.371C897.63 504.012 898.778 503.034 901.221 501.632C903.579 500.273 905.682 499.019 907.721 497.638L946.704 473.654V0H533V472.146Z" fill="#D0A65A"/>
<path fill-rule="evenodd" clip-rule="evenodd" d="M694.772 414.317C692.839 408.858 690.46 404.885 688.718 398.151C685.382 385.15 685.871 372.552 692.223 360.825C699.063 348.185 716.08 335.842 733.096 334.334C750.813 332.762 757.293 338.37 769.083 343.193C767.299 328.662 752.874 317.7 737.621 315.47C701.336 310.159 676.63 339.135 677.31 372.467C677.649 390.078 685.913 406.096 694.772 414.317Z" fill="#2C9563"/>
<path fill-rule="evenodd" clip-rule="evenodd" d="M799.652 388.805C796.147 393.011 793.236 397.706 789.689 401.338C776.114 415.274 758.736 421.541 738.512 415.041C713.763 407.053 700.549 386.425 701.059 360.146C692.986 363.8 684.489 384.874 694.219 404.589C720.327 457.444 791.069 430.846 799.652 388.805Z" fill="#275086"/>
<path fill-rule="evenodd" clip-rule="evenodd" d="M750.175 409.815C750.578 410.516 750.345 410.601 751.11 411.494C761.604 412.301 766.044 413.49 775.413 408.774C794.468 399.172 806.641 371.236 798.165 348.633C793.003 334.909 782.381 323.586 771.737 317.362C765.98 314.005 758.141 310.84 750.26 309.587C745.969 308.907 741.337 308.588 736.855 308.801C732.309 309.013 727.975 310.33 724.47 310.564C737.386 313.134 745.692 312.115 759.48 321.377C768.147 327.198 774.882 335.525 777.983 348.59C781.106 361.677 779.428 376.186 773.841 386.999C769.571 395.263 759.225 407.33 750.175 409.815Z" fill="#DA3540"/>
<path fill-rule="evenodd" clip-rule="evenodd" d="M845.964 445.566C846.941 444.631 849.958 439.958 851.211 438.131L867.208 416.504L868.377 421.199C868.313 430.695 870.055 429.017 857.096 438.003C853.697 440.34 849.257 444.015 845.964 445.566ZM891.745 445.077C887.815 440.191 884.224 435.156 880.358 429.824C878.574 427.402 876.492 424.513 874.686 421.985C873.305 420.052 870.543 416.844 869.779 414.55L883.545 419.16L891.745 445.077ZM853.761 418.395C849.979 416.568 845.943 413.169 842.459 410.747C840.292 409.239 838.508 407.879 836.829 406.647L831.858 402.271L867.166 414.125L853.761 418.395ZM869.736 413.084C870.968 410.407 876.131 403.206 878.17 401.294L905.426 401.23C901.05 403.609 875.642 411.979 869.736 413.084ZM867.336 376.948L868.185 412.277C868.015 412.149 867.803 411.979 867.697 411.894L863.639 406.817C862.173 404.671 860.962 403.184 859.667 400.954L867.336 376.948ZM858.541 399.785H825.634C828.672 402.611 848.875 417.524 851.806 418.714L841.843 450.431C846.495 447.903 856.395 440.213 861.578 436.495C864.022 434.753 866.04 432.713 868.759 431.672C870.905 432.841 873.263 434.668 875.345 436.325L895.165 450.367L885.435 419.712C887.921 416.674 894.889 412.51 898.5 409.706L911.778 399.913L879.253 399.785L869.078 368.748C868.419 369.492 868.589 368.96 867.973 370.171C867.675 370.745 867.569 371.17 867.336 371.807L858.541 399.785Z" fill="#D1A65A"/>
<path fill-rule="evenodd" clip-rule="evenodd" d="M718.032 517.519L739.531 488.266C739.51 504.581 742.017 500.503 729.334 509.616C726.147 511.932 721.686 515.819 718.032 517.519ZM740.891 487.374C757.737 492.43 753.488 488.479 758.587 503.647C760.031 507.917 761.773 512.038 762.623 516.605C759.415 514.29 759.67 513.291 756.675 509.255L740.891 487.374ZM703.204 475.116L737.853 486.078C737.152 486.715 737.598 486.673 736.302 487.331C736.047 487.459 734.836 487.862 734.581 487.947L723.874 490.922C721.877 488.181 708.196 480.066 703.204 475.116ZM740.891 485.419C742.038 483.635 743.567 481.341 744.948 479.514C746.287 477.729 747.731 475.647 749.197 473.82L776.644 474.16L740.891 485.419ZM736.961 482.467C729.61 473.353 730.63 473.119 732.436 467.787L737.237 453.107C738.936 447.138 738.363 449.857 739.489 448.71L739.51 484.655L736.961 482.467ZM729.674 472.291L696.895 472.269C698.637 474.755 706.476 479.556 709.705 482.063C714.102 485.483 718.585 487.969 722.727 491.644C722.387 497.38 715.101 516.011 713.082 523C719.965 518.709 735.516 506.536 739.85 504.178C744.566 506.578 761.391 520.769 766.511 522.979L756.484 491.814L781.233 473.82C781.36 473.714 781.53 473.587 781.658 473.48L750.344 472.291L740.041 441.551C737.81 444.228 730.8 467.447 729.674 472.291Z" fill="#D1A65A"/>
<path fill-rule="evenodd" clip-rule="evenodd" d="M588.957 445.185C590.72 441.51 601.979 426.851 605.208 422.22C606.738 420.053 608.756 417.016 610.732 415.337L610.625 429.443L588.957 445.185ZM634.015 444.93C630.68 441.595 613.09 416.718 612.495 414.7L625.942 418.97L634.015 444.93ZM594.82 418.396C592.759 415.252 578.589 407.201 574.213 402.272L609.478 413.744C606.759 415.783 598.856 417.972 594.82 418.396ZM612.112 413.192C613.961 409.708 618.231 403.292 620.801 401.253L643.171 401.168L645.423 401.146L648.078 401.338C637.966 404.588 622.586 411.195 612.112 413.192ZM610.774 374.868L610.625 412.618C607.736 409.623 603.976 404.609 601.788 400.891L610.774 374.868ZM599.706 399.787H567.946L594.183 419.692L584.347 450.199C589.233 448.35 604.401 435.37 610.944 431.674L637.52 450.73L627.578 418.736C630.488 417.589 638.306 411.641 641.153 409.431C645.529 406.054 649.863 403.122 654.133 399.766H621.438C618.655 394.115 613.493 373.551 611.305 369.769C611.22 369.663 611.05 369.45 610.944 369.302C608.012 373.933 603.084 397.407 599.706 399.787Z" fill="#D0A65A"/>
<path fill-rule="evenodd" clip-rule="evenodd" d="M704.546 56.4435L711.301 76.5402L697.493 76.519L704.546 56.4435ZM679.096 98.5702L689.951 98.6339L694.243 86.1L713.617 85.9938C717.016 86.7798 716.081 93.5566 719.608 98.5914L730.017 98.6976C729.656 95.0649 712.215 47.8185 709.772 42.9111L698.98 42.9749L679.096 98.5702Z" fill="#D0A65A"/>
<path fill-rule="evenodd" clip-rule="evenodd" d="M858.265 57.0171C860.305 59.6513 864.129 72.1852 865.233 76.5615L851.425 76.4765L858.265 57.0171ZM833.219 98.4852L843.777 98.7189C850.299 83.5507 841.143 85.9938 868.972 85.9938L873.264 98.7401L884.098 98.6551L863.916 43.1448L853.039 42.9111C849.555 50.4527 845.838 62.2856 842.885 70.8256C839.762 79.8755 835.768 89.584 833.219 98.4852Z" fill="#D0A65A"/>
<path fill-rule="evenodd" clip-rule="evenodd" d="M628.767 52.3647H643.935V98.6976L654.089 98.6764L654.323 52.3647H669.279L669.342 42.9324L629 42.9111L628.767 52.3647Z" fill="#D0A65A"/>
<path fill-rule="evenodd" clip-rule="evenodd" d="M784.25 89.3275L759.501 89.2213V43.3982L749.58 43.377L749.601 98.2712H784.59L784.25 89.3275Z" fill="#D0A65A"/>
<path fill-rule="evenodd" clip-rule="evenodd" d="M805.092 98.6764H815.246L815.459 42.9749L805.262 42.9111L805.092 98.6764Z" fill="#D0A65A"/>
<path fill-rule="evenodd" clip-rule="evenodd" d="M599.259 98.4852L609.328 98.7189L609.647 42.9111L599.365 42.9961L599.259 98.4852Z" fill="#D0A65A"/>
<path fill-rule="evenodd" clip-rule="evenodd" d="M752.321 381.307V370.515L743.123 370.324L743.101 374.615L747.796 375.04L748.051 378.652C737.748 386.066 732.798 371.259 740.425 362.081L745.332 361.869C746.33 363.335 747.286 364.631 748.094 365.82L751.96 365.226C749.814 352.734 733.903 354.094 732.586 368.922C731.268 383.793 742.825 391.037 752.321 381.307Z" fill="#D1A65A"/>
<path fill-rule="evenodd" clip-rule="evenodd" d="M773.33 378.715C765.215 378.439 768.848 381.774 764.047 380.563C757.886 379.012 759.458 363.908 763.027 362.123C769.018 361.082 765.938 363.972 773.352 363.972C772.757 354.497 756.272 352.776 755.592 370.196C754.933 386.894 769.655 390.93 773.33 378.715Z" fill="#D1A65A"/>
<path fill-rule="evenodd" clip-rule="evenodd" d="M706.816 382.219L706.901 385.13L711.065 385.002L711.192 373.361L720.03 373.212V369.048L711.192 368.623L711.235 362.101H721.389L721.432 357.428H706.773L706.816 382.219Z" fill="#D1A65A"/>
<path fill-rule="evenodd" clip-rule="evenodd" d="M612.111 413.195C622.585 411.198 637.965 404.591 648.077 401.341L645.422 401.149L643.17 401.171L620.8 401.256C618.23 403.295 613.96 409.711 612.111 413.195Z" fill="#DEB264"/>
<path fill-rule="evenodd" clip-rule="evenodd" d="M869.735 413.088C875.641 411.984 901.049 403.614 905.425 401.234L878.169 401.298C876.13 403.21 870.967 410.412 869.735 413.088Z" fill="#DEB264"/>
<path fill-rule="evenodd" clip-rule="evenodd" d="M739.512 484.657L739.49 448.712C738.364 449.859 738.938 447.14 737.238 453.109L732.437 467.789C730.632 473.121 729.612 473.355 736.962 482.468L739.512 484.657Z" fill="#E0B364"/>
<path fill-rule="evenodd" clip-rule="evenodd" d="M594.819 418.394C598.855 417.969 606.758 415.781 609.477 413.741L574.212 402.27C578.588 407.198 592.758 415.25 594.819 418.394Z" fill="#E0B364"/>
<path fill-rule="evenodd" clip-rule="evenodd" d="M634.016 444.937L625.943 418.977L612.496 414.707C613.091 416.725 630.681 441.602 634.016 444.937Z" fill="#E0B364"/>
<path fill-rule="evenodd" clip-rule="evenodd" d="M601.786 400.893C603.974 404.611 607.734 409.624 610.624 412.62L610.772 374.869L601.786 400.893Z" fill="#DEB264"/>
<path fill-rule="evenodd" clip-rule="evenodd" d="M891.745 445.083L883.544 419.166L869.778 414.556C870.543 416.85 873.305 420.058 874.686 421.991C876.491 424.519 878.573 427.408 880.358 429.83C884.224 435.162 887.814 440.197 891.745 445.083Z" fill="#E0B364"/>
<path fill-rule="evenodd" clip-rule="evenodd" d="M756.677 509.254C759.672 513.291 759.417 514.289 762.625 516.605C761.775 512.037 760.033 507.916 758.589 503.646C753.49 488.478 757.739 492.429 740.893 487.373L756.677 509.254Z" fill="#E0B364"/>
<path fill-rule="evenodd" clip-rule="evenodd" d="M845.964 445.57C849.257 444.02 853.697 440.344 857.096 438.008C870.054 429.021 868.312 430.7 868.376 421.204L867.208 416.509L851.211 438.135C849.958 439.962 846.941 444.636 845.964 445.57Z" fill="#E0B364"/>
<path fill-rule="evenodd" clip-rule="evenodd" d="M853.761 418.394L867.166 414.124L831.858 402.27L836.829 406.646C838.508 407.878 840.292 409.238 842.459 410.746C845.943 413.168 849.979 416.567 853.761 418.394Z" fill="#E0B364"/>
<path fill-rule="evenodd" clip-rule="evenodd" d="M703.207 475.122C708.199 480.072 721.88 488.187 723.877 490.928L734.584 487.953C734.839 487.868 736.05 487.465 736.305 487.337C737.601 486.679 737.155 486.721 737.856 486.084L703.207 475.122Z" fill="#E0B364"/>
<path fill-rule="evenodd" clip-rule="evenodd" d="M588.956 445.19L610.625 429.449L610.731 415.343C608.755 417.021 606.737 420.059 605.208 422.226C601.979 426.857 590.719 441.515 588.956 445.19Z" fill="#E0B364"/>
<path fill-rule="evenodd" clip-rule="evenodd" d="M740.893 485.426L776.646 474.167L749.199 473.827C747.733 475.654 746.289 477.736 744.95 479.521C743.569 481.347 742.04 483.642 740.893 485.426Z" fill="#E0B364"/>
<path fill-rule="evenodd" clip-rule="evenodd" d="M718.032 517.52C721.686 515.821 726.147 511.933 729.334 509.618C742.017 500.504 739.51 504.583 739.531 488.268L718.032 517.52Z" fill="#E0B364"/>
<path fill-rule="evenodd" clip-rule="evenodd" d="M859.666 400.958C860.962 403.188 862.173 404.675 863.639 406.821L867.696 411.898C867.802 411.983 868.015 412.153 868.185 412.281L867.335 376.952L859.666 400.958Z" fill="#E0B364"/>
<path fill-rule="evenodd" clip-rule="evenodd" d="M851.423 76.4799L865.231 76.5649C864.127 72.1887 860.303 59.6548 858.263 57.0205L851.423 76.4799Z" fill="#275086"/>
<path fill-rule="evenodd" clip-rule="evenodd" d="M697.491 76.5198L711.3 76.5411L704.544 56.4443L697.491 76.5198Z" fill="#275086"/>
<path fill-rule="evenodd" clip-rule="evenodd" d="M724.812 382.222L724.875 385.132L729.06 385.005L729.124 357.685L724.812 357.366V382.222Z" fill="#D1A65A"/>
<path fill-rule="evenodd" clip-rule="evenodd" d="M784.251 89.3275L784.591 98.2712H749.602L749.581 43.377C748.009 43.377 748.859 97.0815 749.071 98.6961L785.207 98.951C785.398 96.8479 785.42 95.4033 785.441 93.6613C785.462 89.3913 785.505 90.3047 784.251 89.3275Z" fill="#92876A"/>
<path fill-rule="evenodd" clip-rule="evenodd" d="M751.11 411.493C750.345 410.601 750.579 410.516 750.175 409.815C748.858 409.73 749.071 409.432 749.495 410.707L751.11 411.493Z" fill="#ED9DA2"/>
</svg>
