<svg width="147" height="91" viewBox="0 0 147 91" fill="none" xmlns="http://www.w3.org/2000/svg">
<path d="M8.88 76.9994H0V75.4154L5.772 70.5434V70.3394H0.12V68.5994H8.76V70.1834L2.988 75.0554V75.2594H8.88V76.9994Z" fill="#E6DBB7"/>
<path d="M17.1412 76.9994H9.74916V75.2834H12.3772V70.3154H9.74916V68.5994H17.1412V70.3154H14.5132V75.2834H17.1412V76.9994Z" fill="#E6DBB7"/>
<path d="M26.9503 76.9994H18.0703V75.4154L23.8423 70.5434V70.3394H18.1903V68.5994H26.8303V70.1834L21.0583 75.0554V75.2594H26.9503V76.9994Z" fill="#E6DBB7"/>
<path d="M33.0096 77.1554C31.4336 77.1554 30.2416 76.7954 29.4336 76.0754C28.6256 75.3474 28.2216 74.3314 28.2216 73.0274V68.5994H30.3576V72.8714C30.3576 73.6474 30.5776 74.2474 31.0176 74.6714C31.4656 75.0874 32.1296 75.2954 33.0096 75.2954C33.8816 75.2954 34.5416 75.0874 34.9896 74.6714C35.4376 74.2474 35.6616 73.6474 35.6616 72.8714V68.5994H37.7976V73.0274C37.7976 74.3234 37.3896 75.3354 36.5736 76.0634C35.7656 76.7914 34.5776 77.1554 33.0096 77.1554Z" fill="#E6DBB7"/>
<path d="M47.9502 77.1554C46.7822 77.1554 45.7862 76.9674 44.9622 76.5914C44.1382 76.2154 43.5142 75.6994 43.0902 75.0434C42.6662 74.3794 42.4542 73.6314 42.4542 72.7994C42.4542 71.9674 42.6662 71.2234 43.0902 70.5674C43.5142 69.9034 44.1382 69.3834 44.9622 69.0074C45.7862 68.6314 46.7822 68.4434 47.9502 68.4434C49.0462 68.4434 49.9862 68.5994 50.7702 68.9114C51.5622 69.2154 52.1782 69.6314 52.6182 70.1594C53.0662 70.6874 53.3462 71.2874 53.4582 71.9594H51.3222C51.2022 71.4634 50.8622 71.0434 50.3022 70.6994C49.7422 70.3554 48.9582 70.1834 47.9502 70.1834C47.2382 70.1834 46.6262 70.2994 46.1142 70.5314C45.6102 70.7554 45.2302 71.0674 44.9742 71.4674C44.7182 71.8594 44.5902 72.3034 44.5902 72.7994C44.5902 73.2954 44.7182 73.7434 44.9742 74.1434C45.2302 74.5354 45.6102 74.8474 46.1142 75.0794C46.6262 75.3034 47.2382 75.4154 47.9502 75.4154C48.9582 75.4154 49.7422 75.2434 50.3022 74.8994C50.8622 74.5554 51.2022 74.1354 51.3222 73.6394H53.4582C53.3462 74.3194 53.0702 74.9234 52.6302 75.4514C52.1902 75.9794 51.5742 76.3954 50.7822 76.6994C49.9982 77.0034 49.0542 77.1554 47.9502 77.1554Z" fill="#E6DBB7"/>
<path d="M60.1162 77.1554C58.9242 77.1554 57.9082 76.9674 57.0682 76.5914C56.2362 76.2074 55.6042 75.6874 55.1722 75.0314C54.7482 74.3754 54.5363 73.6314 54.5363 72.7994C54.5363 71.9674 54.7482 71.2234 55.1722 70.5674C55.6042 69.9114 56.2362 69.3954 57.0682 69.0194C57.9082 68.6354 58.9242 68.4434 60.1162 68.4434C61.3083 68.4434 62.3202 68.6354 63.1522 69.0194C63.9922 69.3954 64.6242 69.9114 65.0482 70.5674C65.4802 71.2234 65.6963 71.9674 65.6963 72.7994C65.6963 73.6314 65.4802 74.3754 65.0482 75.0314C64.6242 75.6874 63.9922 76.2074 63.1522 76.5914C62.3202 76.9674 61.3083 77.1554 60.1162 77.1554ZM60.1162 75.4154C60.8602 75.4154 61.4883 75.3034 62.0003 75.0794C62.5203 74.8474 62.9082 74.5354 63.1642 74.1434C63.4282 73.7434 63.5602 73.2954 63.5602 72.7994C63.5602 72.3034 63.4282 71.8594 63.1642 71.4674C62.9082 71.0674 62.5203 70.7554 62.0003 70.5314C61.4883 70.2994 60.8602 70.1834 60.1162 70.1834C59.3722 70.1834 58.7402 70.2994 58.2202 70.5314C57.7082 70.7554 57.3203 71.0674 57.0563 71.4674C56.8003 71.8594 56.6722 72.3034 56.6722 72.7994C56.6722 73.2954 56.8003 73.7434 57.0563 74.1434C57.3203 74.5354 57.7082 74.8474 58.2202 75.0794C58.7402 75.3034 59.3722 75.4154 60.1162 75.4154Z" fill="#E6DBB7"/>
<path d="M75.1195 76.9994H67.2595V68.5994H69.3955V75.2234H75.1195V76.9994Z" fill="#E6DBB7"/>
<path d="M84.3539 76.9994H76.4939V68.5994H78.6299V75.2234H84.3539V76.9994Z" fill="#E6DBB7"/>
<path d="M94.0683 68.5994V70.2794H87.8643V71.9834H93.2283V73.4834H87.8643V75.3194H94.0683V76.9994H85.7283V68.5994H94.0683Z" fill="#E6DBB7"/>
<path d="M100.614 77.1554C99.4463 77.1554 98.4503 76.9674 97.6263 76.5914C96.8023 76.2154 96.1783 75.6994 95.7543 75.0434C95.3303 74.3794 95.1183 73.6314 95.1183 72.7994C95.1183 71.9674 95.3303 71.2234 95.7543 70.5674C96.1783 69.9034 96.8023 69.3834 97.6263 69.0074C98.4503 68.6314 99.4463 68.4434 100.614 68.4434C101.71 68.4434 102.65 68.5994 103.434 68.9114C104.226 69.2154 104.842 69.6314 105.282 70.1594C105.73 70.6874 106.01 71.2874 106.122 71.9594H103.986C103.866 71.4634 103.526 71.0434 102.966 70.6994C102.406 70.3554 101.622 70.1834 100.614 70.1834C99.9023 70.1834 99.2903 70.2994 98.7783 70.5314C98.2743 70.7554 97.8943 71.0674 97.6383 71.4674C97.3823 71.8594 97.2543 72.3034 97.2543 72.7994C97.2543 73.2954 97.3823 73.7434 97.6383 74.1434C97.8943 74.5354 98.2743 74.8474 98.7783 75.0794C99.2903 75.3034 99.9023 75.4154 100.614 75.4154C101.622 75.4154 102.406 75.2434 102.966 74.8994C103.526 74.5554 103.866 74.1354 103.986 73.6394H106.122C106.01 74.3194 105.734 74.9234 105.294 75.4514C104.854 75.9794 104.238 76.3954 103.446 76.6994C102.662 77.0034 101.718 77.1554 100.614 77.1554Z" fill="#E6DBB7"/>
<path d="M111.856 76.9994H109.72V70.3754H106.264V68.5994H115.312V70.3754H111.856V76.9994Z" fill="#E6DBB7"/>
<path d="M123.301 76.9994H115.909V75.2834H118.537V70.3154H115.909V68.5994H123.301V70.3154H120.673V75.2834H123.301V76.9994Z" fill="#E6DBB7"/>
<path d="M129.69 77.1554C128.498 77.1554 127.482 76.9674 126.642 76.5914C125.81 76.2074 125.178 75.6874 124.746 75.0314C124.322 74.3754 124.11 73.6314 124.11 72.7994C124.11 71.9674 124.322 71.2234 124.746 70.5674C125.178 69.9114 125.81 69.3954 126.642 69.0194C127.482 68.6354 128.498 68.4434 129.69 68.4434C130.882 68.4434 131.894 68.6354 132.726 69.0194C133.566 69.3954 134.198 69.9114 134.622 70.5674C135.054 71.2234 135.27 71.9674 135.27 72.7994C135.27 73.6314 135.054 74.3754 134.622 75.0314C134.198 75.6874 133.566 76.2074 132.726 76.5914C131.894 76.9674 130.882 77.1554 129.69 77.1554ZM129.69 75.4154C130.434 75.4154 131.062 75.3034 131.574 75.0794C132.094 74.8474 132.482 74.5354 132.738 74.1434C133.002 73.7434 133.134 73.2954 133.134 72.7994C133.134 72.3034 133.002 71.8594 132.738 71.4674C132.482 71.0674 132.094 70.7554 131.574 70.5314C131.062 70.2994 130.434 70.1834 129.69 70.1834C128.946 70.1834 128.314 70.2994 127.794 70.5314C127.282 70.7554 126.894 71.0674 126.63 71.4674C126.374 71.8594 126.246 72.3034 126.246 72.7994C126.246 73.2954 126.374 73.7434 126.63 74.1434C126.894 74.5354 127.282 74.8474 127.794 75.0794C128.314 75.3034 128.946 75.4154 129.69 75.4154Z" fill="#E6DBB7"/>
<path d="M136.834 76.9994V68.5994H140.158L144.646 75.7274H144.85C144.746 75.3834 144.666 75.0474 144.61 74.7194C144.562 74.3914 144.538 73.9914 144.538 73.5194V68.5994H146.59V76.9994H143.266L138.778 69.8714H138.574C138.678 70.2154 138.754 70.5514 138.802 70.8794C138.858 71.2074 138.886 71.6074 138.886 72.0794V76.9994H136.834Z" fill="#E6DBB7"/>
<path d="M61.192 88.9434H65.848V89.9994H59.816V88.9674C59.816 88.418 59.9547 88.0047 60.232 87.7274C60.5147 87.4447 60.8507 87.2634 61.24 87.1834C61.6347 87.098 62.1387 87.0367 62.752 86.9994C63.1733 86.9727 63.5013 86.9407 63.736 86.9034C63.976 86.866 64.1733 86.794 64.328 86.6874C64.488 86.5754 64.568 86.4127 64.568 86.1994C64.568 85.65 64 85.3754 62.864 85.3754C62.2773 85.3754 61.8453 85.4714 61.568 85.6634C61.296 85.8554 61.16 86.1114 61.16 86.4314V86.5994H59.736V86.4074C59.736 85.762 59.9893 85.25 60.496 84.8714C61.008 84.4874 61.7973 84.2954 62.864 84.2954C63.9467 84.2954 64.7387 84.466 65.24 84.8074C65.7413 85.1434 65.992 85.5887 65.992 86.1434C65.992 86.634 65.8613 87.002 65.6 87.2474C65.344 87.4874 65.0347 87.6447 64.672 87.7194C64.3093 87.794 63.832 87.85 63.24 87.8874C62.7653 87.9194 62.3947 87.9594 62.128 88.0074C61.8613 88.05 61.6373 88.1407 61.456 88.2794C61.28 88.4127 61.192 88.6154 61.192 88.8874V88.9434Z" fill="#E6DBB7"/>
<path d="M69.9903 90.1034C69.3503 90.1034 68.7877 89.978 68.3023 89.7274C67.817 89.4767 67.4436 89.13 67.1823 88.6874C66.921 88.2447 66.7903 87.7487 66.7903 87.1994C66.7903 86.65 66.921 86.154 67.1823 85.7114C67.4436 85.2687 67.817 84.922 68.3023 84.6714C68.7877 84.4207 69.3503 84.2954 69.9903 84.2954C70.6303 84.2954 71.193 84.4207 71.6783 84.6714C72.1637 84.922 72.537 85.2687 72.7983 85.7114C73.0596 86.154 73.1903 86.65 73.1903 87.1994C73.1903 87.7487 73.0596 88.2447 72.7983 88.6874C72.537 89.13 72.1637 89.4767 71.6783 89.7274C71.193 89.978 70.6303 90.1034 69.9903 90.1034ZM69.9903 88.9434C70.3423 88.9434 70.6516 88.8714 70.9183 88.7274C71.1903 88.578 71.3983 88.3727 71.5423 88.1114C71.6916 87.8447 71.7663 87.5407 71.7663 87.1994C71.7663 86.858 71.6916 86.5567 71.5423 86.2954C71.3983 86.0287 71.1903 85.8234 70.9183 85.6794C70.6516 85.53 70.3423 85.4554 69.9903 85.4554C69.6383 85.4554 69.3263 85.53 69.0543 85.6794C68.7876 85.8234 68.5796 86.0287 68.4303 86.2954C68.2863 86.5567 68.2143 86.858 68.2143 87.1994C68.2143 87.5407 68.2863 87.8447 68.4303 88.1114C68.5796 88.3727 68.7876 88.578 69.0543 88.7274C69.3263 88.8714 69.6383 88.9434 69.9903 88.9434Z" fill="#E6DBB7"/>
<path d="M75.5436 88.9434H80.1996V89.9994H74.1676V88.9674C74.1676 88.418 74.3062 88.0047 74.5836 87.7274C74.8662 87.4447 75.2022 87.2634 75.5916 87.1834C75.9862 87.098 76.4902 87.0367 77.1036 86.9994C77.5249 86.9727 77.8529 86.9407 78.0876 86.9034C78.3276 86.866 78.5249 86.794 78.6796 86.6874C78.8396 86.5754 78.9196 86.4127 78.9196 86.1994C78.9196 85.65 78.3516 85.3754 77.2156 85.3754C76.6289 85.3754 76.1969 85.4714 75.9196 85.6634C75.6476 85.8554 75.5116 86.1114 75.5116 86.4314V86.5994H74.0876V86.4074C74.0876 85.762 74.3409 85.25 74.8476 84.8714C75.3596 84.4874 76.1489 84.2954 77.2156 84.2954C78.2982 84.2954 79.0902 84.466 79.5916 84.8074C80.0929 85.1434 80.3436 85.5887 80.3436 86.1434C80.3436 86.634 80.2129 87.002 79.9516 87.2474C79.6956 87.4874 79.3862 87.6447 79.0236 87.7194C78.6609 87.794 78.1836 87.85 77.5916 87.8874C77.1169 87.9194 76.7462 87.9594 76.4796 88.0074C76.2129 88.05 75.9889 88.1407 75.8076 88.2794C75.6316 88.4127 75.5436 88.6154 75.5436 88.8874V88.9434Z" fill="#E6DBB7"/>
<path d="M84.2299 90.1034C83.1685 90.1034 82.3952 89.9407 81.9099 89.6154C81.4299 89.2847 81.1899 88.842 81.1899 88.2874V88.1994H82.6139V88.2474C82.6139 88.4767 82.7365 88.6634 82.9819 88.8074C83.2325 88.9514 83.6512 89.0234 84.2379 89.0234C84.8139 89.0234 85.2299 88.9407 85.4859 88.7754C85.7419 88.61 85.8699 88.3914 85.8699 88.1194C85.8699 87.5167 85.3125 87.2154 84.1979 87.2154C83.6752 87.2154 83.2832 87.266 83.0219 87.3674C82.7659 87.4634 82.5925 87.5807 82.5019 87.7194H81.1179L81.5099 84.3994H87.1179V85.4554H82.5579L82.3499 87.0714H82.4699C82.7739 86.538 83.5099 86.2714 84.6779 86.2714C85.5792 86.2714 86.2405 86.4367 86.6619 86.7674C87.0832 87.0927 87.2939 87.5487 87.2939 88.1354C87.2939 88.7594 87.0539 89.2447 86.5739 89.5914C86.0939 89.9327 85.3125 90.1034 84.2299 90.1034Z" fill="#E6DBB7"/>
<path d="M72.7262 35.3039C72.7262 34.5964 72.6956 33.9165 72.733 33.2409C72.8054 31.918 72.9097 30.5962 73.0103 29.2745C73.1165 27.8841 73.4411 26.5354 73.8424 25.2057C74.4223 23.2826 75.2758 21.4847 76.4202 19.8322C77.1486 18.7811 78.0371 17.8803 79.0827 17.1385C80.4197 16.1904 82.4483 16.2561 83.8124 17.1673C84.7181 17.7723 85.2998 18.6118 85.7361 19.5905C86.0828 20.3673 86.2699 21.1889 86.3043 22.0136C86.3411 22.8911 86.2724 23.7913 86.1048 24.6534C85.8876 25.7732 85.4888 26.8587 84.8519 27.8166C84.3867 28.5155 83.8425 29.1635 83.3049 29.8108C82.3913 30.9116 81.1812 31.6437 80.0147 32.4359C78.7697 33.2808 77.9561 34.4688 77.6818 35.9457C77.459 37.1459 77.699 38.3192 78.2561 39.4151C78.7464 40.3797 79.4349 41.1651 80.3663 41.7223C80.9738 42.0855 81.6273 42.3107 82.3477 42.1948C83.1712 42.0622 83.7707 41.5787 84.2198 40.9019C84.8568 39.9428 85.1268 38.8555 85.2053 37.7289C85.2851 36.5863 85.2053 35.4481 84.939 34.3252C84.896 34.1435 84.912 33.8275 85.0218 33.7545C85.2458 33.6048 85.3691 33.8963 85.4783 34.0405C86.1294 34.9007 86.5841 35.8629 86.9007 36.8925C87.3947 38.5002 87.6788 40.1447 87.7285 41.8254C87.7733 43.3361 87.4947 44.7787 86.7823 46.1305C86.3196 47.0079 85.7453 47.7768 84.9218 48.3475C83.8038 49.1225 82.5864 49.3881 81.2426 49.1445C79.3594 48.8028 77.883 47.8069 76.6546 46.3821C75.5937 45.1511 74.8279 43.7503 74.2406 42.2445C74.1639 42.0481 74.0676 41.9732 73.8332 42.0015C72.3881 42.1751 71.2315 41.6376 70.3147 40.53C69.3127 39.3194 68.7506 37.8958 68.361 36.4016C68.0861 35.3481 67.8652 34.2791 67.6658 33.2084C67.5523 32.5985 67.4946 31.972 67.4756 31.351C67.4283 29.7691 67.3786 28.1854 67.4044 26.6035C67.4222 25.4922 67.5142 24.3767 67.6596 23.2752C67.8382 21.9228 68.0781 20.5759 68.3463 19.2376C68.6163 17.8902 68.9795 16.5617 69.2526 15.2154C69.5667 13.6679 69.9325 12.1253 69.9024 10.5268C69.8785 9.23882 69.6109 8.03123 68.9218 6.91814C68.2745 5.87315 67.9781 4.73613 68.2278 3.49724C68.4561 2.36758 69.1636 1.57786 70.065 0.941544C70.7013 0.492993 71.3971 0.169619 72.1948 0.110099C73.2012 0.0346241 73.9375 0.442677 74.4671 1.2913C74.9052 1.99266 75.0518 2.76582 75.0715 3.5672C75.1064 4.99446 74.899 6.39779 74.5959 7.78824C74.3861 8.75345 74.2032 9.72726 73.9302 10.6747C73.4976 12.1768 72.9962 13.6593 72.5311 15.1522C72.2439 16.0751 71.9543 16.9973 71.6948 17.9282C71.0805 20.1311 70.7725 22.383 70.7424 24.6663C70.7259 25.9316 70.7289 27.2066 70.8621 28.4621C70.9897 29.6623 71.237 30.8595 71.545 32.0284C71.8212 33.0765 72.2507 34.084 72.6152 35.1081C72.6379 35.1713 72.6814 35.2266 72.725 35.302L72.7262 35.3039ZM76.3717 30.6907C76.4036 30.6944 76.4349 30.6987 76.4668 30.7024C76.4668 30.8454 76.4619 30.9883 76.4681 31.1307C76.4748 31.2835 76.4846 31.4369 76.5073 31.5872C76.5319 31.7474 76.5601 31.91 76.6116 32.0634C76.7092 32.3536 77.0725 32.4248 77.3443 32.1714C77.8794 31.6725 78.4304 31.181 78.8961 30.6214C79.6938 29.6623 80.4964 28.6959 81.1781 27.6546C82.1924 26.1058 82.8263 24.4313 82.3624 22.5162C82.0593 21.265 81.0726 20.8582 80.1037 21.4743C79.3036 21.983 78.7924 22.7365 78.3181 23.5109C77.5775 24.7191 77.1436 26.0598 76.8663 27.4398C76.6503 28.5136 76.5331 29.6059 76.3717 30.6907Z" fill="#E6DBB7"/>
<path d="M36.5295 26.6875C36.9965 26.2352 37.4702 25.7898 37.9285 25.3295C38.7907 24.465 39.7786 23.8072 40.9837 23.5501C41.8409 23.3672 42.6552 23.5452 43.4412 23.9415C44.5114 24.4815 44.9385 25.4412 45.2354 26.5107C45.5116 27.5066 45.4422 28.5179 45.3796 29.526C45.2483 31.6504 44.6912 33.6962 44.1794 35.7481C43.7536 37.4539 43.3394 39.1634 42.8644 40.8558C42.3539 42.6733 41.8158 44.4859 41.0101 46.2022C40.0437 48.2609 38.6041 49.9072 36.678 51.1246C35.074 52.1383 33.3467 52.3205 31.558 51.799C29.5134 51.2025 28.1837 49.8201 27.5431 47.8068C27.2339 46.8348 27.2621 45.8095 27.3063 44.7958C27.367 43.4004 27.6738 42.0474 28.007 40.6987C28.2009 39.9151 28.3672 39.1242 28.5826 38.3467C29.2367 35.9819 30.0724 33.687 31.1727 31.4853C32.1176 29.5948 32.9239 27.6392 33.4811 25.5965C33.9615 23.8366 34.1119 22.051 33.8032 20.2286C33.5621 18.8025 33.9204 17.4704 34.6788 16.2481C35.1108 15.5522 35.5876 14.8889 36.2779 14.417C37.1578 13.8163 38.1083 13.3825 39.1748 13.2487C39.5988 13.1953 39.9344 13.6169 39.8123 14.0329C39.4607 15.2282 39.0858 16.4168 38.7532 17.617C38.1341 19.8524 37.5328 22.0927 36.9357 24.3343C36.7572 25.0056 36.6172 25.6867 36.462 26.3641C36.4424 26.4488 36.4356 26.5365 36.4233 26.623C36.4583 26.6445 36.4939 26.666 36.5295 26.6875ZM40.4947 32.7524C40.4947 32.3339 40.5094 31.9148 40.4916 31.497C40.4548 30.6514 40.3235 29.823 39.8117 29.1174C39.4675 28.6431 39.0079 28.4264 38.3961 28.567C37.7868 28.7069 37.291 29.037 36.8173 29.4125C35.2851 30.6275 34.3371 32.2572 33.713 34.06C33.2841 35.3001 33.0018 36.5949 32.7171 37.8792C32.3686 39.4494 32.2422 41.046 32.368 42.6543C32.433 43.49 32.5159 44.3264 32.9564 45.0732C33.2853 45.6303 33.6664 46.1384 34.3426 46.2838C35.252 46.4796 35.9858 46.1059 36.6136 45.4947C37.8764 44.2663 38.6477 42.7384 39.1374 41.0779C39.9381 38.3633 40.4088 35.5892 40.4947 32.7524Z" fill="#E6DBB7"/>
<path d="M54.4218 40.2766C54.3033 40.5202 54.1825 40.7626 54.0671 41.0074C53.6676 41.853 53.1884 42.6519 52.5325 43.3207C51.547 44.3246 50.375 44.8781 48.9391 44.5688C47.0265 44.1571 45.7815 43.0029 45.2028 41.1228C44.9267 40.2257 44.8893 39.3059 44.9543 38.3928C45.0249 37.4074 45.1415 36.4139 45.3618 35.4524C45.8293 33.4158 46.6381 31.5154 47.8745 29.8121C48.7103 28.6603 49.7215 27.684 50.8524 26.8317C51.7734 26.1371 52.6981 25.4431 53.6566 24.8031C54.89 23.979 55.5643 22.8825 55.5625 21.3798C55.5612 20.49 55.595 19.6021 55.2765 18.748C54.9415 17.8491 54.207 17.4422 53.3387 17.3809C52.6546 17.3324 52.187 17.8337 51.8575 18.4136C51.4384 19.1524 51.4439 19.9323 51.6372 20.733C51.7298 21.1172 51.8612 21.5068 51.863 21.8946C51.8673 22.6776 50.9328 23.7213 50.1572 23.8029C49.5061 23.8717 48.971 23.5649 48.5317 23.0979C47.753 22.2701 47.6512 21.2491 47.6996 20.1814C47.7886 18.2227 48.474 16.4727 49.5963 14.8933C50.3376 13.8501 51.3328 13.0874 52.5705 12.7383C53.7118 12.4167 54.8685 12.5082 56.019 12.8162C58.1133 13.377 59.2098 14.8092 59.6553 16.8476C59.8958 17.9466 59.7479 19.0431 59.6639 20.1415C59.5516 21.6056 59.1914 23.023 58.8465 24.4417C58.2225 27.0128 57.5254 29.5678 57.4426 32.237C57.4076 33.3612 57.3432 34.4951 57.642 35.5849C57.8727 36.4268 58.2274 37.2386 58.5753 38.0431C59.0527 39.1469 59.6945 40.1827 59.9829 41.3639C60.1824 42.1813 60.2351 42.9968 59.7614 43.7638C59.1472 44.7572 58.22 44.9959 57.1419 44.864C55.7337 44.6916 54.9826 43.8362 54.9262 42.3966C54.9059 41.8775 54.8488 41.3584 54.7764 40.8436C54.7488 40.646 54.6316 40.4613 54.5555 40.2705C54.5114 40.2729 54.4666 40.2754 54.4224 40.2778L54.4218 40.2766ZM55.2053 27.7638C55.1446 27.6589 55.0759 27.446 54.9298 27.3288C54.8568 27.2699 54.6101 27.3404 54.4997 27.4263C52.8853 28.6867 51.4525 30.1109 50.4879 31.9499C49.7884 33.2839 49.3312 34.6694 49.5165 36.2071C49.6252 37.1079 49.9412 37.8755 50.7346 38.3983C51.3408 38.7978 52.1348 38.9107 52.5932 38.5106C52.9755 38.1768 53.3185 37.7577 53.559 37.3116C54.1585 36.2004 54.2003 34.9443 54.3622 33.7238C54.5328 32.4395 54.7003 31.1546 54.8783 29.871C54.9709 29.204 55.0845 28.5394 55.2053 27.7638Z" fill="#E6DBB7"/>
<path d="M93.6393 32.2596C93.7006 30.9121 93.8012 29.5652 94.2185 28.2736C94.8008 26.4714 95.7433 24.8656 96.9657 23.4199C97.9026 22.3117 99.009 21.3839 100.118 20.4617C101.326 19.4572 102.376 18.3306 103.015 16.8732C103.306 16.2075 103.419 15.4987 103.338 14.7778C103.245 13.9518 102.492 13.5143 101.598 13.7125C100.574 13.9396 99.9398 14.6415 99.5005 15.5141C99.2311 16.0504 99.1133 16.6622 98.9163 17.2359C98.8537 17.4181 98.7537 17.5881 98.6709 17.7636C98.4868 17.6556 98.2321 17.5918 98.1327 17.431C97.9266 17.0997 97.7241 16.7309 97.6572 16.3535C97.3019 14.3476 97.8278 12.57 99.1323 11.012C99.7018 10.3321 100.356 9.75901 101.167 9.39146C102.284 8.88461 103.435 8.78766 104.627 9.12576C105.475 9.3663 106.231 9.73753 106.86 10.3739C107.348 10.8672 107.553 11.4882 107.758 12.1153C108.098 13.1523 108.082 14.2114 107.883 15.2656C107.776 15.8326 107.608 16.3916 107.43 16.942C106.912 18.5484 106.391 20.1542 105.843 21.7502C105.334 23.2303 104.93 24.7361 104.795 26.2953C104.683 27.5747 104.698 28.8559 104.863 30.1402C105.078 31.8086 105.65 33.3543 106.294 34.8877C106.793 36.0781 107.286 37.2771 107.415 38.5798C107.561 40.0445 106.326 41.5503 104.7 41.3036C103.918 41.1846 103.285 40.8575 102.759 40.3047C102.328 39.8506 102.308 39.2769 102.426 38.6988C102.539 38.1423 102.708 37.5956 102.798 37.036C102.849 36.7199 102.817 36.3819 102.767 36.0628C102.747 35.9364 102.571 35.7376 102.478 35.7437C102.348 35.7523 102.168 35.8989 102.117 36.0284C101.777 36.8881 101.508 37.7778 101.13 38.6191C100.91 39.1094 100.579 39.5714 100.214 39.969C99.4974 40.7483 98.4678 40.8355 97.4302 40.3581C96.2453 39.8132 95.4985 38.8621 94.8702 37.7778C93.9743 36.2315 93.7515 34.5165 93.6159 32.7805C93.6024 32.6087 93.6313 32.4339 93.6411 32.2608L93.6393 32.2596ZM102.788 21.6827C102.661 21.757 102.539 21.8091 102.439 21.8889C101.374 22.7394 100.486 23.7586 99.6717 24.8422C98.4132 26.5174 97.5179 28.3386 97.5173 30.4961C97.5173 31.7405 97.9388 32.7781 99.0433 33.4396C99.7441 33.8593 100.596 33.8673 101.117 33.0309C101.65 32.1761 101.854 31.2103 101.961 30.2494C102.275 27.4274 102.513 24.5968 102.788 21.6827Z" fill="#E6DBB7"/>
<path d="M106.892 42.3595C106.861 41.9594 107.044 41.2439 107.466 40.6266C107.902 39.9891 108.527 39.5896 109.326 39.5362C109.663 39.5135 109.76 39.5921 109.756 39.9314C109.752 40.4401 109.688 40.9488 109.697 41.4568C109.734 43.5167 110.204 45.3938 112.082 46.5879C112.888 47.1009 114.503 47.1812 115.17 46.1835C115.412 45.8209 115.543 45.4416 115.532 45.0097C115.491 43.3689 114.972 41.8851 114.117 40.4928C113.194 38.9913 111.969 37.7574 110.714 36.5498C109.529 35.4091 108.394 34.2352 107.541 32.8135C106.739 31.4776 106.307 30.0307 106.186 28.4851C106.087 27.2296 106.092 25.9723 106.428 24.7531C106.893 23.0687 107.893 21.8028 109.583 21.2236C110.28 20.9849 111.024 20.9247 111.784 20.9609C112.563 20.9977 113.266 21.1984 113.936 21.5549C115.07 22.1599 115.804 23.108 116.246 24.3045C116.526 25.0605 116.701 25.8422 116.643 26.6381C116.596 27.2903 116.447 27.9432 116.272 28.5765C116.082 29.2699 115.677 29.8657 115.236 30.4308C115.173 30.5112 115.115 30.6032 115.032 30.6566C114.93 30.7229 114.805 30.7542 114.689 30.8008C114.651 30.683 114.578 30.564 114.582 30.4474C114.611 29.5626 114.714 28.6783 114.502 27.7984C114.248 26.7436 113.782 25.8588 112.719 25.4053C111.813 25.0188 110.32 25.4415 110.067 26.6559C109.877 27.5671 109.974 28.4157 110.291 29.26C110.93 30.9659 112.087 32.3115 113.349 33.5774C114.339 34.5715 115.387 35.5115 116.333 36.5449C117.544 37.8666 118.554 39.3344 119.273 40.9966C119.923 42.4981 120.278 44.0573 120.279 45.6852C120.281 47.8697 119.527 49.7461 117.851 51.2004C117.2 51.7655 116.433 52.0809 115.594 52.2797C114.545 52.5289 113.519 52.4669 112.524 52.1196C111.142 51.6367 110.068 50.7371 109.21 49.5443C108.412 48.4342 107.976 47.172 107.529 45.9074C107.165 44.8753 106.908 43.8211 106.892 42.3595Z" fill="#E6DBB7"/>
<path d="M88.2212 29.6714C88.1862 28.3018 88.2961 26.9427 88.5262 25.5927C88.771 24.1569 89.0244 22.7223 89.2472 21.2827C89.4607 19.9039 89.6779 18.5239 89.8246 17.1371C89.9989 15.489 90.0756 13.8279 89.7865 12.1865C89.5945 11.0955 89.3288 10.0125 89.0177 8.94848C88.7673 8.09249 88.363 7.28252 88.0948 6.43083C87.8101 5.5282 87.9433 4.64644 88.3611 3.78861C88.7452 3.00134 89.2613 2.36871 90.1363 2.15701C91.4899 1.82873 92.7675 1.95145 93.7671 3.04798C94.4451 3.79168 94.7427 4.73603 94.7746 5.70922C94.8145 6.90944 94.7544 8.11765 94.6586 9.31604C94.5862 10.2266 94.4199 11.1329 94.242 12.0307C93.9855 13.326 93.6756 14.6103 93.3983 15.9013C93.1841 16.8978 92.9755 17.8956 92.7828 18.8964C92.5392 20.1653 92.2889 21.4337 92.0913 22.7106C91.9581 23.5746 91.8827 24.4508 91.8342 25.3246C91.7765 26.3634 91.7329 27.4072 91.7605 28.4467C91.8084 30.266 92.0097 32.0725 92.4582 33.8409C92.7356 34.9338 93.0141 36.0303 93.3786 37.0955C93.7161 38.0822 94.1628 39.0321 94.5715 39.9936C94.8127 40.5606 95.1096 41.0926 95.2121 41.7252C95.3465 42.5536 94.5353 43.5919 93.8517 43.7851C92.3637 44.2049 91.1788 43.687 90.1762 42.6015C89.6865 42.0713 89.3079 41.4724 89.1165 40.7729C89.0312 40.4606 88.9772 40.1348 88.9483 39.8114C88.7857 37.9914 88.636 36.1696 88.4795 34.349C88.3949 33.3617 88.2887 32.3762 88.2255 31.3877C88.1893 30.8177 88.2188 30.2433 88.2188 29.6714H88.2212Z" fill="#E6DBB7"/>
<path d="M60.282 28.5559C60.3409 26.8096 60.355 25.1516 60.4655 23.501C60.5489 22.2505 60.7545 21.0085 60.9073 19.7629C61.0251 18.8013 61.1668 17.8429 61.2583 16.8789C61.3791 15.6112 61.4785 14.341 61.5522 13.0696C61.5878 12.4584 61.5786 11.8399 61.5258 11.2306C61.392 9.67998 60.9999 8.21958 60.0642 6.92485C59.2806 5.8406 58.9149 4.60417 59.1112 3.2579C59.2155 2.54181 59.6125 1.94477 60.1249 1.44713C60.8275 0.764176 61.6375 0.257945 62.6186 0.0554529C63.7219 -0.172198 64.5472 0.314398 65.0265 1.27041C65.4044 2.02331 65.5824 2.83267 65.7045 3.66718C65.9223 5.15581 65.8536 6.64689 65.745 8.12938C65.6425 9.53148 65.3958 10.9238 65.2013 12.3185C65.1001 13.0444 64.9872 13.7691 64.8577 14.4907C64.635 15.7327 64.3877 16.9697 64.1656 18.2117C64.076 18.713 63.9974 19.2198 63.9612 19.7273C63.8354 21.4785 63.6679 23.2298 63.6378 24.9835C63.6133 26.3991 63.6943 27.8251 63.8551 29.2328C64.0649 31.0675 64.5325 32.8586 65.2222 34.5743C65.6873 35.7328 66.2598 36.8477 66.7789 37.9847C67.0409 38.5591 67.3146 39.1328 67.3201 39.7838C67.3293 40.8877 66.5108 42.2144 65.1062 42.1297C63.8581 42.0548 62.8389 41.4388 62.1682 40.352C61.6829 39.5654 61.4571 38.6769 61.2208 37.789C60.8214 36.2856 60.5802 34.7626 60.5011 33.212C60.4201 31.6308 60.3519 30.0495 60.282 28.5559Z" fill="#E6DBB7"/>
</svg>
